<?xml version="1.0" encoding="utf-8"?><svg viewBox="0 0 22 18" xmlns="http://www.w3.org/2000/svg" xmlns:xlink="http://www.w3.org/1999/xlink"><style>:root>svg{display:none}:root>svg:target{display:block}</style><svg viewBox="0 0 10 15" id="ev" xmlns="http://www.w3.org/2000/svg"><path d="m.5 14.987 2.68-7.28-2.478.383.195-.444c1.065-2.39 2.13-4.78 3.194-7.172.03-.066.062-.096.135-.101.362-.027.724-.06 1.085-.09.433-.038.864-.076 1.297-.112L7.685.08l.874-.077L8.641 0 5.778 5.735 9.5 5.394.514 15 .5 14.987Z"/></svg><svg viewBox="0 0 22 10" id="hatchback" xmlns="http://www.w3.org/2000/svg"><path fill-rule="evenodd" clip-rule="evenodd" d="M16.157 8.384 5.004 8.36c.12-.728-.06-1.367-.62-1.886-.45-.42-1-.609-1.63-.57-1.252.08-2.181 1.218-1.94 2.388-.077 0-.154.007-.229-.003-.03-.004-.067-.04-.08-.07a2.963 2.963 0 0 1-.129-.321c-.145-.45-.247-.91-.33-1.373A2.19 2.19 0 0 1 0 6.121a1.09 1.09 0 0 1 .474-.916.129.129 0 0 0 .062-.12c0-.292-.011-.585.013-.875.086-1.031.389-1.995 1.02-2.85.123-.165.263-.316.43-.443.093-.07.198-.083.307-.097C2.822.75 3.336.675 3.853.613c.41-.05.821-.089 1.233-.12A71.965 71.965 0 0 1 6.908.369 19.055 19.055 0 0 1 8.759.351c.45.02.899.048 1.346.087.49.044.973.14 1.45.26.964.24 1.898.566 2.807.957.708.304 1.392.65 2.06 1.03.25.142.518.251.779.375.091.044.186.08.273.13.437.244.924.363 1.398.514.717.228 1.42.488 2.088.829.243.124.479.26.687.433.13.108.25.226.316.38a.45.45 0 0 1 .037.17 6.183 6.183 0 0 1-.241 1.81l-.007.022a.297.297 0 0 0-.001.242c.08.215.032.353-.162.465a3.35 3.35 0 0 1-.73.294c-.187.056-.375.11-.567.166l.05-.362a1.83 1.83 0 0 0-.08-.824 2 2 0 0 0-.529-.83 2.113 2.113 0 0 0-.99-.539 2.165 2.165 0 0 0-1.585.215 2.022 2.022 0 0 0-.966 1.145c-.11.323-.137.654-.051.988.006.023.01.046.016.076ZM6.237.879h-.061c-.47.026-.94.046-1.409.08-.497.036-.992.088-1.49.127-.15.012-.259.062-.333.199-.2.37-.373.75-.486 1.154-.01.037-.013.075-.02.118 1.345.176 2.689.29 4.034.426L6.237.879ZM2.09 3.27c-.306-.274-.69-.371-1.08-.469-.13.345-.215.692-.26 1.056.544.002.997-.164 1.34-.587Zm19.725 2.173c-.02-.044-.03-.084-.054-.113-.058-.072-.116-.147-.186-.207-.279-.239-.605-.408-.938-.565a14.883 14.883 0 0 0-1.763-.68l-.117-.036.01.019c.403.422.85.794 1.36 1.095.342.203.701.37 1.1.447.19.037.38.062.588.04ZM17.143 3.88l.002-.012c-.01-.007-.018-.015-.028-.021a29.768 29.768 0 0 0-1.903-1.14 19.388 19.388 0 0 0-2.596-1.204c-.664-.246-1.341-.447-2.054-.51A29.088 29.088 0 0 0 8.975.882C8.273.858 7.569.862 6.867.854h-.06c0 .026-.003.045 0 .064l.1.852.143 1.182c.01.08.008.078.094.086l.462.041.955.088.833.074.9.077.888.076.919.076.784.066.767.063.772.065.444.036c0-.048-.002-.09 0-.132.006-.134.005-.27.023-.402.022-.164.143-.225.3-.158.188.078.263.234.28.414.01.104-.011.211-.018.325l1.69.133ZM1.126 7.98c-.048-.868.682-1.724 1.724-1.766 1.015-.04 1.79.664 1.877 1.58.091.969-.698 1.827-1.726 1.868-1 .04-1.854-.708-1.875-1.682Zm.679-.035c0 .574.454 1.021 1.052 1.02.592 0 1.054-.452 1.056-.998.003-.6-.485-1.019-1.056-1.018-.582 0-1.052.445-1.052.996Zm14.66-.009c-.022-.843.692-1.682 1.73-1.722 1.019-.04 1.8.678 1.875 1.606.074.933-.684 1.797-1.725 1.842-1 .043-1.882-.713-1.88-1.726Zm1.806-.987c-.584-.002-1.054.443-1.057.994-.002.575.472 1.03 1.059 1.024.58-.006 1.054-.45 1.053-.986-.002-.584-.46-1.033-1.055-1.032Z"/></svg><svg viewBox="0 0 10 15" id="hibrid" xmlns="http://www.w3.org/2000/svg"><path fill-rule="evenodd" clip-rule="evenodd" d="M3.309 1.376V.322C3.31.1 3.41 0 3.628 0h2.746c.215 0 .315.1.316.316v1.06h.096c.463 0 .927.008 1.39-.002a1.282 1.282 0 0 1 1.323 1.292v.06c0 3.64-.001 7.28.001 10.92 0 .406-.126.752-.432 1.027-.224.202-.49.315-.789.32-.449.01-.898.004-1.347.004-1.703 0-3.407-.005-5.111.003-.653.003-1.205-.454-1.303-1.074a1.7 1.7 0 0 1-.017-.265V2.706c0-.56.246-.972.754-1.218.162-.078.337-.113.518-.112H3.31ZM8.278 13.6V2.725c0-.138-.01-.147-.146-.147H1.839c-.139 0-.146.006-.146.145v10.928c0 .138.007.144.147.144H8.08c.197 0 .197 0 .197-.194Zm-4.02-7.236v-.113l.001-1.866c0-.189.118-.305.292-.291.09.007.15.057.2.13.571.837 1.144 1.672 1.715 2.508.054.078.106.157.16.234.08.11.094.226.03.346-.064.12-.172.165-.3.166-.208.002-.415 0-.633 0V9.45c0 .12-.031.22-.149.276a.263.263 0 0 1-.3-.055.586.586 0 0 1-.054-.067c-.619-.904-1.235-1.81-1.858-2.712-.126-.183-.077-.381.048-.456a.516.516 0 0 1 .234-.068c.2-.009.402-.003.615-.003Zm3.107 6.722H2.626c-.158 0-.204-.045-.204-.204v-1.505c0-.162.04-.203.203-.203h4.73c.17 0 .222.051.222.22v1.478c0 .171-.043.214-.212.214Z"/></svg><svg viewBox="0 0 22 8" id="sedan" xmlns="http://www.w3.org/2000/svg"><path fill-rule="evenodd" clip-rule="evenodd" d="M7.043 6.946c.034-.143.077-.28.096-.42.124-.902-.136-1.68-.774-2.326a2.775 2.775 0 0 0-1.622-.807c-.785-.111-1.517.042-2.171.502a2.68 2.68 0 0 0-1.113 1.673c-.096.439-.076.878.058 1.31l.015.052c.002.004 0 .008 0 .027-.124-.023-.25-.039-.37-.072a1.555 1.555 0 0 1-.877-.594c-.15-.207-.23-.44-.263-.694-.061-.48.009-.94.169-1.393.078-.22.143-.444.163-.68.022-.25-.017-.49-.093-.727-.034-.105-.076-.207-.105-.313a.471.471 0 0 1-.016-.186c.026-.174.237-.338.43-.339.323-.001.645-.005.966.001.29.006.557-.072.79-.232C3.12 1.186 4 .851 4.919.605 5.55.435 6.19.319 6.838.233 7.698.118 8.56.07 9.426.07c.597 0 1.193.037 1.786.104.584.067 1.136.237 1.678.457a21.421 21.421 0 0 1 2.624 1.298c.22.128.465.17.712.2.943.115 1.875.292 2.794.534.685.18 1.366.37 2.048.556.238.065.444.18.595.383.092.124.133.269.174.413.11.392.175.791.161 1.2a2.785 2.785 0 0 1-.295 1.193c-.179.347-.478.526-.868.538-.246.008-.493.002-.744.002.026-.101.055-.196.075-.293a2.582 2.582 0 0 0-.179-1.634c-.388-.842-1.052-1.36-1.943-1.578a2.889 2.889 0 0 0-1.917.17c-.85.383-1.404 1.027-1.611 1.945a2.49 2.49 0 0 0 .07 1.374c.002.003 0 .008-.001.014H7.043Zm7.634-4.42-.017-.011c-.462-.24-.92-.487-1.388-.716a7.911 7.911 0 0 0-1.793-.644A7.703 7.703 0 0 0 9.866.992c-.24-.002-.48 0-.726 0l.367 1.665h4.584c.091 0 .183 0 .274-.003a.276.276 0 0 0 .1-.02c.07-.032.139-.07.212-.107ZM4.7 1.61l.019.029c.196.29.435.543.668.802.045.05.101.08.17.084.062.002.123.008.184.011.478.024.956.049 1.433.07.403.018.806.031 1.21.046.066.002.133 0 .204 0l-.364-1.607c-.635-.054-2.83.297-3.524.565Zm12.742 2.291c.626.01 1.126.184 1.54.566.346.318.559.712.62 1.181.077.58-.08 1.096-.456 1.538a2.07 2.07 0 0 1-1.31.717 2.14 2.14 0 0 1-1.305-.2c-.582-.293-.973-.753-1.1-1.398-.144-.734.082-1.357.635-1.86a2.076 2.076 0 0 1 1.004-.5c.143-.029.29-.035.372-.044Zm-.022.862c-.063.007-.128.011-.193.02-.534.068-1.025.523-1.038 1.12-.008.4.148.722.463.961a1.283 1.283 0 0 0 1.626-.077c.369-.333.492-.898.266-1.339-.233-.455-.622-.663-1.124-.685ZM2.27 5.953c.012-.613.23-1.1.657-1.489.487-.442 1.065-.613 1.713-.546.474.048.893.234 1.24.561.34.323.556.717.607 1.187.085.772-.202 1.39-.817 1.849-.474.352-1.015.47-1.6.389a2.101 2.101 0 0 1-1.3-.688 1.885 1.885 0 0 1-.473-.994c-.016-.1-.02-.203-.027-.268Zm2.008-1.187c-.039.004-.108.007-.176.017-.35.053-.633.225-.832.515a1.14 1.14 0 0 0 .184 1.501c.55.501 1.46.4 1.881-.214.222-.322.273-.673.135-1.039-.182-.48-.635-.777-1.192-.78Z"/></svg><svg viewBox="0 0 22 12" id="suv" xmlns="http://www.w3.org/2000/svg"><path fill-rule="evenodd" clip-rule="evenodd" d="M.38 8.632c-.065-.077-.123-.14-.136-.229C.24 8.38.227 8.358.216 8.335a2.07 2.07 0 0 1-.213-1.023c.015-.306.097-.598.23-.874.074-.156.157-.308.23-.464.019-.038.02-.086.024-.13a11.94 11.94 0 0 1 1.21-4.137 1.14 1.14 0 0 1 .884-.633 31.317 31.317 0 0 1 4.776-.34 45.38 45.38 0 0 1 3.234.13c.37.027.738.068 1.107.105.285.028.57.058.855.09a.87.87 0 0 1 .407.154c1.098.767 2.197 1.534 3.293 2.305.108.076.217.11.346.11 1.115.002 2.195.209 3.248.567.233.08.466.162.687.267.208.1.37.263.499.457.29.436.552.885.738 1.375.142.378.24.764.228 1.173-.011.37-.123.708-.321 1.018-.1.157-.251.264-.408.386v-.112a3.285 3.285 0 0 0-.12-1.028c-.347-1.145-1.08-1.918-2.233-2.268a2.897 2.897 0 0 0-1.111-.104c-.843.076-1.543.442-2.104 1.068a3.21 3.21 0 0 0-.817 1.82c-.03.26-.04.52 0 .78.004.023.01.046.014.075H6.76c.009-.066.021-.133.025-.2.066-1.045-.26-1.943-1.01-2.676a2.987 2.987 0 0 0-1.736-.847c-1.062-.138-1.968.19-2.711.96A3.325 3.325 0 0 0 .46 7.986c-.037.175-.048.355-.07.532-.005.032-.006.064-.01.113Zm14.28-5.105-.061-.045-2.101-1.442a.2.2 0 0 0-.09-.029c-.233-.024-.466-.045-.699-.067-.27-.027-.538-.055-.808-.079-.304-.026-.609-.047-.913-.07-.13-.01-.26-.016-.393-.024.003.019.004.033.007.046l.115.538.23 1.081c.008.038.023.054.06.05.014-.002.029 0 .043 0l4.552.046c.015 0 .03-.002.058-.005ZM4.133 1.82c0 .229-.003.453.001.676.005.229.025.455.088.676.035.125.1.224.236.254.043.01.088.014.133.014l4.343.043h.06l-.366-1.76a45.748 45.748 0 0 0-4.495.097ZM15.51 8.685c.027-.947.373-1.682 1.098-2.215a2.366 2.366 0 0 1 1.603-.467c.711.05 1.299.357 1.761.899.427.5.638 1.082.634 1.74a2.602 2.602 0 0 1-.82 1.916c-.408.396-.9.633-1.47.689a2.413 2.413 0 0 1-1.893-.613 2.59 2.59 0 0 1-.856-1.493c-.033-.167-.043-.339-.057-.456Zm3.978.014c-.009-.475-.165-.85-.491-1.147a1.38 1.38 0 0 0-1.72-.116c-.426.296-.633.716-.638 1.228-.003.385.132.727.394 1.018.432.479 1.192.595 1.741.255.471-.293.693-.727.714-1.238ZM6.253 8.605c-.009.706-.234 1.306-.691 1.815a2.455 2.455 0 0 1-1.455.809 2.36 2.36 0 0 1-1.718-.353 2.575 2.575 0 0 1-1.19-1.805 2.601 2.601 0 0 1 .528-2.098 2.4 2.4 0 0 1 1.547-.935c.925-.15 1.696.149 2.32.84a2.594 2.594 0 0 1 .639 1.426l.02.301Zm-1.122.017c-.006-.056-.01-.15-.027-.242a1.865 1.865 0 0 0-.077-.263 1.413 1.413 0 0 0-1.592-.9 1.45 1.45 0 0 0-1.147 1.316c-.033.43.09.81.38 1.137.358.405.969.57 1.476.393.6-.212.99-.766.987-1.44Z"/></svg><svg viewBox="0 0 20 18" id="telegram" xmlns="http://www.w3.org/2000/svg"><path d="M19.435 1.35 15.987 15.47a1.07 1.07 0 0 1-1.528.692l-4.361-2.237-2.063 3.352c-.56.914-1.98.518-1.98-.55v-3.736c0-.289.12-.564.33-.766l8.5-8.062c-.007-.1-.115-.188-.223-.114L4.52 11.064 1.112 9.317c-.798-.41-.764-1.559.06-1.915L17.976.127c.805-.35 1.67.37 1.46 1.223Z"/></svg><svg viewBox="0 0 22 14" id="van" xmlns="http://www.w3.org/2000/svg"><path fill-rule="evenodd" clip-rule="evenodd" d="M2.835 11.218c.044-.911.442-1.605 1.28-2.005.534-.256 1.091-.255 1.645-.045.388.147.7.397.945.732.233.317.365.673.406 1.064a2.18 2.18 0 0 1-.524 1.71 2.06 2.06 0 0 1-1.31.721c-1.082.156-2.084-.551-2.361-1.589a2.218 2.218 0 0 1-.08-.588Zm2.146-1.201a1.2 1.2 0 1 0 .002 2.399 1.2 1.2 0 0 0-.002-2.4Zm8.835 1.2c.044-.91.442-1.604 1.278-2.004.536-.256 1.093-.255 1.646-.045.388.147.7.397.946.732.232.317.365.673.406 1.064a2.18 2.18 0 0 1-.524 1.71 2.061 2.061 0 0 1-1.31.721c-1.082.156-2.084-.551-2.362-1.589a2.212 2.212 0 0 1-.08-.588Zm2.145-1.2a1.2 1.2 0 1 0 .003 2.399 1.2 1.2 0 0 0-.003-2.4ZM22 9.796c-.039.146-.066.283-.112.414-.118.33-.314.606-.609.804-.203.136-.43.2-.673.2-.633.002-1.267 0-1.9 0-.01 0-.02 0-.035-.002-.03-.925-.409-1.669-1.159-2.21a2.6 2.6 0 0 0-1.703-.495 2.732 2.732 0 0 0-2.565 2.703h-5.56c-.03-.929-.412-1.675-1.17-2.217a2.58 2.58 0 0 0-1.68-.486 2.634 2.634 0 0 0-1.822.843 2.652 2.652 0 0 0-.75 1.858c-.012.003-.022.007-.032.007-.302-.002-.604 0-.905-.005a1.156 1.156 0 0 1-.707-.271 1.516 1.516 0 0 1-.575-1.025A7.425 7.425 0 0 1 0 8.973c0-.565.001-1.131.03-1.696A32.455 32.455 0 0 1 .44 3.62c.101-.586.238-1.167.358-1.751.058-.28.164-.54.345-.765.221-.274.497-.454.849-.506.075-.01.152-.011.228-.011 4.811 0 9.623 0 14.434-.003.492 0 .873.195 1.165.58.859 1.131 1.716 2.263 2.573 3.395.394.52.787 1.041 1.184 1.56.256.333.385.708.388 1.128V7.7h-.08c-.485 0-.97-.002-1.454 0a.693.693 0 0 0-.672.554.89.89 0 0 0-.017.165c-.002.221-.003.442 0 .663a.698.698 0 0 0 .73.718l1.441-.001H22Zm-11.073-6.22c0-.407-.006-.816.002-1.224a.666.666 0 0 0-.663-.668c-.803.01-1.606.003-2.41.003-.044 0-.09 0-.133.009a.645.645 0 0 0-.53.648v2.469a.65.65 0 0 0 .674.66c.795-.005 1.59-.001 2.385-.002a.637.637 0 0 0 .675-.638V3.579Zm5.01 1.875h2.589c.143 0 .279-.028.397-.113a.668.668 0 0 0 .138-.945c-.611-.819-1.222-1.638-1.836-2.456a.655.655 0 0 0-.543-.275 896.594 896.594 0 0 0-3.353 0 .64.64 0 0 0-.643.653l.001 2.482a.652.652 0 0 0 .662.654h2.588ZM4.447 1.688h-1.21a.646.646 0 0 0-.66.663l.001 2.455a.653.653 0 0 0 .674.668c.788-.005 1.576-.001 2.365-.002a.636.636 0 0 0 .528-.235.716.716 0 0 0 .163-.466c.01-.808.005-1.616.004-2.424 0-.042 0-.086-.008-.127a.645.645 0 0 0-.646-.532h-1.21Zm9.105 5.131c.109 0 .217.003.325 0 .13-.004.225-.101.224-.222 0-.122-.09-.214-.22-.216-.22-.003-.441-.003-.662.002a.25.25 0 0 0-.133.048.206.206 0 0 0-.069.24c.03.087.11.146.21.148.109.002.217 0 .325 0Z"/></svg><svg viewBox="0 0 19 18" id="whatsapp" xmlns="http://www.w3.org/2000/svg"><path d="M9.594.037H9.59C4.696.037.717 4.017.717 8.912a8.81 8.81 0 0 0 1.69 5.202L1.3 17.411l3.412-1.09a8.799 8.799 0 0 0 4.882 1.466c4.894 0 8.874-3.981 8.874-8.875S14.488.037 9.594.037ZM14.76 12.57c-.214.604-1.064 1.106-1.742 1.252-.464.1-1.07.178-3.109-.667C7.3 12.074 5.62 9.424 5.49 9.252c-.126-.172-1.054-1.404-1.054-2.678 0-1.273.646-1.893.907-2.16.214-.218.568-.318.908-.318.11 0 .208.006.297.01.26.011.392.027.564.438.214.516.735 1.79.797 1.92.063.132.127.31.038.481-.083.178-.156.256-.287.407-.131.151-.256.266-.386.428-.12.141-.256.292-.105.553.151.255.673 1.106 1.44 1.79.991.881 1.794 1.163 2.082 1.283.214.089.469.068.625-.099.199-.214.444-.569.694-.918.177-.251.401-.282.636-.193.24.083 1.508.71 1.769.84.26.13.433.193.496.302.062.11.062.626-.152 1.232Z"/></svg></svg>