<?xml version="1.0" standalone="no"?>
<!DOCTYPE svg PUBLIC "-//W3C//DTD SVG 20010904//EN"
 "http://www.w3.org/TR/2001/REC-SVG-20010904/DTD/svg10.dtd">
<svg version="1.0" xmlns="http://www.w3.org/2000/svg"
 width="2784.000000pt" height="2784.000000pt" viewBox="0 0 2784.000000 2784.000000"
 preserveAspectRatio="xMidYMid meet">
<metadata>
Created by potrace 1.14, written by Peter Selinger 2001-2017
</metadata>
<g transform="translate(0.000000,2784.000000) scale(0.100000,-0.100000)"
fill="#000000" stroke="none">
<path d="M4818 18565 c-2 -2 -19 -7 -38 -10 -19 -3 -60 -13 -90 -21 -30 -8
-59 -16 -65 -17 -5 -2 -21 -9 -35 -17 -14 -7 -26 -12 -28 -11 -5 4 -156 -72
-170 -85 -7 -8 -18 -14 -23 -14 -5 0 -15 -5 -22 -10 -7 -6 -43 -33 -82 -62
-100 -73 -288 -266 -379 -388 -43 -58 -83 -112 -89 -121 -70 -93 -262 -448
-336 -619 -55 -128 -99 -240 -94 -240 3 0 1 -6 -4 -12 -6 -7 -23 -49 -38 -93
-16 -44 -31 -83 -34 -87 -3 -4 -24 -3 -46 2 -22 5 -56 11 -75 14 -19 3 -46 8
-60 11 -14 3 -43 7 -65 10 -22 2 -51 7 -65 9 -27 6 -65 11 -150 21 -30 3 -73
8 -95 11 -94 11 -253 18 -435 18 -246 0 -376 -11 -565 -49 -62 -12 -76 -16
-100 -25 -14 -5 -25 -7 -25 -5 0 11 -273 -94 -278 -107 -2 -5 -9 -8 -16 -8
-11 0 -162 -89 -194 -115 -29 -22 -188 -185 -208 -212 -58 -79 -149 -266 -138
-284 3 -5 1 -9 -4 -9 -5 0 -13 -19 -17 -42 -5 -24 -10 -50 -12 -58 -25 -120
-22 -370 7 -494 5 -22 7 -44 4 -48 -3 -4 -1 -8 4 -8 5 0 9 -6 9 -12 1 -21 11
-67 17 -76 3 -5 7 -19 10 -33 4 -21 46 -140 63 -179 3 -8 7 -17 7 -20 3 -17
42 -96 51 -102 5 -4 6 -8 2 -8 -9 0 82 -181 96 -191 5 -3 8 -8 7 -10 -2 -6 13
-44 20 -49 4 -3 33 -49 65 -102 32 -54 62 -98 67 -98 4 0 8 -6 8 -14 0 -8 6
-21 13 -28 7 -7 28 -35 47 -63 18 -27 43 -62 54 -76 12 -14 30 -38 41 -53 23
-32 161 -204 181 -226 25 -28 79 -88 97 -109 17 -21 16 -22 -7 -46 -14 -14
-23 -25 -21 -25 4 0 -44 -55 -97 -111 -15 -16 -25 -29 -22 -29 3 0 -2 -7 -10
-16 -9 -9 -29 -32 -44 -52 -15 -21 -32 -41 -38 -47 -6 -5 -24 -28 -40 -50 -16
-22 -31 -42 -34 -45 -3 -3 -25 -34 -49 -70 -25 -36 -48 -67 -51 -70 -3 -3 -20
-28 -38 -57 -29 -45 -36 -51 -60 -47 -15 3 -28 7 -31 9 -2 2 -12 0 -22 -6 -13
-7 -19 -6 -19 1 0 6 -4 9 -9 6 -5 -3 -26 -8 -47 -10 -87 -9 -176 -41 -275 -98
-32 -18 -77 -57 -113 -97 -17 -19 -39 -42 -48 -52 -9 -10 -14 -20 -11 -23 4
-3 1 -6 -5 -6 -7 0 -12 -6 -12 -13 0 -7 -6 -19 -12 -25 -7 -7 -13 -16 -14 -20
0 -4 -10 -28 -22 -53 -11 -25 -23 -57 -26 -70 -3 -13 -9 -45 -14 -70 -19 -97
3 -249 50 -349 41 -88 114 -177 193 -235 54 -40 59 -50 62 -120 2 -72 9 -134
16 -155 3 -8 15 -48 27 -89 31 -106 93 -233 139 -282 11 -12 21 -27 21 -31 0
-15 152 -162 210 -204 71 -52 199 -123 275 -152 33 -13 69 -27 80 -31 48 -19
194 -59 245 -67 14 -2 36 -7 50 -10 32 -8 98 -17 128 -17 12 -1 22 -3 22 -6 0
-14 493 -20 650 -9 108 8 193 16 250 24 25 3 61 8 80 11 19 2 44 6 55 7 34 5
119 18 140 23 184 38 173 41 206 -52 49 -133 89 -237 115 -293 13 -29 24 -59
24 -67 0 -8 5 -15 10 -15 6 0 9 -3 8 -7 -4 -12 142 -307 156 -315 6 -4 8 -8 4
-8 -11 0 129 -232 144 -238 4 -2 8 -8 8 -13 0 -8 91 -134 156 -218 21 -26 92
-103 157 -169 53 -54 196 -171 248 -201 13 -8 48 -30 78 -48 30 -18 75 -40
100 -50 25 -9 49 -22 53 -27 4 -6 8 -8 8 -3 0 4 15 1 33 -6 29 -13 79 -26 162
-43 17 -3 59 -8 95 -10 36 -1 67 -4 70 -4 3 -1 23 -1 45 1 22 1 50 2 63 2 12
1 22 3 22 7 0 3 15 5 33 6 101 3 332 95 450 180 26 19 51 34 56 34 5 0 11 3
13 8 2 4 30 29 63 56 84 69 205 195 281 290 35 45 70 88 77 96 6 8 11 16 9 18
-2 2 7 12 19 23 12 10 19 19 15 19 -4 0 5 17 21 38 16 20 44 62 63 92 31 52
40 67 91 158 49 85 199 394 199 409 0 3 6 19 14 36 22 50 29 71 28 80 -1 4 2
7 8 7 6 0 9 3 8 8 -2 4 2 21 9 37 6 17 20 55 31 85 11 30 23 64 28 75 4 11 7
23 6 27 -1 3 4 11 11 17 9 7 40 5 108 -9 51 -10 110 -21 129 -24 19 -2 46 -7
59 -10 13 -3 41 -6 62 -8 22 -1 39 -4 39 -7 0 -4 15 -6 33 -7 30 -1 106 -8
202 -20 22 -2 154 -6 294 -8 l254 -4 26 -33 c105 -135 255 -242 398 -285 276
-82 559 -29 767 146 122 103 238 286 262 415 2 11 7 40 12 65 10 52 9 211 -1
255 -4 17 -9 39 -11 50 -8 41 -39 122 -67 173 -27 52 -30 75 -15 142 22 96 24
366 4 406 -2 5 -4 21 -3 37 0 15 -3 27 -8 27 -4 0 -6 4 -3 9 9 15 -54 236 -99
346 -5 11 -9 22 -10 25 -1 3 -8 21 -15 40 -21 56 -140 289 -178 350 -57 91
-59 95 -60 103 -1 4 -20 32 -42 62 -22 30 -40 58 -40 64 0 5 -4 11 -8 13 -5 2
-23 26 -42 53 -19 28 -40 56 -47 63 -7 7 -20 26 -30 42 -9 17 -21 30 -25 30
-4 0 -8 4 -8 10 0 5 -9 20 -21 32 -11 13 -37 44 -57 69 -58 72 -124 150 -160
191 l-34 37 69 81 c37 44 71 80 75 80 5 0 8 5 8 11 0 6 15 28 33 48 51 58 81
98 167 216 44 61 84 115 90 122 5 7 10 14 10 16 0 2 25 42 55 88 30 46 55 90
55 96 0 7 4 13 8 13 4 0 20 24 35 53 30 55 41 76 57 105 6 9 14 26 19 37 5 11
23 49 39 85 17 36 40 90 51 120 12 30 26 64 31 75 13 30 43 127 46 150 1 11 3
21 4 23 2 1 4 7 5 12 1 6 3 11 5 13 4 5 24 130 22 140 -1 4 1 7 6 7 8 0 10 37
12 205 1 113 -2 156 -14 215 -12 60 -16 75 -28 109 -7 20 -13 38 -13 41 -25
96 -134 267 -236 370 -55 55 -171 148 -199 158 -8 3 -17 8 -20 12 -20 25 -297
141 -369 155 -10 2 -46 10 -82 19 -73 18 -106 24 -169 31 -25 3 -56 8 -70 11
-117 23 -702 23 -817 0 -12 -3 -48 -7 -80 -11 -33 -3 -72 -8 -87 -11 -16 -3
-47 -7 -70 -9 -43 -5 -75 -10 -116 -19 -14 -3 -43 -8 -65 -11 -22 -2 -56 -9
-75 -15 -19 -5 -39 -10 -45 -10 -6 0 -21 30 -34 68 -13 37 -29 78 -34 92 -6
14 -11 30 -12 36 -2 6 -10 27 -18 45 -8 19 -28 68 -45 109 -30 75 -30 75 -11
95 44 45 71 84 103 150 36 73 79 225 64 225 -5 0 -5 8 -1 18 7 15 9 36 4 52
-1 3 -4 28 -6 55 -6 65 -9 80 -33 141 -44 110 -124 220 -199 270 -24 16 -43
32 -43 37 0 4 -6 7 -14 7 -8 0 -16 5 -18 11 -2 5 -10 11 -18 13 -8 2 -27 8
-42 14 -80 34 -81 34 -154 47 -47 9 -194 12 -194 5 0 -3 -8 -6 -17 -7 -31 -3
-67 -11 -94 -21 -24 -9 -32 -6 -70 26 -24 20 -46 39 -49 42 -19 22 -129 98
-134 93 -3 -4 -6 -2 -6 3 0 5 -17 18 -37 29 -21 11 -40 23 -43 26 -3 4 -25 16
-50 27 -194 86 -267 104 -451 108 -81 1 -149 1 -151 -1z m267 -429 c28 -8 57
-15 64 -17 40 -10 175 -85 210 -116 14 -13 29 -23 33 -23 4 0 19 -12 33 -26
l26 -26 -21 -54 c-12 -29 -20 -55 -18 -57 1 -2 -2 -11 -9 -19 -23 -27 -36
-207 -21 -293 27 -159 147 -329 294 -418 61 -37 144 -72 144 -60 0 3 6 1 13
-5 15 -12 105 -26 177 -27 l55 0 41 -100 c22 -55 52 -133 67 -172 l26 -73 -52
-15 c-189 -53 -241 -69 -369 -112 -79 -26 -146 -46 -150 -45 -5 1 -8 -3 -8
-10 0 -6 -3 -9 -6 -5 -3 3 -29 -3 -58 -15 -28 -11 -58 -21 -66 -23 -12 -3
-145 -54 -235 -90 -11 -5 -22 -9 -25 -9 -14 -2 -146 -60 -155 -68 -5 -4 -15
-8 -22 -8 -7 0 -33 -10 -58 -21 -39 -18 -48 -19 -62 -8 -9 8 -18 13 -20 11 -2
-1 -18 4 -36 11 -17 8 -86 35 -152 61 -66 27 -129 52 -140 57 -11 4 -58 22
-105 39 -47 17 -94 35 -105 40 -24 10 -321 111 -338 114 -7 2 -20 6 -29 10 -9
4 -25 9 -35 11 -10 2 -18 4 -18 5 0 1 -11 3 -25 6 -14 2 -32 7 -40 11 -8 3
-19 7 -25 8 -5 2 -43 12 -83 24 -61 19 -72 25 -67 39 4 9 13 35 20 57 12 39
22 64 51 132 8 17 14 38 14 47 0 9 5 16 12 16 6 0 9 3 5 6 -3 4 0 19 9 35 8
16 15 32 15 36 1 5 6 17 12 28 6 11 11 22 12 25 2 27 201 403 216 408 5 2 7 8
3 13 -3 5 0 9 5 9 6 0 11 4 11 10 0 11 97 154 149 220 71 89 205 230 218 230
5 0 18 11 31 24 75 80 265 170 382 183 30 3 56 6 57 7 7 6 104 -6 148 -18z
m-2760 -1699 c8 -4 15 -3 15 1 0 5 19 7 43 5 23 -2 76 -5 117 -7 41 -2 107 -7
145 -11 39 -4 86 -8 105 -10 44 -4 179 -23 245 -35 28 -5 66 -12 85 -14 48 -8
82 -15 86 -19 2 -1 -6 -39 -17 -82 -12 -44 -23 -88 -25 -97 -2 -10 -7 -28 -10
-40 -3 -13 -8 -40 -11 -60 -3 -21 -10 -38 -15 -38 -5 0 -7 -4 -4 -8 3 -5 -1
-36 -9 -69 -8 -33 -16 -73 -19 -89 -3 -16 -9 -42 -12 -59 -4 -16 -8 -41 -10
-55 -1 -14 -3 -25 -4 -25 -1 0 -3 -11 -5 -25 -1 -14 -6 -38 -9 -55 -4 -16 -9
-50 -12 -75 -4 -25 -10 -65 -15 -90 -5 -25 -11 -63 -13 -85 -3 -22 -8 -60 -11
-85 -11 -72 -26 -198 -28 -228 0 -7 -50 -50 -111 -95 -120 -88 -129 -95 -155
-117 -9 -8 -46 -37 -82 -65 -35 -27 -65 -53 -67 -57 -2 -5 -10 -8 -17 -8 -7 0
-15 -4 -17 -9 -2 -7 -69 -65 -152 -131 -10 -8 -31 -26 -45 -40 -15 -14 -39
-35 -54 -47 -31 -24 -178 -159 -263 -239 -42 -41 -56 -49 -67 -40 -12 9 -75
84 -206 241 -9 11 -27 36 -40 55 -13 19 -29 40 -35 45 -6 6 -15 18 -21 27 -5
9 -43 64 -82 121 -40 58 -73 108 -73 111 0 3 -15 29 -34 58 -104 165 -228 463
-251 605 -3 21 -8 52 -12 68 -8 40 -8 231 0 277 44 240 213 411 510 513 37 13
67 22 67 20 0 -3 11 0 25 5 14 5 37 12 50 15 115 24 193 34 302 39 35 1 65 4
67 7 6 6 133 2 151 -4z m5218 -1 c9 10 112 10 125 1 8 -6 12 -5 12 2 0 7 5 9
10 6 6 -4 54 -8 108 -11 53 -2 107 -6 119 -8 11 -3 43 -7 70 -11 67 -9 207
-42 275 -65 101 -34 228 -103 250 -135 5 -6 8 -6 8 0 0 6 31 -22 68 -61 96
-100 146 -199 168 -334 3 -19 8 -39 12 -44 3 -5 0 -6 -6 -2 -9 5 -10 0 -4 -16
21 -61 -17 -317 -65 -438 -3 -8 -7 -20 -9 -27 -1 -7 -9 -27 -18 -44 -9 -18
-16 -36 -16 -42 0 -23 -177 -359 -212 -402 -5 -5 -26 -38 -48 -73 -22 -35 -45
-69 -50 -75 -6 -7 -31 -41 -57 -77 -57 -77 -52 -71 -145 -185 -40 -49 -90
-109 -112 -133 l-40 -43 -40 40 c-57 56 -168 161 -203 190 -15 13 -46 40 -68
60 -22 20 -67 59 -100 86 -32 28 -67 58 -77 68 -10 9 -18 14 -18 10 0 -5 -4
-3 -8 3 -9 14 -129 114 -137 114 -3 0 -15 9 -27 20 -13 12 -30 27 -38 34 -11
10 -288 216 -296 220 -1 1 -4 26 -8 56 -4 30 -8 66 -10 80 -2 14 -7 48 -10 75
-4 28 -9 68 -12 90 -3 22 -7 54 -9 72 -2 18 -6 40 -9 50 -2 10 -7 38 -10 63
-3 25 -8 56 -11 70 -3 14 -7 39 -10 55 -5 35 -11 64 -31 165 -9 41 -17 84 -20
95 -12 64 -47 222 -52 235 -3 8 -7 26 -9 40 -2 14 -8 36 -13 50 -15 42 -22 90
-13 91 4 1 17 3 28 5 11 1 31 5 45 8 39 9 82 17 120 21 19 3 46 7 60 10 26 5
98 14 165 21 22 2 63 6 90 9 28 2 92 7 144 10 52 2 96 7 99 9 2 3 12 1 22 -4
10 -5 20 -7 23 -4z m-3914 -195 c10 -6 28 -12 42 -14 13 -2 31 -7 39 -10 8 -4
40 -13 70 -21 70 -19 219 -65 245 -76 23 -10 63 -23 85 -26 8 -2 23 -7 35 -12
11 -6 36 -15 55 -22 19 -7 44 -16 55 -20 84 -34 140 -53 151 -53 7 0 15 -6 18
-12 2 -7 -26 -26 -67 -46 -40 -19 -74 -36 -77 -39 -3 -3 -41 -24 -85 -46 -145
-75 -240 -126 -267 -145 -14 -11 -28 -19 -31 -19 -3 0 -51 -27 -107 -60 -56
-33 -106 -60 -111 -60 -5 0 -9 -4 -9 -10 0 -5 -11 -12 -25 -16 -14 -3 -25 -9
-25 -13 0 -4 -11 -13 -25 -19 -13 -6 -59 -34 -100 -62 -42 -27 -79 -50 -82
-50 -5 0 2 68 12 120 3 14 7 44 9 66 2 23 6 46 9 51 3 5 8 27 11 48 3 22 9 56
14 75 5 19 9 37 10 40 0 3 3 16 6 30 3 14 8 36 10 50 8 44 44 203 61 265 15
53 21 81 24 108 1 10 29 9 50 -2z m2713 -66 c9 -39 24 -97 32 -131 8 -34 17
-72 20 -85 2 -13 9 -44 15 -69 5 -25 13 -61 16 -80 9 -48 13 -65 15 -65 1 0 3
-11 5 -25 3 -29 14 -88 20 -110 2 -8 6 -31 9 -50 3 -19 10 -62 16 -95 5 -33
10 -63 10 -68 0 -10 -53 18 -112 59 -26 19 -48 31 -48 27 0 -5 -4 -3 -8 2 -7
11 -76 56 -102 68 -8 4 -28 16 -45 27 -16 11 -37 23 -45 27 -8 4 -35 19 -60
34 -79 48 -134 79 -165 95 -16 8 -55 28 -85 45 -30 17 -97 52 -148 79 -51 26
-98 52 -105 58 -7 6 -24 13 -39 17 -15 4 -32 13 -39 21 -6 8 -15 11 -20 8 -5
-3 -9 -2 -9 1 0 6 65 37 87 41 6 1 55 19 110 39 54 20 105 39 113 40 8 2 17 4
20 5 3 1 8 2 13 1 4 0 7 4 7 11 0 6 3 9 6 5 3 -3 18 -1 33 4 52 21 345 111
363 112 10 1 18 5 18 10 0 4 4 5 10 2 5 -3 18 -1 27 4 34 20 47 8 65 -64z
m-1276 -475 c58 -27 109 -50 115 -50 5 0 9 -4 9 -10 0 -5 6 -10 14 -10 7 0 53
-21 102 -46 217 -113 333 -173 379 -200 28 -15 67 -37 87 -48 20 -12 73 -42
117 -68 44 -27 83 -48 86 -48 3 0 11 -5 18 -10 9 -8 246 -157 325 -205 15 -9
225 -151 243 -165 10 -7 22 -146 36 -415 10 -173 9 -901 0 -1050 -7 -104 -16
-233 -22 -300 -2 -16 -3 -40 -4 -52 -1 -16 -29 -40 -106 -92 -57 -39 -109 -71
-115 -71 -5 0 -10 -3 -10 -8 0 -4 -37 -29 -82 -57 -46 -27 -85 -52 -88 -56 -3
-3 -26 -17 -51 -31 -25 -15 -83 -49 -128 -77 -46 -28 -84 -51 -86 -51 -2 0
-28 -14 -57 -31 -205 -122 -623 -341 -632 -331 -3 3 -6 0 -6 -7 0 -7 -4 -10
-9 -7 -5 4 -11 3 -13 -1 -5 -12 -196 -103 -230 -109 -9 -2 -96 35 -192 82 -97
47 -179 85 -183 85 -5 0 -15 6 -23 12 -8 7 -55 33 -105 57 -49 25 -91 48 -93
53 -2 4 -7 7 -12 7 -7 0 -180 94 -260 140 -8 5 -73 43 -143 84 -70 42 -132 76
-136 76 -5 0 -14 7 -22 16 -7 8 -31 25 -53 36 -22 11 -46 27 -54 34 -7 8 -19
14 -27 14 -7 0 -15 3 -17 8 -1 4 -34 27 -73 52 -38 24 -72 47 -75 50 -3 3 -17
11 -32 19 -16 8 -28 18 -28 23 0 4 -4 8 -10 8 -22 0 -84 52 -86 73 -21 234
-37 622 -37 867 1 147 11 540 17 625 2 22 6 87 10 145 12 174 12 171 42 196
16 13 35 23 42 24 6 0 12 5 12 10 0 6 10 14 23 19 12 5 31 17 42 25 11 9 65
45 120 81 55 35 105 67 110 72 6 4 26 17 45 27 19 11 62 37 95 58 33 21 72 44
87 51 15 6 28 15 28 19 0 5 5 8 10 8 6 0 27 10 48 23 20 13 62 37 92 54 99 54
135 75 148 85 6 6 12 7 12 2 0 -5 7 0 15 10 8 11 15 17 15 14 0 -4 30 10 68
31 108 59 561 280 575 281 4 0 55 -22 113 -50z m-2181 -1289 c-1 -49 -5 -94
-9 -99 -3 -6 -2 -13 4 -17 6 -4 7 -12 3 -18 -10 -16 -10 -727 0 -734 4 -3 3
-11 -4 -19 -6 -8 -8 -14 -3 -14 5 0 10 -41 10 -90 1 -66 -1 -88 -10 -82 -28
21 -222 177 -226 182 -3 3 -34 29 -70 59 -36 30 -74 63 -85 73 -11 10 -39 35
-62 55 -22 21 -82 76 -132 122 l-90 84 52 51 c79 76 187 175 246 226 28 25 66
59 84 75 27 25 112 95 200 165 11 8 24 20 31 25 11 11 59 45 62 45 1 0 1 -40
-1 -89z m4198 44 c21 -19 41 -35 45 -35 4 0 26 -17 48 -38 23 -20 63 -55 89
-77 27 -22 58 -49 71 -60 12 -11 48 -42 80 -70 32 -27 89 -80 128 -117 38 -37
83 -80 101 -95 59 -53 71 -34 -115 -203 -51 -47 -106 -97 -122 -112 -16 -16
-31 -28 -33 -28 -3 0 -13 -8 -23 -17 -24 -24 -91 -81 -133 -115 -19 -14 -70
-55 -114 -91 -74 -59 -80 -63 -86 -43 -3 11 -4 25 -1 30 18 33 17 1054 -2
1084 -6 11 3 22 18 22 6 0 28 -16 49 -35z m-5092 -905 c34 -33 66 -60 71 -60
5 0 6 -4 3 -10 -3 -5 -2 -10 3 -10 5 0 30 -19 55 -42 70 -65 136 -123 236
-206 24 -20 51 -44 60 -52 9 -8 33 -27 53 -42 20 -15 42 -33 50 -40 7 -7 34
-29 58 -48 25 -19 51 -39 58 -45 7 -5 21 -17 31 -25 10 -8 25 -19 33 -25 64
-41 235 -177 235 -187 1 -24 15 -143 19 -168 2 -14 9 -61 15 -105 5 -44 12
-87 14 -95 3 -8 7 -37 11 -65 9 -83 12 -100 14 -100 2 0 6 -23 14 -70 2 -16 5
-30 6 -30 1 0 3 -11 4 -25 3 -28 10 -65 32 -165 8 -38 17 -81 20 -95 2 -14 7
-36 11 -50 9 -37 10 -42 16 -77 3 -17 8 -36 11 -41 3 -4 7 -19 9 -33 5 -22 22
-93 33 -131 5 -16 2 -18 -76 -33 -14 -3 -42 -8 -64 -10 -21 -2 -46 -7 -55 -9
-9 -3 -36 -8 -61 -11 -25 -3 -56 -7 -70 -9 -32 -6 -128 -16 -205 -22 -105 -7
-169 -14 -173 -18 -2 -2 -16 0 -32 4 -16 4 -31 6 -34 2 -9 -8 -56 -9 -56 -1 0
8 -18 7 -35 -2 -9 -4 -72 -4 -85 1 -3 1 -43 3 -90 5 -47 2 -85 4 -85 5 0 1
-20 3 -45 5 -25 3 -52 5 -60 6 -16 1 -91 15 -125 23 -92 20 -121 28 -172 47
-139 50 -245 114 -323 193 -60 61 -70 73 -70 86 0 5 -4 10 -8 10 -14 0 -70
135 -81 196 -13 66 -13 80 -5 71 3 -3 26 0 50 8 24 7 44 11 44 9 0 -7 165 80
189 100 127 106 214 244 237 377 9 54 9 192 -1 239 -10 51 -45 141 -66 172
-11 14 -19 31 -19 37 0 6 -4 11 -10 11 -5 0 -10 5 -10 11 0 5 -13 24 -29 41
l-29 31 71 101 c39 55 76 106 81 112 6 7 20 24 31 40 48 66 223 274 230 274 2
0 32 -27 66 -60z m6035 14 c21 -26 48 -58 59 -71 11 -14 28 -35 39 -47 10 -11
44 -55 75 -96 31 -41 58 -77 61 -80 12 -11 61 -80 113 -160 32 -47 61 -89 65
-95 4 -5 19 -30 32 -55 14 -25 28 -47 31 -50 16 -13 152 -301 157 -333 1 -4 9
-21 17 -37 9 -17 13 -30 9 -30 -4 0 -1 -6 5 -13 22 -28 85 -347 68 -347 -2 0
-39 9 -83 21 -95 25 -249 31 -339 14 -36 -6 -65 -10 -65 -8 0 2 -6 1 -12 -4
-7 -4 -15 -8 -18 -8 -42 -6 -176 -71 -243 -119 -199 -142 -319 -366 -330 -616
-2 -26 -6 -34 -17 -31 -8 2 -19 3 -25 2 -13 -2 -115 -3 -140 -2 -11 1 -27 1
-35 0 -56 -2 -373 30 -450 46 -14 3 -46 7 -73 10 -26 2 -50 6 -55 8 -4 3 -23
8 -42 11 -59 10 -82 15 -88 20 -3 3 3 33 12 66 18 64 22 80 36 145 12 55 40
176 45 200 3 11 7 31 10 45 7 34 14 70 20 100 5 26 16 92 21 125 1 11 3 20 4
20 1 0 3 11 5 25 3 24 12 78 21 130 2 14 6 43 9 65 8 59 15 108 19 130 2 11 7
49 10 85 13 126 21 157 45 165 9 3 26 13 37 23 10 10 35 29 54 42 19 13 41 29
47 35 7 5 23 18 35 27 33 25 220 170 243 189 48 39 221 184 231 194 6 5 44 39
85 75 75 67 214 196 233 217 17 18 20 17 62 -33z m-4530 -1167 c22 -15 45 -27
52 -27 7 0 12 -4 12 -9 0 -5 12 -15 28 -22 15 -8 79 -45 142 -83 121 -73 151
-90 240 -139 30 -17 73 -41 95 -53 22 -13 113 -60 202 -106 90 -46 163 -85
163 -88 0 -3 -28 -15 -63 -28 -34 -13 -71 -27 -82 -32 -11 -5 -69 -25 -130
-45 -60 -20 -119 -41 -130 -45 -27 -11 -147 -49 -171 -54 -10 -3 -38 -11 -61
-20 -24 -8 -43 -13 -43 -10 0 3 -6 2 -12 -3 -7 -4 -17 -8 -23 -10 -5 -1 -25
-6 -42 -12 -18 -5 -33 -8 -33 -6 0 2 -12 -2 -27 -10 -15 -8 -29 -12 -31 -10
-7 7 -61 215 -56 215 3 0 2 6 -3 13 -4 6 -8 14 -8 17 -6 38 -21 116 -31 153
-3 12 -7 36 -10 52 -2 17 -7 41 -11 55 -3 14 -8 34 -10 45 -2 11 -6 34 -8 50
-3 17 -8 44 -10 60 -2 17 -7 41 -10 55 -6 30 -13 71 -20 123 l-5 38 28 -19
c15 -10 45 -31 68 -45z m3008 41 c-2 -13 -7 -39 -9 -58 -6 -37 -15 -94 -41
-230 -8 -47 -18 -98 -21 -115 -2 -16 -18 -88 -34 -160 -17 -71 -32 -141 -35
-155 -13 -67 -37 -130 -48 -130 -12 0 -55 12 -96 27 -8 3 -24 7 -35 9 -11 1
-78 21 -150 45 -71 23 -134 42 -140 44 -5 1 -17 5 -25 8 -8 3 -44 15 -80 27
-36 12 -74 25 -85 30 -29 12 -89 35 -95 36 -3 0 -12 3 -20 6 -8 4 -24 9 -35
14 -11 4 -23 8 -27 8 -3 1 -10 4 -14 9 -4 4 -16 7 -27 7 -16 0 -17 3 -7 15 6
8 15 14 18 13 7 -2 98 43 169 83 21 12 70 38 108 57 39 19 72 38 75 41 3 3 29
17 57 31 29 14 53 28 53 33 0 4 9 7 19 7 11 0 21 3 23 8 4 9 54 40 91 55 15 6
27 15 27 19 0 4 4 8 9 8 6 0 53 27 106 60 53 33 98 60 100 60 3 0 42 25 87 55
46 30 84 54 85 55 1 0 0 -10 -3 -22z m-1519 -822 c11 -5 49 -20 85 -36 36 -15
94 -39 130 -53 36 -13 74 -28 85 -32 11 -5 22 -9 25 -10 3 -1 22 -9 44 -18 21
-9 44 -17 50 -17 7 0 16 -4 22 -8 5 -4 27 -14 49 -21 22 -7 49 -16 60 -21 28
-11 58 -23 70 -25 10 -3 217 -72 245 -83 8 -3 20 -6 25 -7 6 0 17 -4 25 -7 16
-7 120 -38 210 -63 30 -8 58 -14 61 -12 3 1 13 -4 22 -11 14 -12 14 -17 2 -45
-26 -59 -78 -202 -78 -214 0 -7 -4 -13 -8 -13 -4 0 -10 -12 -15 -27 -10 -37
-8 -32 -29 -78 -10 -22 -19 -42 -20 -45 -8 -39 -236 -457 -273 -501 -7 -8 -40
-52 -74 -99 -58 -81 -78 -103 -186 -213 -65 -67 -180 -152 -254 -189 -35 -18
-66 -31 -70 -30 -5 1 -8 -3 -8 -10 0 -6 -2 -9 -6 -6 -3 3 -26 -1 -52 -9 -71
-22 -80 -23 -168 -24 -247 -2 -508 166 -752 486 -29 37 -137 201 -137 207 0 4
-7 16 -15 26 -32 40 -230 435 -230 459 0 3 -11 31 -24 62 -32 73 -98 253 -94
255 4 4 121 40 134 42 19 3 149 44 279 87 66 22 127 40 135 41 8 0 17 3 20 6
3 3 37 16 75 29 39 13 74 28 79 32 6 5 16 9 24 9 13 0 276 102 377 146 22 10
44 17 49 15 5 -1 16 5 25 12 28 25 46 28 86 13z"/>
<path d="M4795 14798 c-55 -12 -209 -60 -215 -67 -3 -3 -23 -14 -45 -24 -73
-34 -149 -91 -234 -174 -45 -46 -80 -83 -76 -83 3 0 0 -7 -7 -15 -29 -32 -36
-43 -80 -135 -37 -76 -59 -136 -60 -157 0 -2 -6 -25 -13 -53 -27 -104 -9 -360
33 -465 69 -171 156 -289 291 -397 101 -81 249 -152 360 -174 14 -3 29 -8 35
-11 13 -9 298 -12 311 -5 6 4 19 7 30 8 134 14 366 138 475 254 73 77 130 152
130 170 0 5 5 10 10 10 6 0 10 4 10 9 0 5 13 38 29 73 36 80 47 115 65 208 13
72 15 277 2 298 -3 5 -9 27 -12 48 -3 22 -7 44 -9 49 -15 62 -99 226 -145 285
-34 43 -158 170 -166 170 -2 0 -25 15 -51 34 -27 18 -79 48 -118 65 -38 18
-77 36 -86 40 -8 5 -40 14 -70 20 -30 6 -65 14 -79 18 -40 10 -271 10 -315 1z"/>
<path d="M13165 17478 c-27 -5 -59 -11 -70 -13 -11 -2 -20 -4 -20 -5 0 -1 -10
-3 -23 -6 -57 -10 -189 -71 -264 -121 -144 -96 -242 -233 -304 -423 -9 -25
-18 -52 -21 -60 -3 -8 -5 -18 -5 -22 1 -5 -2 -8 -6 -8 -5 0 -9 -6 -9 -12 -1
-18 -7 -42 -13 -48 -3 -3 -18 -43 -34 -90 -16 -47 -32 -89 -36 -95 -4 -5 -10
-22 -14 -37 -3 -15 -11 -40 -18 -55 -6 -15 -12 -30 -12 -33 -1 -3 -6 -18 -13
-35 -6 -16 -34 -91 -61 -165 -28 -74 -71 -191 -97 -260 -25 -69 -48 -132 -50
-140 -2 -8 -16 -46 -30 -85 -15 -38 -28 -74 -29 -80 -1 -5 -5 -16 -10 -23 -4
-7 -11 -25 -16 -40 -8 -29 -29 -86 -184 -512 -53 -146 -100 -274 -105 -285 -5
-11 -30 -78 -56 -150 -25 -71 -49 -137 -52 -145 -3 -8 -7 -19 -9 -25 -4 -13
-103 -283 -114 -310 -4 -11 -18 -47 -30 -80 -12 -33 -27 -72 -32 -87 -6 -15
-10 -31 -10 -35 1 -4 -6 -18 -14 -31 -8 -12 -12 -27 -9 -32 3 -6 1 -10 -6 -10
-7 0 -10 -3 -6 -6 3 -4 -1 -20 -9 -35 -14 -28 -14 -30 8 -38 13 -5 27 -6 33
-3 11 7 59 6 93 -2 12 -3 22 0 22 5 0 6 5 7 11 3 10 -6 147 -8 175 -3 5 1 11
0 14 -1 20 -7 40 -7 40 1 0 6 5 7 11 3 10 -6 147 -8 175 -3 5 1 11 0 14 -1 20
-7 40 -7 40 1 0 6 5 7 11 3 10 -6 147 -8 175 -3 5 1 11 0 14 -1 20 -7 40 -7
40 1 0 6 5 7 11 3 13 -8 169 -8 177 1 3 2 11 0 18 -6 8 -6 14 -7 18 0 4 6 13
8 21 5 16 -6 24 8 29 47 1 13 7 33 14 45 6 11 13 32 16 45 3 13 13 44 22 69 9
25 17 52 19 60 2 8 17 54 34 103 16 48 28 87 25 87 -2 0 3 11 12 24 8 14 15
27 15 30 -1 4 -1 7 0 9 0 1 2 13 5 26 2 14 9 30 15 38 6 7 8 13 4 13 -4 0 -3
6 3 13 8 9 143 12 618 12 l607 0 18 -52 c9 -28 15 -54 11 -57 -3 -3 1 -6 8 -6
7 0 11 -3 8 -6 -4 -3 0 -21 8 -40 8 -19 11 -34 8 -34 -4 0 -1 -7 6 -15 7 -8 9
-15 6 -15 -4 0 -2 -9 4 -21 6 -11 14 -30 16 -42 6 -27 9 -38 17 -57 22 -60 44
-139 39 -144 -3 -3 0 -6 7 -6 7 0 10 -4 6 -10 -3 -5 -1 -17 4 -27 5 -10 14
-36 21 -58 13 -44 7 -42 130 -35 19 1 37 1 40 0 21 -7 40 -7 40 1 0 6 5 7 11
3 10 -6 147 -8 175 -3 5 1 11 0 14 -1 20 -7 40 -7 40 1 0 6 5 7 11 3 10 -6
147 -8 175 -3 5 1 11 0 14 -1 20 -7 40 -7 40 1 0 6 5 7 11 3 14 -8 165 -7 179
1 5 3 11 1 15 -5 4 -7 12 -7 24 0 10 5 21 6 25 3 8 -8 68 -8 89 0 9 3 19 2 23
-4 4 -7 10 -7 18 0 7 6 18 6 26 1 7 -4 23 -5 34 -1 12 5 27 6 34 4 10 -4 11 2
6 24 -4 15 -10 30 -13 33 -3 3 -7 10 -8 15 -2 12 -81 233 -93 260 -5 11 -54
146 -110 300 -55 154 -105 289 -110 300 -5 11 -25 65 -44 120 -32 96 -59 168
-76 210 -5 11 -14 38 -21 60 -7 22 -16 45 -20 50 -4 6 -14 33 -22 60 -8 28
-29 85 -45 128 -17 42 -27 77 -24 77 4 0 1 4 -5 8 -7 5 -14 20 -15 35 -1 15
-5 27 -9 27 -3 0 -12 21 -19 48 -7 26 -16 52 -20 57 -4 6 -10 19 -13 30 -3 11
-19 58 -37 105 -53 144 -71 195 -74 205 -1 6 -7 20 -14 32 -7 12 -12 30 -12
40 0 11 -5 24 -11 30 -6 6 -12 17 -13 24 -2 8 -6 22 -9 32 -4 9 -10 25 -14 35
-3 9 -7 23 -9 30 -1 8 -6 21 -10 30 -4 9 -8 22 -10 27 -2 9 -95 260 -178 485
-13 36 -36 99 -51 140 -39 105 -82 197 -118 250 -30 44 -141 160 -153 160 -3
0 -20 11 -37 24 -83 61 -246 125 -365 143 -67 10 -296 11 -347 1z m194 -1002
c10 -12 55 -159 137 -446 9 -30 20 -66 24 -80 4 -14 13 -45 20 -70 6 -25 16
-53 21 -62 5 -10 9 -26 9 -37 0 -10 7 -35 15 -55 8 -20 15 -39 15 -43 0 -5 6
-26 12 -48 6 -22 12 -45 14 -52 1 -7 17 -61 34 -120 18 -59 34 -118 36 -130
l4 -23 -379 0 -379 0 40 128 c22 70 41 134 43 143 2 9 11 39 20 65 9 27 18 54
19 59 1 6 15 51 30 100 16 50 29 95 30 100 1 6 4 15 8 20 7 13 22 78 20 88 -1
4 2 7 6 7 5 0 9 6 9 13 0 16 40 152 60 202 8 22 17 48 19 58 9 41 14 55 33
115 11 35 23 67 26 73 9 14 41 11 54 -5z"/>
<path d="M19587 17484 c-2 -3 -24 -6 -48 -8 -60 -6 -124 -15 -186 -27 -29 -6
-55 -10 -58 -10 -2 0 -23 -6 -45 -14 -22 -8 -44 -14 -48 -14 -13 0 -97 -24
-107 -31 -5 -4 -23 -10 -40 -14 -16 -4 -55 -19 -85 -33 -65 -30 -104 -45 -109
-43 -2 1 -7 -2 -10 -7 -3 -4 -28 -19 -56 -32 -57 -28 -238 -149 -243 -162 -2
-5 -7 -9 -12 -9 -13 0 -67 -48 -161 -143 -91 -91 -153 -167 -235 -291 -29 -45
-145 -266 -139 -266 2 0 -4 -19 -14 -42 -21 -50 -33 -79 -37 -93 -28 -95 -55
-197 -60 -229 -4 -23 -8 -52 -11 -66 -22 -132 -33 -376 -17 -401 3 -5 0 -9 -6
-9 -6 0 -8 -5 -5 -10 4 -6 8 -32 10 -58 10 -121 14 -152 21 -174 4 -12 8 -34
9 -48 13 -140 151 -485 257 -639 24 -35 48 -70 53 -79 14 -25 67 -92 90 -117
11 -11 46 -48 77 -82 47 -50 111 -107 198 -176 34 -27 160 -107 169 -107 5 0
11 -4 13 -9 3 -7 164 -88 248 -124 55 -23 155 -56 191 -62 17 -3 40 -10 50
-16 11 -5 19 -8 19 -5 0 3 15 0 33 -5 50 -14 194 -38 282 -46 145 -13 449 -7
542 11 11 3 43 8 70 12 26 5 50 9 53 9 3 1 25 5 50 10 53 10 59 12 63 15 1 1
9 3 17 5 51 13 128 36 145 43 11 5 47 20 80 32 82 32 208 94 275 135 30 19 62
38 70 42 31 15 199 153 263 218 62 61 170 189 207 245 8 12 22 32 31 44 9 11
27 41 40 66 13 25 26 47 29 50 6 6 56 110 92 190 21 45 37 92 42 120 1 3 4 10
7 15 4 6 16 48 27 95 19 80 24 102 37 175 27 145 27 506 0 628 -2 12 -7 36 -9
52 -14 85 -20 111 -28 121 -5 7 -8 16 -7 20 3 12 -19 92 -35 129 -8 17 -17 41
-21 55 -4 14 -18 46 -31 73 -14 26 -22 47 -20 47 3 0 -13 31 -35 70 -21 38
-39 74 -39 80 0 5 -4 10 -8 10 -5 0 -16 15 -25 33 -23 44 -38 66 -64 96 -13
14 -23 29 -23 33 0 18 -232 258 -299 308 -18 14 -45 35 -60 47 -70 56 -321
196 -390 218 -13 4 -40 14 -60 23 -20 9 -40 17 -46 18 -5 2 -48 15 -95 29 -86
26 -250 59 -350 71 -63 8 -476 14 -483 8z m299 -890 c33 -4 65 -7 72 -7 6 0
12 -4 12 -9 0 -5 4 -7 9 -3 21 12 225 -75 279 -119 7 -6 18 -15 25 -21 47 -39
87 -75 82 -75 -2 0 8 -12 23 -27 74 -75 184 -295 197 -396 2 -15 6 -31 9 -36
3 -5 8 -33 11 -62 4 -30 8 -60 11 -68 12 -37 4 -276 -12 -361 -3 -14 -7 -38
-10 -55 -9 -53 -64 -207 -91 -254 -15 -25 -32 -58 -40 -72 -7 -14 -24 -38 -38
-53 -14 -15 -25 -30 -25 -33 0 -5 -107 -110 -132 -128 -61 -46 -208 -123 -208
-109 0 3 -8 0 -18 -5 -33 -18 -138 -33 -239 -35 -58 -1 -182 14 -228 28 -5 1
-23 6 -40 11 -86 23 -196 94 -285 185 -79 80 -100 106 -93 114 4 3 2 6 -4 6
-9 0 -96 163 -114 215 -54 152 -77 387 -55 570 7 61 39 196 55 237 13 32 24
62 25 68 5 19 94 173 113 194 12 14 23 27 23 30 0 10 120 121 156 143 10 7 55
30 99 52 106 52 170 69 288 75 32 2 61 6 64 10 3 3 9 3 13 1 4 -3 34 -8 66
-11z"/>
<path d="M23190 17480 c-7 -5 -19 -6 -25 -4 -34 13 -299 -59 -411 -112 -28
-13 -56 -24 -62 -24 -7 0 -12 -4 -12 -10 0 -5 -6 -10 -13 -10 -13 0 -175 -106
-200 -132 -8 -7 -31 -29 -53 -48 -21 -20 -59 -60 -84 -90 -25 -30 -48 -57 -51
-60 -11 -8 -99 -160 -99 -171 0 -5 -7 -21 -16 -34 -9 -14 -13 -25 -9 -25 4 0
2 -7 -5 -15 -7 -8 -9 -15 -5 -15 4 0 3 -6 -3 -12 -18 -23 -54 -206 -56 -285 0
-18 -4 -33 -8 -33 -4 0 -3 -11 2 -24 5 -13 7 -26 4 -29 -8 -8 -10 -97 -2 -97
4 0 3 -12 -1 -27 -4 -16 -4 -40 0 -55 4 -16 4 -28 1 -28 -4 0 -6 -24 -4 -52 1
-29 2 -70 2 -90 0 -36 0 -49 0 -83 0 -8 0 -26 0 -40 0 -14 0 -32 0 -40 0 -8 0
-26 0 -40 0 -14 0 -31 0 -37 1 -7 0 -47 -1 -88 0 -41 0 -79 1 -85 1 -5 1 -14
0 -20 -1 -5 -1 -30 -1 -55 1 -25 1 -52 1 -60 1 -8 -1 -34 -2 -58 -2 -23 0 -42
4 -42 4 0 3 -12 -1 -27 -4 -16 -4 -40 0 -55 4 -16 4 -28 1 -28 -8 0 -6 -85 2
-106 3 -8 2 -14 -2 -14 -6 0 -7 -144 -1 -175 1 -5 0 -14 -1 -20 -1 -5 -1 -30
-1 -55 1 -25 1 -52 1 -60 1 -8 -1 -34 -2 -58 -2 -23 0 -42 4 -42 4 0 3 -12 -1
-27 -4 -16 -4 -40 0 -55 4 -16 4 -28 1 -28 -8 0 -6 -85 2 -106 3 -8 2 -14 -3
-14 -4 0 -5 -19 -1 -43 3 -24 3 -55 -1 -69 -4 -14 -3 -31 1 -38 5 -8 5 -23 0
-34 -4 -12 -4 -30 0 -41 4 -11 4 -29 0 -40 -4 -11 -4 -29 0 -40 4 -11 5 -24 2
-29 -7 -12 -5 -203 2 -215 4 -5 2 -12 -3 -15 -6 -4 -6 -18 -1 -36 5 -17 6 -31
2 -31 -4 -1 7 -5 23 -8 17 -4 40 -4 53 1 12 4 22 4 22 0 0 -5 23 -6 50 -2 28
4 53 3 56 -1 3 -5 16 -4 29 1 14 5 25 6 25 2 0 -5 23 -6 50 -2 28 4 53 3 56
-1 3 -5 16 -4 29 1 14 5 25 6 25 2 0 -5 23 -6 50 -2 28 4 53 3 56 -1 3 -5 16
-4 29 1 14 5 25 6 25 2 0 -5 23 -6 50 -2 28 4 53 3 56 -1 3 -5 16 -4 29 1 14
5 25 6 25 2 0 -5 23 -6 50 -2 28 4 53 3 56 -1 3 -5 16 -4 29 1 14 5 25 6 25 2
0 -4 23 -7 50 -7 28 0 50 3 50 6 0 3 12 4 28 2 l27 -5 1 1274 c1 984 4 1280
13 1303 7 17 12 31 11 33 -1 4 74 72 83 73 13 2 27 6 30 9 24 20 126 13 176
-12 67 -34 103 -97 108 -191 5 -87 5 -102 1 -149 -2 -20 0 -34 4 -32 5 3 4 -5
-1 -18 -4 -13 -5 -32 -1 -43 4 -11 5 -24 3 -28 -3 -5 -5 -32 -4 -60 1 -29 1
-63 2 -77 0 -14 -1 -41 -3 -62 -2 -20 0 -34 4 -32 5 3 4 -5 -1 -18 -4 -13 -5
-32 -1 -43 4 -11 5 -27 1 -35 -4 -8 -5 -28 -4 -45 2 -16 3 -43 3 -60 -1 -16
-1 -47 0 -67 0 -21 0 -44 0 -50 1 -26 0 -134 -1 -153 0 -11 0 -26 0 -32 1 -18
1 -35 1 -98 0 -30 1 -61 1 -67 0 -7 0 -35 -1 -63 0 -27 0 -58 0 -67 0 -10 0
-35 -1 -55 -3 -119 19 -299 47 -383 9 -25 16 -53 17 -62 1 -10 6 -18 11 -18 5
0 7 -3 3 -6 -7 -7 71 -167 84 -172 5 -2 9 -8 9 -13 0 -6 15 -29 33 -52 28 -37
47 -58 114 -132 30 -34 129 -115 141 -115 5 0 12 -7 16 -15 3 -8 12 -15 21
-15 8 0 15 -4 15 -9 0 -5 8 -11 18 -14 9 -4 41 -20 71 -36 46 -25 72 -37 121
-56 3 -1 12 -5 20 -8 49 -21 184 -57 265 -71 186 -33 420 -27 585 13 25 7 54
14 64 16 97 23 239 83 346 148 217 132 392 347 469 576 28 82 50 191 56 281 2
25 4 388 5 806 1 835 -3 792 61 848 103 92 252 73 330 -41 l33 -47 0 -1277 c1
-703 4 -1281 9 -1285 4 -4 7 -3 7 2 0 5 19 8 42 7 24 -1 43 -2 43 -3 0 -1 8
-3 18 -5 9 -2 17 1 17 6 0 6 5 7 11 3 10 -6 147 -8 175 -3 5 1 11 0 14 -1 20
-7 40 -7 40 1 0 6 5 7 11 3 10 -6 147 -8 175 -3 5 1 11 0 14 -1 20 -7 40 -7
40 1 0 6 5 7 11 3 14 -8 165 -7 179 1 5 3 11 1 14 -3 6 -9 35 -10 51 0 6 3 19
2 30 -2 11 -4 30 -3 43 1 14 6 21 5 17 0 -3 -6 6 -6 23 -2 16 5 36 5 44 0 11
-6 17 -4 20 9 6 26 -1 2560 -7 2617 -7 70 -13 104 -23 150 -73 310 -298 581
-614 737 -43 21 -84 38 -92 38 -8 0 -17 4 -20 9 -3 4 -20 12 -38 16 -38 9 -33
8 -78 23 -19 6 -50 14 -69 17 -19 3 -37 8 -41 10 -31 19 -357 27 -478 12 -34
-4 -106 -19 -160 -33 -53 -14 -101 -27 -107 -28 -11 -3 -30 -11 -143 -62 -64
-30 -186 -102 -228 -137 -40 -32 -163 -157 -195 -197 -49 -61 -112 -161 -112
-177 0 -7 -4 -13 -8 -13 -11 0 -66 -159 -84 -245 -9 -43 -18 -110 -20 -149 -2
-39 -5 -71 -5 -71 -1 0 -2 -24 -3 -53 -1 -28 1 -52 5 -52 4 0 3 -11 -2 -24 -5
-13 -6 -27 -2 -30 3 -4 5 -26 3 -49 -6 -93 -6 -217 1 -217 4 0 3 -11 -2 -24
-5 -13 -6 -27 -2 -30 3 -4 5 -26 3 -49 -7 -104 -5 -347 2 -347 5 0 6 -4 2 -9
-5 -8 -10 -208 -5 -221 4 -13 4 -90 0 -90 -8 0 -4 -186 4 -199 4 -6 4 -11 -1
-11 -4 0 -9 -25 -10 -54 -3 -78 -37 -127 -116 -168 -22 -11 -45 -17 -53 -14
-7 3 -16 1 -19 -3 -7 -13 -65 -5 -116 17 -30 12 -86 73 -101 111 -8 18 -12
264 -13 791 -2 794 -4 858 -30 960 -3 11 -7 30 -10 42 -14 66 -62 182 -106
258 -47 82 -225 290 -248 290 -3 0 -22 14 -41 30 -52 46 -60 51 -60 45 0 -3
-10 3 -22 15 -12 11 -27 20 -34 20 -7 0 -14 3 -16 8 -4 8 -175 92 -198 97 -3
0 -36 10 -75 22 -70 21 -131 35 -235 52 -66 12 -332 12 -350 1z"/>
<path d="M14882 17419 c-16 -6 -17 -41 -16 -430 0 -360 3 -424 15 -425 8 -1
19 -3 24 -4 28 -6 102 -5 118 3 9 4 17 4 17 -1 0 -9 53 -8 69 3 6 3 16 3 23
-1 15 -10 60 -10 75 -1 7 4 14 4 17 -1 5 -9 109 -8 125 2 6 4 16 4 23 0 15
-10 60 -10 75 -1 7 4 14 4 17 -1 5 -9 109 -8 125 2 6 4 16 4 23 0 7 -4 50 -8
97 -8 l84 -1 2 -860 c2 -855 3 -895 32 -1010 8 -33 15 -68 16 -77 1 -10 6 -18
11 -18 5 0 6 -3 3 -7 -4 -3 -3 -11 2 -17 5 -6 14 -29 21 -51 25 -78 132 -235
221 -324 93 -93 91 -91 165 -144 52 -37 204 -119 204 -110 0 3 11 -2 25 -11
14 -9 25 -14 25 -11 0 3 13 -1 30 -10 16 -8 33 -14 37 -13 4 1 24 -3 43 -9 19
-7 51 -14 70 -17 19 -3 49 -8 65 -11 17 -4 53 -8 80 -9 28 -1 56 -5 63 -9 6
-5 12 -5 12 0 0 4 21 7 47 6 27 -1 48 -2 48 -3 0 -1 8 -3 18 -5 9 -2 17 1 17
6 0 6 5 7 11 3 14 -8 165 -7 179 1 5 3 11 1 15 -5 4 -7 12 -7 24 0 10 5 21 6
25 3 8 -8 85 -8 93 1 3 3 12 1 20 -5 15 -13 15 -11 17 66 1 28 5 56 9 63 5 6
5 12 0 12 -4 0 -7 33 -6 73 2 39 3 77 3 82 0 6 -1 43 -3 83 -2 45 1 72 8 72 6
0 7 3 0 8 -12 8 -13 121 -2 140 5 6 5 12 0 12 -4 0 -8 29 -8 65 0 36 4 65 8
65 5 0 5 6 0 13 -4 6 -8 30 -9 52 0 22 -2 45 -2 50 -1 7 -69 10 -189 10 -177
0 -191 1 -234 23 -29 14 -58 39 -75 65 l-29 42 0 282 c0 156 -2 283 -5 283 -3
0 -3 36 0 80 3 44 3 80 0 80 -3 0 -4 225 -2 500 l2 500 59 -3 c33 -1 57 2 54
7 -4 5 0 6 7 1 10 -6 136 -10 165 -5 6 2 14 2 19 1 35 -7 76 -6 76 1 0 5 5 6
12 2 15 -10 60 -10 75 -1 7 4 14 4 17 -1 5 -9 109 -8 125 2 6 4 16 4 23 0 15
-10 60 -10 75 -1 7 4 14 4 17 -1 4 -7 63 -7 151 1 l30 2 0 428 c1 377 -1 427
-15 428 -68 5 -2895 3 -2908 -2z"/>
<path d="M17657 12524 c-1 -1 -36 -5 -77 -8 -93 -7 -136 -15 -270 -50 -67 -18
-230 -101 -230 -118 0 -5 -4 -8 -10 -8 -12 0 -54 -35 -89 -74 -14 -16 -33 -37
-41 -46 -26 -26 -103 -189 -97 -204 3 -7 1 -18 -4 -23 -12 -12 -20 -81 -21
-173 -2 -161 26 -265 107 -390 68 -107 229 -223 370 -266 24 -8 92 -25 115
-30 14 -3 36 -7 50 -10 90 -19 353 -25 460 -11 75 10 155 24 155 27 0 1 11 4
25 7 51 10 63 14 180 71 79 38 109 60 175 127 74 75 139 175 150 232 2 10 4
18 5 18 2 0 6 19 18 80 14 71 12 219 -5 299 -15 72 -70 206 -84 206 -5 0 -9 6
-9 13 0 17 -108 130 -140 147 -14 7 -29 19 -33 26 -4 8 -12 14 -18 14 -5 0
-28 12 -50 26 -22 14 -49 26 -60 27 -10 1 -19 4 -19 8 0 6 -87 33 -143 45
-136 29 -180 34 -320 37 -49 1 -89 1 -90 1z m283 -360 c30 -10 57 -18 60 -18
12 -2 97 -57 121 -78 117 -106 145 -282 68 -425 -35 -64 -75 -102 -150 -142
-86 -47 -238 -78 -268 -56 -11 7 -13 7 -8 -2 16 -26 -213 -1 -303 34 -8 4 -18
5 -22 5 -5 -1 -8 3 -8 9 0 5 -4 7 -10 4 -5 -3 -10 -1 -10 4 0 6 -6 11 -14 11
-30 0 -124 108 -146 167 -86 228 48 444 308 498 91 19 307 13 382 -11z"/>
<path d="M11977 12488 c-3 -7 -49 -112 -102 -233 -53 -121 -102 -231 -108
-245 -5 -14 -11 -27 -13 -30 -1 -3 -5 -15 -9 -27 -4 -13 -12 -23 -18 -23 -6 0
-8 -3 -5 -6 3 -3 -23 -71 -59 -152 -69 -156 -85 -194 -88 -202 -1 -3 -12 -27
-25 -55 -13 -27 -24 -54 -25 -60 -2 -5 -16 -39 -33 -75 -44 -95 -111 -250
-109 -251 7 -4 390 -3 396 1 4 3 20 37 36 75 16 39 32 75 35 80 4 6 14 31 24
58 l18 47 397 0 398 0 56 -132 55 -132 197 -1 c108 0 202 3 207 6 7 4 0 28
-17 65 -15 33 -28 61 -28 64 0 3 -18 43 -39 90 -21 47 -43 94 -48 105 -5 11
-18 41 -29 68 -12 26 -30 66 -40 90 -11 23 -43 96 -71 162 -29 66 -65 148 -81
183 -16 35 -29 65 -29 67 0 2 -18 43 -40 90 -22 47 -40 89 -40 93 0 4 -12 30
-25 57 -14 28 -25 56 -25 63 0 6 -5 12 -12 12 -6 0 -8 3 -5 6 3 4 1 16 -5 28
-7 11 -13 23 -13 26 -1 3 -11 26 -23 53 l-21 47 -315 0 c-242 0 -315 -3 -319
-12z m329 -195 c3 -10 22 -56 42 -103 21 -46 37 -87 38 -90 0 -3 11 -27 23
-55 13 -27 24 -54 26 -60 13 -44 19 -55 28 -55 6 0 8 -3 5 -6 -6 -5 5 -34 58
-152 25 -55 29 -71 17 -73 -38 -4 -497 -3 -504 2 -5 3 -2 22 8 45 9 21 17 41
18 44 1 3 9 22 18 44 9 21 17 40 17 42 0 1 14 33 31 71 16 37 34 77 38 88 8
19 58 138 97 233 19 45 31 53 40 25z"/>
<path d="M13317 12493 c-2 -5 -3 -204 -2 -443 1 -301 5 -450 14 -484 27 -110
84 -210 157 -274 46 -41 160 -111 194 -119 14 -3 30 -9 35 -13 6 -4 26 -11 45
-15 19 -4 53 -11 75 -16 154 -35 457 -31 608 6 70 18 190 65 195 77 2 4 10 8
18 8 33 0 175 142 209 210 56 110 63 165 64 471 0 155 2 283 3 285 2 1 2 72 0
158 l-3 156 -205 0 -204 0 0 -37 c0 -21 0 -47 0 -58 -1 -11 0 -101 0 -200 1
-99 1 -184 0 -190 -2 -5 -1 -14 0 -20 2 -9 2 -47 0 -150 0 -11 0 -45 0 -77 1
-142 -45 -229 -152 -284 -66 -33 -129 -46 -238 -46 -223 -1 -352 71 -398 222
-2 8 -5 121 -7 251 -1 130 -5 242 -9 248 -4 6 -4 11 1 11 10 0 9 212 -1 228
-4 7 -4 12 1 12 4 0 8 19 8 43 l0 42 -202 3 c-111 1 -203 -1 -206 -5z"/>
<path d="M15143 12370 c1 -81 -2 -130 -8 -130 -7 0 -7 -3 0 -8 6 -4 10 -20 10
-37 l0 -29 287 0 286 0 5 -23 c2 -12 0 -20 -4 -17 -5 3 -7 -1 -4 -8 9 -26 12
-99 4 -103 -4 -3 -4 -18 1 -34 4 -16 6 -32 3 -34 -5 -6 -5 -98 1 -140 2 -15 0
-30 -5 -32 -4 -3 -4 -18 1 -34 4 -16 6 -32 3 -34 -5 -5 -5 -93 0 -137 2 -14
-1 -30 -6 -37 -5 -7 -5 -18 -1 -25 10 -17 12 -58 2 -64 -5 -3 -5 -10 -1 -17
10 -16 10 -58 1 -63 -5 -3 -5 -10 -1 -17 10 -16 10 -58 1 -63 -5 -3 -5 -11 -1
-17 4 -6 6 -39 6 -74 -1 -39 3 -63 10 -65 7 -2 98 -3 202 -3 l190 1 3 520 2
520 278 -1 c152 0 283 1 289 3 9 3 12 47 12 168 l-1 164 -783 0 -783 0 1 -130z"/>
<path d="M18749 12473 c-3 -79 -4 -289 -2 -298 2 -6 106 -10 288 -9 157 0 286
-2 286 -5 1 -3 2 -233 3 -511 1 -278 4 -509 8 -515 5 -8 332 -13 393 -6 7 1
10 180 10 516 0 341 3 516 10 517 5 0 129 2 275 4 146 1 272 3 280 3 13 1 15
24 14 148 -1 82 -2 156 -3 166 -1 16 -45 17 -781 17 l-780 0 -1 -27z"/>
<path d="M20525 11818 c-1 -376 2 -685 6 -688 6 -4 380 -5 399 -1 3 1 5 109 4
241 -1 213 1 240 15 241 9 0 66 1 126 2 l110 2 50 -54 c28 -29 61 -66 75 -81
117 -127 241 -261 272 -293 20 -22 39 -44 41 -50 2 -7 86 -11 258 -12 140 0
257 1 261 3 4 1 -50 59 -120 128 -275 270 -362 358 -362 366 0 5 4 7 9 4 15
-9 178 42 221 69 128 80 182 185 181 345 0 80 -2 92 -22 161 -12 39 -89 165
-89 145 0 -5 -8 1 -17 13 -10 12 -29 28 -43 36 -72 40 -107 57 -129 61 -14 3
-29 8 -35 12 -6 3 -17 7 -26 8 -8 1 -26 6 -40 10 -14 4 -277 9 -585 11 l-560
4 0 -683z m1015 349 c76 -12 130 -71 123 -133 -7 -66 -45 -98 -128 -110 -59
-8 -585 -8 -593 1 -9 9 -11 239 -1 245 8 6 562 3 599 -3z"/>
<path d="M22778 12433 c-31 -70 -49 -115 -49 -123 0 -3 -8 -13 -16 -22 -9 -10
-13 -18 -10 -18 3 0 -19 -55 -50 -122 -30 -68 -75 -170 -100 -228 -24 -58 -53
-123 -63 -145 -10 -22 -25 -56 -33 -75 -9 -19 -26 -58 -38 -85 -12 -28 -23
-52 -24 -55 -5 -15 -22 -54 -57 -128 -21 -46 -38 -86 -38 -88 0 -2 -11 -27
-24 -56 -43 -97 -66 -150 -66 -157 0 -9 383 -6 398 3 7 4 12 12 12 17 0 6 16
45 36 87 19 42 36 85 37 95 1 9 4 17 8 17 4 0 9 9 12 20 5 20 12 20 403 18
l398 -3 43 -100 c24 -55 49 -113 56 -130 l13 -29 206 -1 c228 0 212 -6 178 70
-46 101 -86 193 -113 255 -5 14 -10 28 -9 33 1 4 -3 7 -8 7 -5 0 -9 3 -8 8 2
9 -3 21 -86 205 -36 81 -66 150 -66 152 0 3 -13 33 -29 68 -39 84 -65 141 -66
147 -3 10 -27 67 -49 115 -13 28 -35 75 -48 105 -13 30 -40 90 -59 132 l-34
78 -313 0 -313 0 -31 -67z m402 -260 c34 -82 73 -172 86 -201 13 -29 24 -55
24 -57 0 -6 29 -74 66 -154 15 -32 21 -57 16 -60 -8 -4 -509 -6 -519 -2 -1 1
35 88 86 206 5 11 26 61 46 110 21 50 46 108 55 130 17 39 32 75 35 85 3 10
40 90 41 90 1 0 30 -66 64 -147z"/>
<path d="M24229 12498 c-1 -2 -2 -310 -3 -685 -1 -600 1 -682 14 -685 25 -6
892 0 935 6 56 8 120 19 170 30 60 13 207 74 213 89 2 4 8 7 13 7 33 0 172
133 214 204 122 209 118 511 -9 710 -62 97 -166 182 -286 235 -90 39 -94 40
-120 46 -14 2 -47 10 -75 16 -27 6 -66 13 -85 16 -38 6 -979 16 -981 11z m881
-342 c74 -12 171 -46 214 -76 40 -27 113 -100 100 -100 -4 0 -1 -6 5 -14 33
-40 46 -186 22 -263 -1 -2 -2 -6 -2 -10 -5 -22 -55 -92 -87 -120 -40 -36 -138
-86 -152 -78 -4 3 -10 1 -12 -4 -3 -9 -59 -19 -143 -26 -22 -2 -45 -4 -50 -5
-6 -1 -91 -2 -191 -1 l-181 1 2 353 c1 193 3 353 4 353 5 5 435 -5 471 -10z"/>
<path d="M26129 12498 c-4 -9 -3 -1368 1 -1369 13 -3 1416 -4 1425 -2 10 3 13
292 2 309 -3 5 -216 8 -499 8 -271 -1 -500 0 -509 2 -12 3 -15 24 -16 113 -1
94 1 110 15 113 10 2 182 3 385 3 202 0 368 2 368 5 1 3 3 69 4 147 2 97 -1
143 -9 145 -6 2 -180 4 -387 3 l-376 0 1 102 c1 85 3 103 16 103 130 4 170 4
170 -2 0 -4 7 -4 17 -1 23 9 303 10 303 1 0 -4 7 -4 17 -1 24 9 303 9 303 0 0
-5 6 -5 13 0 6 4 44 7 82 8 l70 0 0 158 1 157 -698 0 c-384 0 -699 -1 -699 -2z"/>
</g>
</svg>
