<svg width="24" height="25" viewBox="0 0 24 25" fill="none" xmlns="http://www.w3.org/2000/svg">
<path d="M21.6198 20.7349C20.9748 20.7299 20.3798 20.4649 19.9398 19.9999L11.7399 11.34L9.86492 13.22L10.0099 13.365C10.4099 13.765 10.4099 14.42 10.0099 14.82C9.60995 15.22 8.95993 15.22 8.55994 14.82L4.06 10.325C3.66001 9.92004 3.66001 9.27005 4.06 8.87007C4.26502 8.67006 4.52499 8.57008 4.79 8.57008C5.05001 8.56508 5.30999 8.66508 5.515 8.87007L5.65999 9.01505L12.2799 2.40015L12.1349 2.25516C11.7299 1.85017 11.7299 1.20015 12.1349 0.800163C12.3349 0.600184 12.5949 0.500179 12.8599 0.500179C13.1199 0.495174 13.3799 0.595179 13.5849 0.800163L18.0798 5.2951C18.4798 5.69512 18.4798 6.35011 18.0798 6.7501C17.6798 7.15009 17.0298 7.15009 16.6298 6.7501L16.4799 6.60011L14.6049 8.48009L23.2548 16.68C23.7248 17.115 23.9897 17.7099 23.9997 18.35C24.0098 18.9949 23.7697 19.5949 23.3148 20.0499C22.8698 20.4949 22.2848 20.7399 21.6548 20.7399C21.6498 20.7399 21.6435 20.7387 21.6373 20.7374C21.631 20.7362 21.6248 20.7349 21.6198 20.7349Z" fill="white"/>
<path d="M15.5498 24.1949H0.499994C0.225003 24.1949 0 23.9699 0 23.6949C0 23.4199 0.225003 23.1949 0.499994 23.1949H1.41499V22.7499C1.41499 21.7899 2.19498 21.0099 3.15496 21.0099H3.21496V19.5649C3.21496 18.604 3.99397 17.825 4.95495 17.825H11.0848C12.0499 17.825 12.8299 18.605 12.8299 19.5649V21.0099H12.8898C13.8548 21.0099 14.6348 21.7899 14.6348 22.7499V23.1949H15.5498C15.8248 23.1949 16.0498 23.4199 16.0498 23.6949C16.0498 23.9699 15.8248 24.1949 15.5498 24.1949Z" fill="white"/>
</svg>
