<svg width="83" height="82" viewBox="0 0 83 82" fill="none" xmlns="http://www.w3.org/2000/svg">
<path d="M65.7535 41.0015C65.7535 54.4112 54.9613 65.2661 41.6295 65.2661V41.0015H65.7535ZM41.6295 16.7368V41.0015H17.5059C17.5059 27.5917 28.2976 16.7368 41.6295 16.7368Z" fill="#4A4A4A"/>
<path d="M41.6294 16.7366V18.067C54.2006 18.067 64.4299 28.3541 64.4299 41.0013H65.7532C65.7532 27.6011 54.9516 16.7366 41.6294 16.7366ZM41.6294 63.9355C29.0582 63.9355 18.8285 53.6484 18.8285 41.0013H17.5058C17.5058 54.4014 28.3071 65.2659 41.6294 65.2659M41.6294 0.0546875C19.1473 0.0546875 0.920898 18.3877 0.920898 41.0013C0.920898 63.6148 19.1473 81.9479 41.6294 81.9479C64.1118 81.9479 82.3382 63.6148 82.3382 41.0013C82.3382 18.3877 64.1118 0.0546875 41.6294 0.0546875ZM79.6907 41.0013C79.6907 62.1438 62.6513 79.2852 41.6294 79.2852C20.6074 79.2852 3.56811 62.1438 3.56811 41.0013C3.56811 19.8587 20.6098 2.71737 41.6294 2.71737C62.6493 2.71737 79.6907 19.8587 79.6907 41.0013Z" fill="#4A4A4A"/>
<path d="M24.2327 21.2483C25.5336 19.8796 26.2701 18.2983 24.9692 16.7887C24.2615 15.9693 23.073 15.7902 22.0878 16.1939L21.9898 16.2321L22.0208 16.1461C22.1667 15.7567 22.26 14.5146 21.2006 13.6571C20.6841 13.2391 20.0361 13.0838 19.3808 13.1507C18.1589 13.2749 17.2191 14.1085 14.6604 16.9583C13.888 17.8182 12.7642 19.175 12.0898 20.054L19.1177 26.7137C21.4469 24.1387 22.3963 23.1808 24.2327 21.2483ZM15.0622 19.6193C16.4778 17.8898 17.9819 16.3205 18.6634 15.6994C18.8786 15.5035 19.113 15.3077 19.3976 15.2312C19.8591 15.1046 20.3349 15.4319 20.4426 15.9048C20.5502 16.3802 20.2512 16.8317 19.9189 17.2043C19.1704 18.0475 16.4252 20.9163 16.4252 20.9163L15.0622 19.6193ZM17.8146 22.2277C17.8146 22.2277 20.488 19.4043 21.3608 18.5013C21.7075 18.143 21.9299 17.9257 22.1691 17.8086C22.4775 17.6581 22.8147 17.6271 23.116 17.8277C23.4125 18.026 23.5488 18.3676 23.4747 18.7068C23.3862 19.1105 23.0562 19.495 22.7836 19.7889C22.4154 20.183 19.2445 23.5725 19.2397 23.5773L17.8146 22.2277ZM42.4328 13.3059L44.6829 8.27059L44.8265 7.8239L44.7858 8.2897L45.0226 15.0186C45.8116 15.0927 46.6271 15.2026 47.4306 15.3363L47.0647 5.37072C45.9408 5.24651 44.8216 5.15813 43.7026 5.11035L41.4858 10.6067L41.4069 11.0152L41.3281 10.6067L39.1137 5.11035C37.9946 5.15813 36.8754 5.24651 35.7516 5.37072L35.3857 15.3363C36.1891 15.2026 37.0045 15.0951 37.7937 15.0186L38.0304 8.2897L37.9898 7.8239L38.1332 8.27059L40.3835 13.3059H42.4328ZM61.1211 23.723C61.6729 24.3154 62.4692 25.2709 62.9166 25.8513L71.1524 20.6297C70.7409 20.0922 70.0857 19.2753 69.5956 18.6996L64.3801 22.1441L64.0241 22.4499L64.2896 22.0629L66.5921 17.4718L64.9636 15.8451L60.3645 18.1454L59.9778 18.4106L60.286 18.0547L63.7368 12.8473C63.1294 12.3314 62.5458 11.8584 61.8021 11.2851L56.5747 19.5046C57.2368 20.0134 58.1097 20.761 58.6675 21.2698L63.5887 18.7187L63.9038 18.487L63.6722 18.8023L61.1211 23.723Z" fill="#4A4A4A"/>
</svg>
