<svg width="18" height="18" viewBox="0 0 18 18" fill="none" xmlns="http://www.w3.org/2000/svg">
<path fill-rule="evenodd" clip-rule="evenodd" d="M3 0H15C15.597 0 16.1693 0.236998 16.5908 0.659248C17.013 1.08075 17.25 1.653 17.25 2.25V15.75C17.25 16.347 17.013 16.9193 16.5908 17.3408C16.1693 17.763 15.597 18 15 18H3C2.403 18 1.83075 17.763 1.40925 17.3408C0.986998 16.9193 0.75 16.347 0.75 15.75V2.25C0.75 1.653 0.986998 1.08075 1.40925 0.659248C1.83075 0.236998 2.403 0 3 0ZM15 1.5H3C2.80125 1.5 2.61 1.57875 2.46975 1.71975C2.32875 1.86 2.25 2.05125 2.25 2.25V15.75C2.25 15.9487 2.32875 16.14 2.46975 16.2803C2.61 16.4213 2.80125 16.5 3 16.5H15C15.1987 16.5 15.39 16.4213 15.5303 16.2803C15.6713 16.14 15.75 15.9487 15.75 15.75V2.25C15.75 2.05125 15.6713 1.86 15.5303 1.71975C15.39 1.57875 15.1987 1.5 15 1.5ZM5.25 7.5H4.5C4.086 7.5 3.75 7.164 3.75 6.75C3.75 6.336 4.086 6 4.5 6H5.25V5.25C5.25 4.836 5.586 4.5 6 4.5C6.414 4.5 6.75 4.836 6.75 5.25V6H7.5C7.914 6 8.25 6.336 8.25 6.75C8.25 7.164 7.914 7.5 7.5 7.5H6.75V8.25C6.75 8.664 6.414 9 6 9C5.586 9 5.25 8.664 5.25 8.25V7.5ZM10.5 12C10.086 12 9.75 11.664 9.75 11.25C9.75 10.836 10.086 10.5 10.5 10.5H13.5C13.914 10.5 14.25 10.836 14.25 11.25C14.25 11.664 13.914 12 13.5 12H10.5ZM4.5645 12.0457L3.96975 11.451C3.67725 11.1585 3.67725 10.683 3.96975 10.3905C4.26225 10.0972 4.73775 10.0972 5.03025 10.3905L5.625 10.9845L6.21975 10.3905C6.51225 10.0972 6.98775 10.0972 7.28025 10.3905C7.57275 10.683 7.57275 11.1585 7.28025 11.451L6.6855 12.0457L7.28025 12.6405C7.57275 12.933 7.57275 13.4085 7.28025 13.701C6.98775 13.9935 6.51225 13.9935 6.21975 13.701L5.625 13.1062L5.03025 13.701C4.73775 13.9935 4.26225 13.9935 3.96975 13.701C3.67725 13.4085 3.67725 12.933 3.96975 12.6405L4.5645 12.0457ZM10.5 13.9207C10.086 13.9207 9.75 13.5847 9.75 13.1707C9.75 12.7567 10.086 12.4207 10.5 12.4207H13.5C13.914 12.4207 14.25 12.7567 14.25 13.1707C14.25 13.5847 13.914 13.9207 13.5 13.9207H10.5ZM10.5 7.5C10.086 7.5 9.75 7.164 9.75 6.75C9.75 6.336 10.086 6 10.5 6H13.5C13.914 6 14.25 6.336 14.25 6.75C14.25 7.164 13.914 7.5 13.5 7.5H10.5Z" fill="white"/>
</svg>
