<svg width="52" height="44" viewBox="0 0 52 44" fill="none" xmlns="http://www.w3.org/2000/svg">
<path d="M49.2143 13.3971H45.8277L43.6429 6.56933C42.4958 3.07353 39.2731 0.724792 35.6134 0.724792H16.2773C12.6176 0.724792 9.34034 3.07353 8.2479 6.56933L6.06303 13.3971H2.67647C1.20168 13.3971 0 14.5987 0 16.0735V17.6029C0 19.0777 1.20168 20.2794 2.67647 20.2794H3.60504C3.05882 22.7374 2.78571 25.25 2.78571 27.7626V40.5987C2.78571 42.0735 3.9874 43.2752 5.46219 43.2752H9.94118C11.416 43.2752 12.6176 42.0735 12.6176 40.5987V36.5021H39.3824V40.5987C39.3824 42.0735 40.584 43.2752 42.0588 43.2752H46.5378C48.0126 43.2752 49.2143 42.0735 49.2143 40.5987V27.708C49.2143 25.1954 48.9412 22.6828 48.395 20.2248H49.3235C50.7983 20.2248 52 19.0231 52 17.5483V16.0189C51.8908 14.5987 50.6891 13.3971 49.2143 13.3971ZM10.7605 16.1282L13.3277 8.15336C13.7647 6.84244 14.9664 5.96849 16.2773 5.96849H35.6134C36.979 5.96849 38.1807 6.84244 38.563 8.15336L41.1303 16.1282C41.2395 16.5105 40.9664 16.8382 40.584 16.8382H11.3067C10.9244 16.8929 10.6513 16.5105 10.7605 16.1282ZM16.3319 29.1828H10.9244C9.9958 29.1828 9.28571 28.4727 9.28571 27.5441V24.9769C9.28571 23.9937 10.2143 23.1744 11.1975 23.3382L16.2227 24.1576C16.8782 24.2668 17.4244 24.7584 17.5882 25.4139L17.9706 27.1618C18.1891 28.1996 17.4244 29.1828 16.3319 29.1828ZM30.916 31.313C30.916 31.6954 30.6429 31.9685 30.2605 31.9685H21.5756C21.1933 31.9685 20.9202 31.6954 20.9202 31.313V29.729C20.9202 29.3466 21.1933 29.0735 21.5756 29.0735H30.3151C30.6975 29.0735 30.9706 29.3466 30.9706 29.729V31.313H30.916ZM42.5504 27.5441C42.5504 28.4727 41.8403 29.1828 40.9118 29.1828H35.5042C34.4664 29.1828 33.7017 28.1996 33.9202 27.2164L34.3025 25.4685C34.4664 24.813 34.958 24.3214 35.6681 24.2122L40.6933 23.3929C41.6765 23.229 42.605 23.9937 42.605 25.0315V27.5441H42.5504Z" fill="#5969FF"/>
</svg>
