<svg width="120" height="53" viewBox="0 0 120 53" fill="none" xmlns="http://www.w3.org/2000/svg">
<path fill-rule="evenodd" clip-rule="evenodd" d="M20.8398 42.7275V35.8935H24.4331V52.9769H20.8383L20.8376 45.3351H15.6895V52.9769H12.0962V35.8935H15.6895V42.7275H20.8398ZM106.576 35.8935H119.931V38.5011H115.05V52.9769H111.457V38.5011H106.576V35.8935ZM87.6038 35.8935L87.6024 50.3693H94.2879V52.9769H84.0105V35.8935H87.6038ZM46.4864 50.1358L50.215 35.8935H53.3888L49.1466 51.5019C48.9015 52.4845 48.2714 52.979 47.2962 52.979H43.9812C43.0053 52.979 42.3172 52.5038 42.1059 51.4773L37.7587 35.8935H41.9504L45.733 50.1276C45.7902 50.2918 45.9308 50.3611 46.1119 50.3611C46.3016 50.3611 46.4346 50.3135 46.4864 50.1358ZM0.00216541 38.5614C0.00216541 36.8352 0.854075 35.8935 2.69089 35.8935H10.7188V38.5011L4.91044 38.5004C3.83531 38.5004 3.59549 38.7763 3.59549 39.8037L3.5917 49.0578C3.5917 50.1239 3.91056 50.3649 4.90755 50.3649L10.7188 50.3641V52.9769L2.68421 52.979C0.982737 52.979 0 52.2084 0 50.3074L0.00216541 38.5614ZM30.1835 49.0578C30.1835 50.1434 30.5029 50.3649 31.5001 50.3649L38.1495 50.3641V52.9769L29.2768 52.979C27.4782 52.979 26.5925 52.1123 26.5925 50.3074L26.594 38.5614C26.594 36.8157 27.4241 35.8959 29.2805 35.8959L37.4007 35.8935V38.5011L31.5023 38.5004C30.4084 38.5004 30.188 38.8144 30.188 39.8037L30.1888 42.7275H37.3263V45.3351H30.185L30.1835 49.0578ZM63.8745 45.758L63.0684 45.7648L67.8195 52.9769H63.373L58.8354 45.2894C58.6858 45.0231 58.4963 44.756 58.4963 44.3861C58.4963 43.6496 58.9256 43.1945 59.6873 43.1945L61.6504 43.1916C62.6866 43.1916 62.967 42.8931 62.967 41.8852L62.9632 39.8037C62.9632 38.8144 62.7616 38.5004 61.6473 38.5004L57.4488 38.5011V52.9769H53.8564V35.8935H63.8707C65.7075 35.8935 66.5563 36.7777 66.5563 38.5614L66.5587 43.0879C66.5587 45.0074 65.5361 45.758 63.8745 45.758ZM79.1466 35.8959C81.0038 35.8959 81.8332 36.8157 81.8332 38.5614L81.8353 50.3074C81.8353 52.1697 80.8699 52.9783 79.1489 52.9783H75.2075L71.2264 52.979C69.5827 52.979 68.5413 52.2473 68.5413 50.3074L68.5436 38.5614C68.5436 36.8545 69.3346 35.8959 71.23 35.8959H79.1466ZM76.9278 50.3649C77.9045 50.3649 78.2436 50.1627 78.2436 49.0578L78.2405 39.8037C78.2405 38.6608 77.8677 38.5011 76.9285 38.5011L73.4488 38.5004C72.2571 38.5004 72.1339 38.9115 72.1339 39.8037L72.133 49.0578C72.133 50.0859 72.4136 50.3649 73.4488 50.3649H76.9278ZM98.5774 49.0578C98.5774 50.1434 98.897 50.3649 99.894 50.3649L106.544 50.3641V52.9769L97.6706 52.979C95.8713 52.979 94.9857 52.1123 94.9857 50.3074L94.988 38.5614C94.988 36.8157 95.8172 35.8959 97.6744 35.8959L105.795 35.8935V38.5011L99.897 38.5004C98.8022 38.5004 98.5819 38.8144 98.5819 39.8037L98.5835 42.7275H105.719V45.3351H98.579L98.5774 49.0578ZM91.412 4.86794C91.885 4.86794 92.5767 5.1478 92.5767 5.94227C92.5767 6.24379 92.4843 6.38704 92.3518 6.63986L86.315 18.3441C85.894 19.1206 85.2895 19.34 84.4497 19.34L72.2738 19.343C71.7113 19.343 71.4653 19.5781 71.4653 20.154L71.4669 22.9705C71.4669 23.8373 70.97 24.1961 70.2233 24.1961L48.3172 24.1977C47.5707 24.1977 47.0737 23.8119 47.0737 22.9637L47.0759 20.1466C47.0759 19.6064 46.8655 19.3355 46.2669 19.3355L26.8497 19.3378C25.9947 19.3378 25.6849 18.7328 25.6849 18.2635C25.6849 18.0852 25.7323 17.9092 25.8097 17.7614L31.9159 5.91774C32.2053 5.32095 32.7669 4.86651 33.7263 4.86651L46.2669 4.86275C46.7933 4.86275 47.0759 4.64645 47.0759 4.05181L47.0774 1.23547C47.0774 0.458737 47.4985 0.000716216 48.3172 0.000716216L70.2233 0C71.0241 0 71.4646 0.42973 71.4646 1.2421L71.4653 4.05933C71.4653 4.72559 71.7849 4.87027 72.2745 4.87027L91.412 4.86794ZM86.5895 9.5853C86.6377 9.49434 86.6647 9.39139 86.6647 9.28252C86.6647 8.99442 86.4834 8.63255 85.9285 8.63255H68.4969C67.9346 8.63255 67.673 8.38492 67.673 7.82681L67.6744 4.57787C67.6744 4.00186 67.403 3.76157 66.8586 3.76157L51.6834 3.76318C51.1211 3.76318 50.8677 3.99434 50.8677 4.57107L50.8685 7.81947C50.8685 8.43201 50.5534 8.63417 50.0443 8.63417L35.3165 8.63345C34.8767 8.63345 34.6948 8.77061 34.5827 8.97132L31.6722 14.6205C31.6248 14.7107 31.597 14.8137 31.597 14.9234C31.597 15.3016 31.8985 15.5732 32.3331 15.5732H50.0443C50.5888 15.5732 50.8623 15.785 50.8623 16.379L50.8647 19.6281C50.8647 20.2585 51.1752 20.436 51.6826 20.436L59.2722 20.4345H66.8571C67.4377 20.4345 67.6768 20.1756 67.6768 19.6356L67.6789 16.3865C67.6789 15.8463 67.8978 15.5763 68.4969 15.5763H82.9451C83.1723 15.5763 83.4969 15.5612 83.679 15.2337L86.5895 9.5853Z" fill="#4A4A4A"/>
</svg>
