<svg viewBox="0 0 42 28" fill="none" xmlns="http://www.w3.org/2000/svg">
<path d="M38.6602 0.205078H3.12976C1.40119 0.205078 0 1.60627 0 3.33484V24.4551C0 26.1836 1.40119 27.5849 3.12976 27.5849H38.6602C40.3887 27.5849 41.79 26.1837 41.79 24.4551V3.33484C41.79 1.60627 40.3888 0.205078 38.6602 0.205078Z" fill="#FF4B55"/>
<path d="M6.93827 4.48654L7.6252 6.54617L9.79632 6.56299C10.0774 6.56511 10.194 6.92391 9.9678 7.09083L8.22127 8.38052L8.87612 10.4506C8.96084 10.7186 8.65574 10.9402 8.42704 10.7768L6.66076 9.51424L4.89448 10.7768C4.66578 10.9402 4.36068 10.7185 4.4454 10.4505L5.10025 8.38044L3.35372 7.09083C3.12755 6.92383 3.2441 6.56511 3.5252 6.56299L5.69633 6.54617L6.38325 4.48654C6.47222 4.21989 6.84939 4.21989 6.93827 4.48654ZM14.8222 4.99406L15.3148 5.66564L16.1097 5.41702C16.2126 5.38487 16.2973 5.50224 16.2343 5.58965L15.7476 6.26556L16.2297 6.94473C16.2921 7.03263 16.2067 7.14943 16.104 7.11654L15.3107 6.86262L14.8137 7.53101C14.7494 7.61753 14.6119 7.57231 14.6115 7.46457L14.6078 6.63163L13.8185 6.36546C13.7163 6.33094 13.7168 6.1863 13.8193 6.15251L14.6102 5.89165L14.6195 5.05879C14.6206 4.9513 14.7585 4.90714 14.8222 4.99406ZM11.8233 2.9919L12.6513 3.08185L13.0045 2.32758C13.0503 2.22997 13.194 2.2467 13.216 2.35223L13.3863 3.16747L14.2128 3.27031C14.3198 3.28361 14.3482 3.42547 14.2546 3.4791L13.5319 3.89291L13.6895 4.71076C13.7099 4.8167 13.5838 4.88755 13.5039 4.81515L12.8869 4.25564L12.1579 4.65819C12.0635 4.71035 11.957 4.61224 12.0012 4.51389L12.3426 3.75416L11.7344 3.1851C11.6558 3.1118 11.7161 2.98031 11.8233 2.9919ZM13.1323 11.0637L12.6398 11.7355L11.8449 11.4869C11.742 11.4547 11.6574 11.572 11.7204 11.6595L12.207 12.3354L11.7249 13.0146C11.6625 13.1025 11.748 13.2193 11.8506 13.1864L12.6438 12.9325L13.1408 13.6008C13.2051 13.6874 13.3427 13.6421 13.3431 13.5344L13.3468 12.7015L14.136 12.4353C14.2382 12.4008 14.2377 12.2561 14.1353 12.2223L13.3444 11.9615L13.3351 11.1286C13.3338 11.021 13.1961 10.9767 13.1323 11.0637ZM16.1311 9.18221L15.303 9.27215L14.9498 8.51789C14.904 8.42027 14.7603 8.43701 14.7383 8.54254L14.568 9.35777L13.7415 9.46062C13.6345 9.47392 13.606 9.61578 13.6996 9.6694L14.4224 10.0832L14.2647 10.9011C14.2443 11.007 14.3704 11.0779 14.4504 11.0055L15.0673 10.4459L15.7964 10.8485C15.8907 10.9007 15.9972 10.8025 15.953 10.7042L15.6116 9.94447L16.2198 9.3754C16.2987 9.30211 16.2384 9.17062 16.1311 9.18221Z" fill="#FFE15A"/>
</svg>
