<svg width="52" height="52" viewBox="0 0 52 52" fill="none" xmlns="http://www.w3.org/2000/svg">
<path d="M22.1759 0C34.4233 0 44.3518 9.92849 44.3518 22.1759C44.3518 26.6791 43.0095 30.8688 40.7033 34.3667L50.6878 44.3518C52.4374 46.1014 52.4374 48.9382 50.6878 50.6878C48.9382 52.4374 46.1014 52.4374 44.3518 50.6878L34.3667 40.7033C30.8688 43.0095 26.6791 44.3518 22.1759 44.3518C9.92849 44.3518 0 34.4233 0 22.1759C0 9.92849 9.92849 0 22.1759 0ZM22.1759 6.33597C13.4278 6.33597 6.33597 13.4278 6.33597 22.1759C6.33597 30.9241 13.4278 38.0158 22.1759 38.0158C30.9241 38.0158 38.0158 30.9241 38.0158 22.1759C38.0158 13.4278 30.9241 6.33597 22.1759 6.33597Z" fill="#5969FF"/>
<ellipse cx="22.1671" cy="22.2901" rx="13.5187" ry="13.5187" fill="#5969FF"/>
</svg>
