<svg width="20.000000" height="20.000000" viewBox="0 0 20 20" fill="none" xmlns="http://www.w3.org/2000/svg" xmlns:xlink="http://www.w3.org/1999/xlink">
	<desc>
			Created with Pixso.
	</desc>
	<defs/>
	<path id="Vector" d="M11.8293 10L19.6208 2.2085C19.7417 2.08838 19.8372 1.94531 19.9023 1.78809C19.9675 1.63086 20.0007 1.46191 20 1.29199C20.0022 1.12207 19.9697 0.953125 19.9045 0.796387C19.8394 0.639648 19.7429 0.497559 19.6208 0.379395C19.5027 0.257324 19.3606 0.160645 19.2039 0.0957031C19.0469 0.0302734 18.8784 -0.00195312 18.7085 0C18.5381 -0.000488281 18.3694 0.0327148 18.2122 0.0976562C18.0547 0.163086 17.9119 0.258789 17.7917 0.379395L10 8.1709L2.2085 0.379395C2.08838 0.258789 1.94531 0.163086 1.78809 0.0976562C1.63062 0.0327148 1.46216 -0.000488281 1.29175 0C1.12183 -0.00195312 0.953369 0.0302734 0.796387 0.0957031C0.639648 0.160645 0.497559 0.257324 0.37915 0.379395C0.257324 0.497559 0.160889 0.639648 0.0957031 0.796387C0.0305176 0.953125 -0.00195312 1.12207 0 1.29199C-0.000488281 1.46191 0.0327148 1.63086 0.0979004 1.78809C0.162842 1.94531 0.258545 2.08838 0.37915 2.2085L8.1709 10L0.37915 17.792C0.258545 17.9121 0.162842 18.0547 0.0979004 18.2119C0.0327148 18.3696 -0.000488281 18.5381 0 18.7085C-0.00195312 18.8784 0.0305176 19.0469 0.0957031 19.2036C0.160889 19.3608 0.257324 19.5024 0.37915 19.6211C0.497559 19.7427 0.639648 19.8394 0.796387 19.9043C0.953369 19.9697 1.12183 20.0024 1.29175 20C1.46216 20.0005 1.63062 19.9673 1.78809 19.9023C1.94531 19.8374 2.08838 19.7417 2.2085 19.6211L10 11.8291L17.7917 19.6211C17.9119 19.7417 18.0547 19.8374 18.2122 19.9023C18.3694 19.9673 18.5381 20.0005 18.7085 20C19.0508 19.999 19.3787 19.8628 19.6206 19.6206C19.8625 19.3784 19.999 19.0508 20 18.7085C20.0007 18.5381 19.9675 18.3696 19.9023 18.2119C19.8372 18.0547 19.7417 17.9121 19.6208 17.792L11.8293 10Z" fill="#5969FF" fill-opacity="1.000000" fill-rule="nonzero"/>
</svg>
