<svg width="52" height="48" viewBox="0 0 52 48" fill="none" xmlns="http://www.w3.org/2000/svg">
<path d="M3.18151 2.28812C5.3547 1.0148 8.51329 0.166626 12.0148 0.166626C15.5164 0.166626 18.6776 1.0148 20.8508 2.28812C23.0241 3.56172 24.0322 5.1134 24.0322 6.44478C24.0322 7.77609 23.0241 9.32525 20.8508 10.5985C18.6776 11.8722 15.5164 12.723 12.0148 12.723C8.51329 12.723 5.3547 11.8721 3.18151 10.5985C1.00827 9.32525 0 7.77595 0 6.44478C0 5.11354 1.00827 3.56172 3.18151 2.28812Z" fill="#5969FF"/>
<path d="M0 18.1502V11.8393C0.604618 12.3918 1.28115 12.892 2.01849 13.324C4.66493 14.8746 8.16193 15.7699 12.0148 15.7699C15.8677 15.7699 19.3673 14.8746 22.0137 13.324C22.7511 12.892 23.4275 12.3918 24.0322 11.8393V18.1502C24.0322 19.4814 23.0241 21.0306 20.8508 22.3039C18.6776 23.5773 15.5164 24.4254 12.0148 24.4254C8.51329 24.4254 5.3547 23.5773 3.18151 22.3039C1.00827 21.0305 0 19.4814 0 18.1502Z" fill="#5969FF"/>
<path d="M0 23.5416C0.604736 24.0944 1.28103 24.5943 2.01849 25.0264C4.66493 26.577 8.16193 27.4722 12.0148 27.4722C15.8677 27.4722 19.3673 26.5772 22.0137 25.0264C22.7512 24.5943 23.4275 24.0944 24.0322 23.5416V29.8675C24.0251 31.1955 23.0161 32.7374 20.8508 34.0062C18.6776 35.2797 15.5164 36.1308 12.0148 36.1308C8.51329 36.1308 5.3547 35.2795 3.18151 34.0062C1.01607 32.7375 0.00709068 31.1955 0 29.8675V23.5416Z" fill="#5969FF"/>
<path d="M0 41.5551V35.2471C0.604618 35.7998 1.28115 36.2998 2.01849 36.7319C4.66493 38.2824 8.16193 39.1776 12.0148 39.1776C15.8677 39.1776 19.3673 38.2824 22.0137 36.7319C22.7511 36.2998 23.4275 35.7998 24.0322 35.2471V41.564C24.0257 42.8933 23.0192 44.4411 20.8508 45.7117C18.6776 46.9851 15.5164 47.8332 12.0148 47.8332C8.51329 47.8332 5.3547 46.9851 3.18151 45.7117C1.00827 44.4383 0 42.8864 0 41.5551Z" fill="#5969FF"/>
<path d="M31.1492 13.9936C33.3224 12.7202 36.4836 11.8691 39.9852 11.8691C43.4867 11.8691 46.6453 12.7202 48.8185 13.9936C50.9917 15.267 52 16.8189 52 18.1503C52 19.4815 50.9917 21.0307 48.8185 22.304C46.6453 23.5774 43.4867 24.4255 39.9852 24.4255C36.4836 24.4255 33.3224 23.5774 31.1492 22.304C28.9759 21.0306 27.9678 19.4815 27.9678 18.1503C27.9678 16.8189 28.9759 15.267 31.1492 13.9936Z" fill="#5969FF"/>
<path d="M27.9678 29.8528V23.5417C28.5725 24.0944 29.2488 24.5945 29.9863 25.0265C32.6327 26.5772 36.1323 27.4723 39.9852 27.4723C43.8381 27.4723 47.3351 26.5772 49.9815 25.0265C50.719 24.5945 51.3953 24.0944 52 23.5417V29.8528C52 31.1839 50.9917 32.7332 48.8185 34.0063C46.6453 35.2798 43.4867 36.1309 39.9852 36.1309C36.4836 36.1309 33.3224 35.2798 31.1492 34.0063C28.9759 32.7331 27.9678 31.184 27.9678 29.8528Z" fill="#5969FF"/>
<path d="M27.9678 41.5551V35.2472C28.5725 35.7998 29.2489 36.2998 29.9863 36.7319C32.6327 38.2825 36.1323 39.1777 39.9852 39.1777C43.8381 39.1777 47.3351 38.2825 49.9815 36.7319C50.7188 36.2998 51.3954 35.7998 52 35.2472V41.5551C52 42.8865 50.9917 44.4385 48.8185 45.7118C46.6453 46.9852 43.4867 47.8334 39.9852 47.8334C36.4836 47.8334 33.3224 46.9852 31.1492 45.7118C28.9759 44.4384 27.9678 42.8865 27.9678 41.5551Z" fill="#5969FF"/>
</svg>
