<svg width="52" height="52" viewBox="0 0 52 52" fill="none" xmlns="http://www.w3.org/2000/svg">
<path d="M25.9499 0C11.7144 0 0 11.7144 0 25.9499C0 40.1854 11.7144 51.8998 25.9499 51.8998C40.1854 51.8998 51.8998 40.1854 51.8998 25.9499C51.8828 11.7207 40.1791 0.0169157 25.9499 0ZM15.1489 36.7508C15.4427 37.0434 15.6088 37.4419 15.6088 37.8566C15.6088 38.2714 15.4427 38.6698 15.1489 38.9624C14.8582 39.2575 14.4604 39.4223 14.0463 39.4198C13.6309 39.421 13.2312 39.2562 12.9374 38.9624C5.81147 31.8184 5.81147 20.0814 12.9374 12.9374C13.2243 12.6805 13.5964 12.5389 13.9811 12.5389C14.8407 12.5389 15.5474 13.2456 15.5474 14.1052C15.5474 14.4898 15.4058 14.862 15.1489 15.1489C9.23658 21.0801 9.23658 30.8197 15.1489 36.7508ZM25.9499 24.1393C29.3455 24.1393 32.1084 26.5639 32.1084 29.546C32.1084 32.0521 30.1537 34.1571 27.5161 34.7711V36.4439C27.5161 37.3028 26.8088 38.0101 25.9499 38.0101C25.0909 38.0101 24.3836 37.3028 24.3836 36.4439V34.7711C21.746 34.1446 19.7913 32.0521 19.7913 29.546C19.7913 28.6871 20.4987 27.9798 21.3576 27.9798C22.2165 27.9798 22.9239 28.6871 22.9239 29.546C22.9239 30.799 24.3084 31.8202 25.9499 31.8202C27.5913 31.8202 28.9759 30.7802 28.9759 29.546C28.9759 28.3118 27.5913 27.2718 25.9499 27.2718C22.5542 27.2718 19.7913 24.841 19.7913 21.8588C19.7913 19.3528 21.746 17.2477 24.3836 16.6337V15.4559C24.3836 14.597 25.0909 13.8896 25.9499 13.8896C26.8088 13.8896 27.5161 14.597 27.5161 15.4559V16.6337C30.1537 17.2602 32.1084 19.3528 32.1084 21.8588C32.1084 22.7177 31.4011 23.4251 30.5422 23.4251C29.6832 23.4251 28.9759 22.7177 28.9759 21.8588C28.9759 20.6058 27.5913 19.5846 25.9499 19.5846C24.3084 19.5846 22.9239 20.6246 22.9239 21.8588C22.9239 23.093 24.3084 24.1393 25.9499 24.1393ZM38.9624 38.9624C38.6686 39.2562 38.2689 39.421 37.8535 39.4198C37.4394 39.4223 37.0415 39.2575 36.7508 38.9624C36.457 38.6698 36.291 38.2714 36.291 37.8566C36.291 37.4419 36.457 37.0434 36.7508 36.7508C42.6632 30.8197 42.6632 21.0801 36.7508 15.1489C36.494 14.862 36.3524 14.4898 36.3524 14.1052C36.3524 13.2456 37.0591 12.5389 37.9187 12.5389C38.3033 12.5389 38.6755 12.6805 38.9624 12.9374C46.0883 20.0814 46.0883 31.8184 38.9624 38.9624Z" fill="#5969FF"/>
</svg>
