<svg width="40.000000" height="40.000000" viewBox="0 0 40 40" fill="none" xmlns="http://www.w3.org/2000/svg" xmlns:xlink="http://www.w3.org/1999/xlink">
	<desc>
			Created with Pixso.
	</desc>
	<defs/>
	<rect id="Icon / Contacts / Email" width="40.000000" height="40.000000" fill="#FFFFFF" fill-opacity="0"/>
	<circle id="Ellipse 79" cx="20.000000" cy="20.000000" r="20.000000" fill="#5969FF" fill-opacity="1.000000"/>
	<path id="Vector" d="M15.8203 20.9199C15.8516 20.9463 15.8828 20.9673 15.9062 20.989C16.5859 21.5811 17.2734 22.1724 17.9531 22.7654C18.2891 23.0586 18.6797 23.2854 19.1328 23.4014C20.1328 23.6533 21.0547 23.5129 21.8438 22.9172C22.3125 22.564 22.7344 22.1643 23.1719 21.7842C23.5 21.4993 23.8281 21.2122 24.1484 20.9343L30.9297 26.8208C30.6484 26.9758 30.3203 27.0598 29.9688 27.0769C29.9062 27.0798 29.8438 27.0791 29.7891 27.0791C23.25 27.0791 16.7109 27.0786 10.1797 27.0803C9.76562 27.0803 9.38281 27.0024 9.01562 26.8015C11.2812 24.8406 13.5547 22.8821 15.8203 20.9199ZM14.4609 19.759C12.3047 21.6184 10.1562 23.4724 8 25.3384L8 14.1301C10.1562 16.01 12.3047 17.8809 14.4609 19.759ZM25.5625 19.7385C27.6953 17.8811 29.8359 16.0093 32 14.1262L32 25.3262C29.8594 23.4712 27.7188 21.6084 25.5625 19.7385ZM8.72656 12.4402C9.03125 12.2136 9.375 12.0776 9.76562 12.0264C9.90625 12.0081 10.0469 12.0027 10.1875 12.0027C16.7266 12.0017 23.2656 12.0027 29.8047 12.0002C30.3281 12 30.8047 12.125 31.2109 12.407C31.2266 12.4141 31.2344 12.4209 31.2422 12.4287C31.25 12.4324 31.25 12.4382 31.2578 12.4475C31.2344 12.467 31.2188 12.4878 31.1953 12.5076C27.7031 15.5366 24.2109 18.5657 20.7188 21.5945C20.4297 21.8442 20.0938 21.9338 19.6953 21.8293C19.5312 21.7849 19.3906 21.696 19.2656 21.5891C16.0391 18.7849 12.8047 15.9807 9.57812 13.1768C9.29688 12.9336 9.01562 12.6909 8.72656 12.4402Z" fill="#FFFFFF" fill-opacity="1.000000" fill-rule="nonzero"/>
</svg>
