<svg width="64" height="64" viewBox="0 0 64 64" fill="none" xmlns="http://www.w3.org/2000/svg">
<rect width="64" height="64" rx="32" fill="#5969FF"/>
<path fill-rule="evenodd" clip-rule="evenodd" d="M44.8845 19.8095H45.6638C46.2838 19.8095 46.8783 20.0503 47.3167 20.479C47.7551 20.9076 48.0014 21.489 48.0014 22.0952V28.9524C48.0014 29.5586 47.7551 30.14 47.3167 30.5686C46.8783 30.9973 46.2838 31.2381 45.6638 31.2381H44.8845C44.6779 31.2381 44.4797 31.1578 44.3336 31.0149C44.1874 30.8721 44.1053 30.6783 44.1053 30.4762V28.1905H41.7677V30.4762C41.7677 30.8803 41.6035 31.2679 41.3112 31.5537C41.0189 31.8395 40.6225 32 40.2092 32H33.7814C33.4043 32 33.0396 31.8659 32.756 31.6229L30.6116 29.7882C30.4444 29.6452 30.3104 29.4689 30.2186 29.2711C30.1269 29.0734 30.0794 28.8587 30.0793 28.6415V26.6667H28.5209V28.9524C28.5209 29.1545 28.4388 29.3482 28.2927 29.4911C28.1465 29.634 27.9483 29.7143 27.7417 29.7143H26.9625C26.7558 29.7143 26.5576 29.634 26.4115 29.4911C26.2653 29.3482 26.1832 29.1545 26.1832 28.9524V22.0952C26.1832 21.8932 26.2653 21.6994 26.4115 21.5565C26.5576 21.4136 26.7558 21.3333 26.9625 21.3333H27.7417C27.9483 21.3333 28.1465 21.4136 28.2927 21.5565C28.4388 21.6994 28.5209 21.8932 28.5209 22.0952V24.381H30.0793V21.3333C30.0793 20.9292 30.2435 20.5416 30.5358 20.2558C30.8281 19.9701 31.2245 19.8095 31.6378 19.8095H34.7547V18.2857H31.6378C31.4311 18.2857 31.2329 18.2054 31.0868 18.0626C30.9407 17.9197 30.8586 17.7259 30.8586 17.5238V16.7619C30.8586 16.5598 30.9407 16.366 31.0868 16.2232C31.2329 16.0803 31.4311 16 31.6378 16H40.2092C40.4159 16 40.6141 16.0803 40.7602 16.2232C40.9063 16.366 40.9884 16.5598 40.9884 16.7619V17.5238C40.9884 17.7259 40.9063 17.9197 40.7602 18.0626C40.6141 18.2054 40.4159 18.2857 40.2092 18.2857H37.0923V19.8095H40.2092C40.6225 19.8095 41.0189 19.9701 41.3112 20.2558C41.6035 20.5416 41.7677 20.9292 41.7677 21.3333V22.8571H44.1053V20.5714C44.1053 20.3694 44.1874 20.1756 44.3336 20.0327C44.4797 19.8898 44.6779 19.8095 44.8845 19.8095ZM36.9614 28.6133L38.5199 26.3276C38.5982 26.2129 38.6431 26.0795 38.65 25.9417C38.6568 25.804 38.6253 25.6669 38.5587 25.5453C38.4922 25.4237 38.3931 25.322 38.2721 25.2511C38.1511 25.1803 38.0126 25.1428 37.8716 25.1429H36.3131V22.8571C36.3131 22.8571 35.9032 22.8457 35.6648 23.197L34.1064 25.4827C34.0283 25.5974 33.9835 25.7307 33.9767 25.8684C33.97 26.006 34.0016 26.1429 34.0681 26.2644C34.1346 26.3859 34.2336 26.4875 34.3545 26.5583C34.4754 26.6291 34.6137 26.6666 34.7547 26.6667H36.3131V28.9524C36.3131 28.9524 36.7222 28.9638 36.9614 28.6133Z" fill="white"/>
<path fill-rule="evenodd" clip-rule="evenodd" d="M41.802 40.0652C43.2445 40.1579 45.0395 40.2732 46.5406 40.781C48.4748 41.4351 49.4561 42.6009 49.456 44.2475V47.6497C49.456 47.9819 49.1865 48.2507 48.8542 48.2507H45.3335C45.2008 48.2507 45.0719 48.2069 44.9667 48.126C44.8616 48.0451 44.7862 47.9316 44.7523 47.8034C44.4235 46.5594 43.2937 45.6906 42.0042 45.6906C40.7157 45.6906 39.5842 46.5594 39.2536 47.8042C39.2196 47.9323 39.1441 48.0456 39.039 48.1263C38.9338 48.2071 38.805 48.2508 38.6724 48.2507H24.6557C24.523 48.2507 24.3941 48.2069 24.2889 48.126C24.1838 48.0451 24.1084 47.9316 24.0745 47.8034C23.7456 46.5594 22.6159 45.6906 21.3264 45.6906C20.037 45.6906 18.9072 46.5594 18.5784 47.8034C18.5444 47.9316 18.469 48.0451 18.3639 48.126C18.2588 48.2069 18.1298 48.2507 17.9971 48.2507H15.1478C15.0689 48.2507 14.9907 48.2352 14.9178 48.205C14.8448 48.1749 14.7786 48.1306 14.7228 48.0748C14.6669 48.019 14.6227 47.9527 14.5925 47.8798C14.5623 47.8068 14.5468 47.7287 14.5469 47.6497V42.9624C14.5469 42.0429 15.1221 41.199 15.9788 40.8626C15.984 40.8609 15.9891 40.8591 15.9934 40.8574C17.9391 40.1517 18.6283 38.7839 19.3579 37.3357L19.3604 37.3307C20.2739 35.5141 21.3101 33.4545 25.0472 33.4545H34.7911C36.8841 33.4545 38.85 36.6395 40.6873 39.9834C41.0041 40.0143 41.3792 40.0384 41.7982 40.0649L41.802 40.0652ZM25.892 43.3693H27.3059C27.4652 43.3691 27.618 43.3058 27.7306 43.1931C27.8433 43.0805 27.9067 42.9277 27.9068 42.7684C27.9068 42.4362 27.6373 42.1666 27.3059 42.1666H25.892C25.5598 42.1666 25.291 42.4362 25.291 42.7684C25.2911 42.9278 25.3544 43.0806 25.4671 43.1933C25.5798 43.3059 25.7326 43.3693 25.892 43.3693ZM29.3157 41.0479C29.6479 41.0479 29.9167 40.7783 29.9167 40.4461L29.9166 36.0685C29.9166 35.9895 29.9011 35.9114 29.8709 35.8384C29.8408 35.7655 29.7965 35.6992 29.7407 35.6434C29.6849 35.5876 29.6186 35.5433 29.5457 35.5132C29.4727 35.483 29.3946 35.4675 29.3156 35.4675H25.0472C22.4107 35.4675 21.8012 36.8514 21.1565 38.3177C21.148 38.337 21.1395 38.3562 21.131 38.3756C21.0616 38.5328 20.99 38.695 20.9144 38.8586C20.7058 39.3111 20.4714 39.7327 20.2164 40.1112C20.1558 40.2018 20.1208 40.3071 20.1152 40.4159C20.1096 40.5247 20.1336 40.6331 20.1847 40.7293C20.2361 40.8254 20.3125 40.9058 20.406 40.9619C20.4994 41.018 20.6063 41.0477 20.7152 41.0479H29.3157ZM33.433 43.3693H34.8469C35.0063 43.3693 35.1591 43.306 35.2718 43.1933C35.3845 43.0806 35.4478 42.9278 35.4479 42.7684C35.4479 42.4362 35.1792 42.1666 34.8469 42.1666H33.433C33.1016 42.1666 32.8321 42.4362 32.8321 42.7684C32.8322 42.9277 32.8956 43.0805 33.0082 43.1931C33.1209 43.3058 33.2737 43.3692 33.433 43.3693ZM38.2568 40.9676C38.3479 40.9152 38.4237 40.8399 38.4767 40.7491C38.5295 40.6584 38.5576 40.5554 38.5583 40.4504C38.5589 40.3455 38.532 40.2421 38.4803 40.1508C36.9117 37.3762 35.721 35.8145 34.9432 35.5089C34.8727 35.4815 34.7981 35.4677 34.7234 35.4677H31.6397C31.5607 35.4677 31.4826 35.4832 31.4096 35.5133C31.3367 35.5435 31.2704 35.5878 31.2146 35.6436C31.1588 35.6994 31.1146 35.7657 31.0844 35.8386C31.0542 35.9115 31.0387 35.9897 31.0388 36.0686V40.4461C31.0388 40.7783 31.3074 41.0479 31.6397 41.0479H37.9574C38.0625 41.0477 38.1657 41.02 38.2568 40.9676Z" fill="white"/>
</svg>
