<svg width="171" height="82" viewBox="0 0 171 82" fill="none" xmlns="http://www.w3.org/2000/svg">
<path d="M85.7879 18.0791C52.0544 18.0791 25.0137 28.2495 25.0137 41.0009C25.0137 53.6746 52.2773 63.9236 85.7879 63.9236C119.299 63.9236 146.563 53.6402 146.563 41.0009C146.563 28.3616 119.299 18.0791 85.7879 18.0791Z" fill="#4A4A4A"/>
<path d="M109.726 45.856C109.743 45.961 109.879 46.0616 110.012 46.1092C110.061 46.1256 110.085 46.1584 110.034 46.27C109.656 47.0858 109.308 47.5562 108.833 48.2651C108.397 48.9201 107.905 49.4311 107.31 49.9227C106.413 50.6698 105.166 51.4831 104.135 50.9364C103.678 50.6975 103.48 50.053 103.489 49.5313C103.51 48.0643 104.159 46.5582 105.357 45.0779C106.818 43.2692 108.433 42.3311 109.493 42.8438C110.588 43.3699 110.238 44.6467 109.748 45.6489C109.709 45.7265 109.709 45.7926 109.726 45.856ZM121.491 34.4248C121.57 34.2848 121.487 34.1826 121.311 34.1826C120.396 34.1826 119.194 34.1847 118.24 34.1847C118.013 34.1847 117.895 34.212 117.788 34.4252C117.436 35.104 113.144 41.5742 112.345 42.8307C112.211 43.022 112.046 42.9952 112.027 42.7759C111.946 42.0297 111.305 41.1718 110.296 40.7613C109.526 40.4475 108.775 40.3906 107.992 40.495C106.581 40.6859 105.323 41.4349 104.217 42.2797C102.551 43.554 101.113 45.2057 99.2569 46.4261C98.2436 47.0904 96.856 47.6698 95.9275 46.8049C95.0872 46.0213 95.1822 44.281 96.4679 42.9349C96.6032 42.7938 96.7657 42.913 96.7402 43.0382C96.619 43.6469 96.7673 44.2523 97.2272 44.6768C97.7881 45.1826 98.5909 45.2397 99.2779 44.9021C100.088 44.498 100.565 43.7178 100.704 42.8323C100.919 41.4586 99.8678 40.2471 98.552 40.1499C97.4834 40.0744 96.4587 40.4484 95.4602 41.2773C94.9596 41.695 94.6752 42.0037 94.2423 42.623C94.1368 42.7756 93.9747 42.7908 93.9796 42.5655C94.0286 40.8068 93.3062 39.8174 91.8606 39.7851C90.7386 39.7578 89.54 40.3704 88.6055 41.1197C87.5813 41.947 86.6859 43.0435 85.7257 44.0737C85.6061 44.2006 85.5023 44.1946 85.4686 43.9485C85.4413 42.7832 85.1484 41.6546 84.6123 40.8531C84.4226 40.5743 84.0231 40.4364 83.6877 40.6245C83.5327 40.7098 82.9939 40.9592 82.6014 41.277C82.4068 41.4383 82.3306 41.6718 82.417 41.9711C82.9346 43.7119 82.821 45.6912 82.1186 47.3629C81.4737 48.8941 80.2208 50.2749 78.7479 50.7423C77.7777 51.0518 76.7691 50.9004 76.1449 50.0352C75.2877 48.8411 75.6339 46.7644 76.9117 45.0401C78.0393 43.5217 79.6705 42.5572 81.2974 41.9362C81.4888 41.8618 81.5284 41.7382 81.4741 41.5747C81.3861 41.3057 81.2447 40.9393 81.1876 40.7721C81.0381 40.3724 80.6204 40.3078 80.1102 40.3636C78.928 40.502 77.8616 40.9094 76.8082 41.4767C74.0499 42.9624 72.6668 45.838 72.0609 47.3763C71.7689 48.1153 71.5195 48.5763 71.1969 48.9851C70.7621 49.5348 70.2162 50.0353 69.218 50.917C69.1278 50.998 69.0604 51.1664 69.1365 51.3233C69.2382 51.5354 69.7574 52.2729 69.9038 52.3387C70.0664 52.419 70.255 52.3058 70.3305 52.2522C71.0289 51.776 71.8645 51.0212 72.2734 50.5092C72.417 50.3337 72.5643 50.4075 72.6404 50.6738C73.0221 52.0433 74.0212 53.1614 75.403 53.6292C77.9323 54.4871 80.5555 53.2453 82.5356 51.0835C83.7942 49.7094 84.2482 48.8256 84.7307 48.225C85.5481 47.2062 87.1607 44.9271 89.0813 43.4638C89.7856 42.9242 90.6191 42.5126 91.0382 42.7859C91.3747 43.0052 91.4835 43.5148 90.9437 44.5021C88.9854 48.0989 86.1043 52.3247 85.5759 53.3495C85.4791 53.5272 85.565 53.6671 85.7487 53.6671C86.7735 53.662 87.7892 53.6646 88.7194 53.6646C88.8744 53.6591 88.9435 53.5859 89.0212 53.4759C90.524 51.1098 91.9382 48.8579 93.4541 46.5295C93.5389 46.3923 93.6171 46.4967 93.6204 46.5568C93.653 47.097 93.7835 47.8359 94.1026 48.3211C94.6756 49.218 95.4876 49.6035 96.3882 49.6094C97.1048 49.6203 97.4674 49.5082 98.2401 49.2178C98.8689 48.9833 99.3737 48.6754 99.7614 48.3969C99.9871 48.2383 100.027 48.5035 100.022 48.5439C99.6739 50.4223 100.103 52.648 101.959 53.5708C104.181 54.6724 106.62 53.1241 108.024 51.7263C108.162 51.5918 108.309 51.606 108.323 51.8964C108.356 52.4301 108.593 53.0633 109.032 53.5065C110.208 54.6942 112.582 54.2235 114.965 52.3685C116.496 51.1807 118.096 49.5027 119.542 47.7258C119.596 47.6569 119.635 47.5465 119.531 47.4344C119.311 47.2025 118.993 46.9373 118.774 46.7331C118.675 46.6478 118.529 46.6724 118.445 46.736C116.963 48.1538 115.629 49.7707 113.7 51.1079C113.05 51.5644 112.014 51.9328 111.547 51.2988C111.367 51.0527 111.387 50.7125 111.564 50.2658C112.126 48.8557 121.027 35.2248 121.489 34.4208" fill="#101010"/>
<path d="M79.6153 36.0701C79.6534 36.2724 79.7316 36.3118 79.823 36.2949C80.2763 36.2036 80.7725 35.8284 81.0663 35.3936C81.3337 34.9994 81.4593 34.4305 81.1935 34.2025C80.9565 33.9975 80.5705 34.0554 80.2844 34.3097C79.7147 34.816 79.5418 35.534 79.6153 36.0701ZM56.9291 53.6165C53.6103 53.6384 50.6865 51.5768 50.3509 48.0055C50.1644 46.0265 50.7206 44.2628 51.834 42.8098C52.8219 41.515 54.4936 40.4394 55.9086 40.1766C56.369 40.0919 56.9877 40.1438 57.2435 40.4522C57.6447 40.9219 57.5294 41.4379 57.1282 41.6437C56.0486 42.1981 54.7497 43.1473 54.1069 44.4433C53.5856 45.5011 53.4802 46.7759 54.2765 47.9903C55.6093 50.0143 59.3244 50.07 62.7787 46.8421C63.6342 46.0521 64.3997 45.2931 65.1778 44.394C66.6992 42.6443 67.2053 42.0067 69.2276 39.1851C69.2494 39.1523 69.2603 39.1096 69.2494 39.0888C69.2331 39.0505 69.206 39.0451 69.1456 39.0396C67.7955 39.0779 66.6185 39.482 65.4744 40.342C65.145 40.5837 64.6708 40.5498 64.4632 40.2315C64.2322 39.8717 64.398 39.4034 64.778 39.1389C66.6184 37.8514 68.6289 37.6179 70.682 37.2694C70.6804 37.2694 70.8245 37.2748 70.9419 37.1195C71.7848 36.0315 72.4212 35.0501 73.3196 33.9498C74.2249 32.8334 75.3943 31.8083 76.2878 31.0382C77.5349 29.9596 78.3347 29.5967 79.1474 29.1518C79.3617 29.0392 79.1203 28.9047 79.0551 28.9047C74.517 28.0468 69.8 26.9366 65.2932 28.6148C62.1718 29.7864 60.804 32.2761 61.462 33.9397C61.93 35.1198 63.473 35.3116 64.9175 34.6006C66.1173 34.0093 67.2276 33.0563 68.0147 31.8295C68.4551 31.1482 69.383 31.6398 68.8817 32.8228C67.5628 35.9407 65.0433 38.4139 61.9743 38.5183C59.3624 38.6036 57.6772 36.6709 57.6828 34.2865C57.6936 29.5835 62.8986 26.4856 68.3689 26.0225C74.9566 25.4749 81.1964 27.2399 87.7373 28.038C92.7489 28.6484 97.5537 28.6611 102.591 27.4972C103.187 27.367 103.604 27.7492 103.566 28.3542C103.517 29.2287 102.843 30.0709 101.184 30.981C99.2971 32.0219 97.3231 32.3377 95.2616 32.3547C90.2766 32.3984 85.6331 30.4419 80.8279 29.3917C80.8334 29.6033 80.8889 29.8553 80.7127 29.9889C78.051 31.9636 75.6451 33.969 74.0337 36.7856C73.9794 36.8506 74.0066 36.9124 74.1027 36.9059C75.5019 36.831 76.7599 36.7948 78.0661 36.6899C78.2943 36.668 78.303 36.6133 78.2829 36.446C78.1671 35.4752 78.4492 34.3681 79.2983 33.6066C80.1672 32.8229 81.2552 32.7338 81.9765 33.2982C82.7965 33.9409 82.7238 35.0967 82.2754 35.9636C81.8188 36.8431 81.0647 37.3135 80.341 37.5419C80.341 37.5419 80.1886 37.5747 80.2115 37.7136C80.2387 37.9356 81.2262 38.4853 81.3105 38.6317C81.392 38.7711 81.3486 38.9871 81.2001 39.1528C81.0958 39.2731 80.9322 39.3858 80.7229 39.3819C80.5538 39.3785 80.4511 39.3196 80.2348 39.202C79.7923 38.9609 79.2392 38.5644 78.8704 38.097C78.7448 37.939 78.6806 37.9358 78.3669 37.9533C76.9536 38.0353 74.7498 38.2497 73.2566 38.4372C72.8946 38.481 72.8413 38.5504 72.7668 38.6767C70.3862 42.6253 67.8442 46.8834 65.0535 49.7344C62.06 52.7911 59.5717 53.5959 56.9303 53.6168" fill="#101010"/>
<path d="M85.7874 21.8273C54.7537 21.8273 29.5985 30.4531 29.5985 41.0082C29.5985 51.5641 54.7537 60.1906 85.7874 60.1906C116.821 60.1906 141.975 51.5641 141.975 41.0082C141.975 30.4531 116.821 21.8273 85.7874 21.8273ZM85.7874 61.9289C53.6239 61.9289 27.5508 52.5625 27.5508 41.0082C27.5508 29.4522 53.6239 20.0874 85.7874 20.0874C117.948 20.0874 144.02 29.4522 144.02 41.0082C144.02 52.5625 117.948 61.9289 85.7874 61.9289Z" fill="#101010"/>
<path d="M85.7879 18.0791C52.0544 18.0791 25.0137 28.2495 25.0137 41.0009C25.0137 53.6746 52.2773 63.9236 85.7879 63.9236C119.299 63.9236 146.563 53.6402 146.563 41.0009C146.563 28.3616 119.299 18.0791 85.7879 18.0791Z" fill="#4A4A4A"/>
<path d="M109.726 45.856C109.743 45.961 109.879 46.0616 110.012 46.1092C110.061 46.1256 110.085 46.1584 110.034 46.27C109.656 47.0858 109.308 47.5562 108.833 48.2651C108.397 48.9201 107.905 49.4311 107.31 49.9227C106.413 50.6698 105.166 51.4831 104.135 50.9364C103.678 50.6975 103.48 50.053 103.489 49.5313C103.51 48.0643 104.159 46.5582 105.357 45.0779C106.818 43.2692 108.433 42.3311 109.493 42.8438C110.588 43.3699 110.238 44.6467 109.748 45.6489C109.709 45.7265 109.709 45.7926 109.726 45.856ZM121.491 34.4248C121.57 34.2848 121.487 34.1826 121.311 34.1826C120.396 34.1826 119.194 34.1847 118.24 34.1847C118.013 34.1847 117.895 34.212 117.788 34.4252C117.436 35.104 113.144 41.5742 112.345 42.8307C112.211 43.022 112.046 42.9952 112.027 42.7759C111.946 42.0297 111.305 41.1718 110.296 40.7613C109.526 40.4475 108.775 40.3906 107.992 40.495C106.581 40.6859 105.323 41.4349 104.217 42.2797C102.551 43.554 101.113 45.2057 99.2569 46.4261C98.2436 47.0904 96.856 47.6698 95.9275 46.8049C95.0872 46.0213 95.1822 44.281 96.4679 42.9349C96.6032 42.7938 96.7657 42.913 96.7402 43.0382C96.619 43.6469 96.7673 44.2523 97.2272 44.6768C97.7881 45.1826 98.5909 45.2397 99.2779 44.9021C100.088 44.498 100.565 43.7178 100.704 42.8323C100.919 41.4586 99.8678 40.2471 98.552 40.1499C97.4834 40.0744 96.4587 40.4484 95.4602 41.2773C94.9596 41.695 94.6752 42.0037 94.2423 42.623C94.1368 42.7756 93.9747 42.7908 93.9796 42.5655C94.0286 40.8068 93.3062 39.8174 91.8606 39.7851C90.7386 39.7578 89.54 40.3704 88.6055 41.1197C87.5813 41.947 86.6859 43.0435 85.7257 44.0737C85.6061 44.2006 85.5023 44.1946 85.4686 43.9485C85.4413 42.7832 85.1484 41.6546 84.6123 40.8531C84.4226 40.5743 84.0231 40.4364 83.6877 40.6245C83.5327 40.7098 82.9939 40.9592 82.6014 41.277C82.4068 41.4383 82.3306 41.6718 82.417 41.9711C82.9346 43.7119 82.821 45.6912 82.1186 47.3629C81.4737 48.8941 80.2208 50.2749 78.7479 50.7423C77.7777 51.0518 76.7691 50.9004 76.1449 50.0352C75.2877 48.8411 75.6339 46.7644 76.9117 45.0401C78.0393 43.5217 79.6705 42.5572 81.2974 41.9362C81.4888 41.8618 81.5284 41.7382 81.4741 41.5747C81.3861 41.3057 81.2447 40.9393 81.1876 40.7721C81.0381 40.3724 80.6204 40.3078 80.1102 40.3636C78.928 40.502 77.8616 40.9094 76.8082 41.4767C74.0499 42.9624 72.6668 45.838 72.0609 47.3763C71.7689 48.1153 71.5195 48.5763 71.1969 48.9851C70.7621 49.5348 70.2162 50.0353 69.218 50.917C69.1278 50.998 69.0604 51.1664 69.1365 51.3233C69.2382 51.5354 69.7574 52.2729 69.9038 52.3387C70.0664 52.419 70.255 52.3058 70.3305 52.2522C71.0289 51.776 71.8645 51.0212 72.2734 50.5092C72.417 50.3337 72.5643 50.4075 72.6404 50.6738C73.0221 52.0433 74.0212 53.1614 75.403 53.6292C77.9323 54.4871 80.5555 53.2453 82.5356 51.0835C83.7942 49.7094 84.2482 48.8256 84.7307 48.225C85.5481 47.2062 87.1607 44.9271 89.0813 43.4638C89.7856 42.9242 90.6191 42.5126 91.0382 42.7859C91.3747 43.0052 91.4835 43.5148 90.9437 44.5021C88.9854 48.0989 86.1043 52.3247 85.5759 53.3495C85.4791 53.5272 85.565 53.6671 85.7487 53.6671C86.7735 53.662 87.7892 53.6646 88.7194 53.6646C88.8744 53.6591 88.9435 53.5859 89.0212 53.4759C90.524 51.1098 91.9382 48.8579 93.4541 46.5295C93.5389 46.3923 93.6171 46.4967 93.6204 46.5568C93.653 47.097 93.7835 47.8359 94.1026 48.3211C94.6756 49.218 95.4876 49.6035 96.3882 49.6094C97.1048 49.6203 97.4674 49.5082 98.2401 49.2178C98.8689 48.9833 99.3737 48.6754 99.7614 48.3969C99.9871 48.2383 100.027 48.5035 100.022 48.5439C99.6739 50.4223 100.103 52.648 101.959 53.5708C104.181 54.6724 106.62 53.1241 108.024 51.7263C108.162 51.5918 108.309 51.606 108.323 51.8964C108.356 52.4301 108.593 53.0633 109.032 53.5065C110.208 54.6942 112.582 54.2235 114.965 52.3685C116.496 51.1807 118.096 49.5027 119.542 47.7258C119.596 47.6569 119.635 47.5465 119.531 47.4344C119.311 47.2025 118.993 46.9373 118.774 46.7331C118.675 46.6478 118.529 46.6724 118.445 46.736C116.963 48.1538 115.629 49.7707 113.7 51.1079C113.05 51.5644 112.014 51.9328 111.547 51.2988C111.367 51.0527 111.387 50.7125 111.564 50.2658C112.126 48.8557 121.027 35.2248 121.489 34.4208" fill="#EFEFEF"/>
<path d="M79.6153 36.0701C79.6534 36.2724 79.7316 36.3118 79.823 36.2949C80.2763 36.2036 80.7725 35.8284 81.0663 35.3936C81.3337 34.9994 81.4593 34.4305 81.1935 34.2025C80.9565 33.9975 80.5705 34.0554 80.2844 34.3097C79.7147 34.816 79.5418 35.534 79.6153 36.0701ZM56.9291 53.6165C53.6103 53.6384 50.6865 51.5768 50.3509 48.0055C50.1644 46.0265 50.7206 44.2628 51.834 42.8098C52.8219 41.515 54.4936 40.4394 55.9086 40.1766C56.369 40.0919 56.9877 40.1438 57.2435 40.4522C57.6447 40.9219 57.5294 41.4379 57.1282 41.6437C56.0486 42.1981 54.7497 43.1473 54.1069 44.4433C53.5856 45.5011 53.4802 46.7759 54.2765 47.9903C55.6093 50.0143 59.3244 50.07 62.7787 46.8421C63.6342 46.0521 64.3997 45.2931 65.1778 44.394C66.6992 42.6443 67.2053 42.0067 69.2276 39.1851C69.2494 39.1523 69.2603 39.1096 69.2494 39.0888C69.2331 39.0505 69.206 39.0451 69.1456 39.0396C67.7955 39.0779 66.6185 39.482 65.4744 40.342C65.145 40.5837 64.6708 40.5498 64.4632 40.2315C64.2322 39.8717 64.398 39.4034 64.778 39.1389C66.6184 37.8514 68.6289 37.6179 70.682 37.2694C70.6804 37.2694 70.8245 37.2748 70.9419 37.1195C71.7848 36.0315 72.4212 35.0501 73.3196 33.9498C74.2249 32.8334 75.3943 31.8083 76.2878 31.0382C77.5349 29.9596 78.3347 29.5967 79.1474 29.1518C79.3617 29.0392 79.1203 28.9047 79.0551 28.9047C74.517 28.0468 69.8 26.9366 65.2932 28.6148C62.1718 29.7864 60.804 32.2761 61.462 33.9397C61.93 35.1198 63.473 35.3116 64.9175 34.6006C66.1173 34.0093 67.2276 33.0563 68.0147 31.8295C68.4551 31.1482 69.383 31.6398 68.8817 32.8228C67.5628 35.9407 65.0433 38.4139 61.9743 38.5183C59.3624 38.6036 57.6772 36.6709 57.6828 34.2865C57.6936 29.5835 62.8986 26.4856 68.3689 26.0225C74.9566 25.4749 81.1964 27.2399 87.7373 28.038C92.7489 28.6484 97.5537 28.6611 102.591 27.4972C103.187 27.367 103.604 27.7492 103.566 28.3542C103.517 29.2287 102.843 30.0709 101.184 30.981C99.2971 32.0219 97.3231 32.3377 95.2616 32.3547C90.2766 32.3984 85.6331 30.4419 80.8279 29.3917C80.8334 29.6033 80.8889 29.8553 80.7127 29.9889C78.051 31.9636 75.6451 33.969 74.0337 36.7856C73.9794 36.8506 74.0066 36.9124 74.1027 36.9059C75.5019 36.831 76.7599 36.7948 78.0661 36.6899C78.2943 36.668 78.303 36.6133 78.2829 36.446C78.1671 35.4752 78.4492 34.3681 79.2983 33.6066C80.1672 32.8229 81.2552 32.7338 81.9765 33.2982C82.7965 33.9409 82.7238 35.0967 82.2754 35.9636C81.8188 36.8431 81.0647 37.3135 80.341 37.5419C80.341 37.5419 80.1886 37.5747 80.2115 37.7136C80.2387 37.9356 81.2262 38.4853 81.3105 38.6317C81.392 38.7711 81.3486 38.9871 81.2001 39.1528C81.0958 39.2731 80.9322 39.3858 80.7229 39.3819C80.5538 39.3785 80.4511 39.3196 80.2348 39.202C79.7923 38.9609 79.2392 38.5644 78.8704 38.097C78.7448 37.939 78.6806 37.9358 78.3669 37.9533C76.9536 38.0353 74.7498 38.2497 73.2566 38.4372C72.8946 38.481 72.8413 38.5504 72.7668 38.6767C70.3862 42.6253 67.8442 46.8834 65.0535 49.7344C62.06 52.7911 59.5717 53.5959 56.9303 53.6168" fill="#EFEFEF"/>
<path d="M85.7874 21.8273C54.7537 21.8273 29.5985 30.4531 29.5985 41.0082C29.5985 51.5641 54.7537 60.1906 85.7874 60.1906C116.821 60.1906 141.975 51.5641 141.975 41.0082C141.975 30.4531 116.821 21.8273 85.7874 21.8273ZM85.7874 61.9289C53.6239 61.9289 27.5508 52.5625 27.5508 41.0082C27.5508 29.4522 53.6239 20.0874 85.7874 20.0874C117.948 20.0874 144.02 29.4522 144.02 41.0082C144.02 52.5625 117.948 61.9289 85.7874 61.9289Z" fill="#EFEFEF"/>
</svg>
