<svg width="127" height="60" viewBox="0 0 127 60" fill="none" xmlns="http://www.w3.org/2000/svg">
<path fill-rule="evenodd" clip-rule="evenodd" d="M0.179688 44.1854H5.07189V49.6051H13.8114V44.1854H18.6425V59.396H13.8114V52.9917H5.00929V59.3352H0.179688V44.1854ZM19.1919 44.1854H23.9589L28.9719 50.0362L33.9238 44.1854H38.6305L31.3558 53.4844V59.396H26.5269V53.0532L19.1919 44.1854ZM39.2417 44.1854H44.0714V55.9479H51.8343C53.0568 55.9479 53.8515 54.7183 53.8515 53.4235V44.1854H58.6796V56.3181C58.6796 58.2266 56.541 59.3352 55.3177 59.3352H39.2417V44.1854ZM59.7188 44.1854H75.7969C77.6918 44.1854 79.22 45.3541 79.22 47.7277V59.3656L74.3911 59.396V50.1586C74.3911 48.8675 73.9625 48.0973 72.3121 48.0973H65.0381V59.4301H59.7188V44.1854ZM80.688 44.1854H94.746C97.559 44.1854 99.729 46.4634 99.729 48.2183V55.2088C99.698 56.4398 97.986 59.3953 95.848 59.3953H80.688V44.1854ZM85.608 56.0102H93.028C94.096 56.0102 94.923 55.2095 94.923 54.2227V49.7891C94.923 48.711 94.043 48.0668 92.914 48.0668H85.608V56.0102ZM105.69 44.1209H120.758V59.396H115.377V55.4566H106.116V59.396H100.676V49.4797C100.553 46.1554 103.489 44.1209 105.69 44.1209ZM106.055 49.5449V52.0055H115.347V48.1241H107.521C106.606 48.1248 106.055 48.6805 106.055 49.5449ZM121.735 44.1549H126.564V59.8583H121.735V44.1549ZM63.6661 0.144531C43.627 0.144531 27.3812 8.22633 27.3812 18.1926C27.3812 28.1596 43.627 36.242 63.6661 36.242C83.704 36.242 99.95 28.1603 99.95 18.1926C99.949 8.22703 83.703 0.144531 63.6661 0.144531ZM60.2236 4.16153C64.365 2.68633 76.6692 4.16153 81.449 6.47433C82.978 7.95243 74.6284 12.7011 64.6865 14.7596C50.4723 17.6477 57.2277 6.60183 60.2236 4.16153ZM35.813 25.5468C32.6884 23.3021 26.5701 16.8782 36.7054 10.2C42.0593 7.05393 45.0544 6.34533 48.7507 5.57583C50.5363 5.18893 51.8106 5.63963 50.217 6.98873C46.8393 10.5209 39.8278 22.2066 39.1914 24.7773C38.6801 26.5127 37.6611 26.9597 35.813 25.5468ZM65.0029 32.9982C59.0126 33.6387 45.6923 31.6491 45.4363 29.9174C45.6923 25.7403 66.5972 18.8048 70.3568 22.658C71.9518 25.6758 68.8926 32.8047 65.0029 32.9982ZM95.471 20.8575C93.94 24.3904 88.778 28.3741 77.9435 31.0716C76.2845 31.4542 75.7114 30.4282 76.7944 29.4645C78.581 28.3733 87.185 13.8604 88.268 10.9687C88.906 9.49063 90.116 10.071 90.882 10.6477C94.324 12.8946 96.937 16.5558 95.471 20.8575Z" fill="#4A4A4A"/>
</svg>
