<svg width="53" height="52" viewBox="0 0 53 52" fill="none" xmlns="http://www.w3.org/2000/svg">
<path d="M44.089 36.3408L47.1141 37.0389L47.9674 40.1416L50.9925 40.8397L51.0701 40.9173C53.5523 43.3995 53.6298 47.5106 51.0701 50.0703C48.5879 52.5525 44.4768 52.6301 41.9171 50.0703L41.8395 49.9928L41.1414 46.9676L38.0387 46.1144L37.3406 43.0892L34.3154 42.3911L33.6949 39.5211L30.5921 38.6678L25.9381 34.0913L35.0911 24.9383L39.6676 29.5924L40.5209 32.6951L43.3909 33.3156L44.089 36.3408Z" fill="#5969FF"/>
<path d="M23.3008 32.6952C21.0514 35.0222 17.3281 34.9447 15.0786 32.6952L4.99477 22.6113C4.9172 22.6113 4.83963 22.5338 4.76207 22.4562C-0.357421 17.3367 -0.279856 8.95936 4.83964 3.83987C9.95912 -1.27962 18.3365 -1.20205 23.456 3.91744L23.5335 3.99501L23.6111 3.99501L33.6949 14.1564C36.022 16.4059 35.9444 20.1292 33.6949 22.3786L31.7557 24.3178L24.8522 31.1438L23.3008 32.6952Z" fill="#5969FF"/>
</svg>
