<svg width="127" height="64" viewBox="0 0 127 64" fill="none" xmlns="http://www.w3.org/2000/svg">
<path d="M59.9091 63.7136C55.7467 63.6032 51.1565 63.2348 47.0934 62.6849C29.7944 60.344 15.2985 54.3774 7.22861 46.2765C3.80652 42.8412 1.63791 39.0668 0.906682 35.2731C0.668475 34.0376 0.612305 33.4323 0.612305 32.0993C0.612305 30.7664 0.668475 30.161 0.906682 28.9256C1.38737 26.4318 2.52909 23.8604 4.21374 21.4774C8.02356 16.0882 14.7088 11.2902 23.4803 7.64969C38.0999 1.58209 57.2424 -0.821403 75.883 1.07019C97.7651 3.29069 115.767 11.3227 122.91 22.0529C126.175 26.9584 126.975 32.2865 125.228 37.4938C124.219 40.5009 122.259 43.5061 119.499 46.2765C111.853 53.952 98.3964 59.74 82.2448 62.3006C75.0218 63.4459 67.5747 63.917 59.9091 63.7136ZM69.4524 59.6637C78.2114 59.1183 85.6072 57.8234 92.815 55.5733C98.5336 53.788 103.864 51.3164 107.956 48.5527C110.019 47.16 111.449 45.9846 113.068 44.3535C114.989 42.4165 116.229 40.7169 117.238 38.6364C118.368 36.309 118.805 34.4844 118.805 32.0993C118.805 29.7004 118.34 27.7786 117.195 25.4591C116.206 23.4533 114.945 21.7372 113.068 19.8452C110.312 17.0665 107.037 14.775 102.709 12.5961C94.6085 8.51699 84.4728 5.84829 73.1808 4.82139C66.9267 4.25259 59.8212 4.25229 53.5468 4.82069C37.672 6.25849 24.0447 10.9984 15.6131 18.0149C14.5435 18.9049 12.637 20.841 11.8379 21.8486C8.98057 25.4515 7.63166 29.3389 7.93906 33.0848C8.2739 37.166 10.101 40.7647 13.6604 44.3535C16.3565 47.072 19.5622 49.3315 23.7311 51.4519C33.2245 56.2802 44.8896 59.0473 58.6092 59.7255C60.1588 59.8021 67.9423 59.7578 69.4524 59.6637ZM24.9512 48.1025C24.8759 48.0711 24.7527 47.9765 24.6775 47.8923C24.5417 47.7405 24.5406 47.6299 24.5231 33.0071L24.5056 18.2749L24.3243 18.0847C24.153 17.9048 24.1056 17.8934 23.4525 17.8749L22.762 17.8554V16.9265V15.9975L27.7331 15.9799L32.7042 15.9622L32.9152 16.1408L33.1263 16.3194V21.6308C33.1263 27.4665 33.1107 27.2481 33.5278 27.2481C33.7867 27.2481 33.8764 27.1396 35.3185 25.0806C39.1388 19.6262 41.2403 16.6596 41.4299 16.4536C41.897 15.946 41.6852 15.9663 46.5208 15.9646L50.8509 15.9631L51.016 16.1292C51.219 16.3333 51.2954 16.612 51.203 16.8111C51.1445 16.9374 49.271 19.7356 42.7286 29.4683C42.0144 30.5308 41.8149 30.877 41.8166 31.0509C41.8185 31.2313 42.2831 31.9326 44.2667 34.7485C53.0328 47.1927 53.0609 47.2332 53.0879 47.4847C53.1083 47.6738 53.0744 47.7787 52.9433 47.932L52.7721 48.1322L48.2499 48.1509C43.7912 48.1693 43.7231 48.1675 43.3948 48.0255C43.2117 47.9462 42.9856 47.7985 42.8923 47.6972C42.7989 47.5958 40.7376 44.7106 38.3114 41.2856C35.8853 37.8605 33.8511 35.0172 33.7911 34.9672C33.6224 34.8267 33.3139 34.8937 33.2144 35.0926C33.147 35.227 33.1281 36.6291 33.1273 41.5054L33.1262 47.7461L32.961 47.9392L32.796 48.1322L28.9419 48.1459C26.8221 48.1535 25.0263 48.134 24.9512 48.1025ZM59.2917 48.0715C59.1779 48.0212 59.0471 47.8967 59.0009 47.7948C58.9356 47.6506 58.9171 44.3768 58.9171 32.9509V18.2921L58.7172 18.091C58.524 17.8967 58.4949 17.8899 57.862 17.8899H57.2068V16.9265V15.9632H62.2681H67.3295L67.5529 16.164L67.7763 16.3647V32.0577V47.7507L67.5867 47.9415L67.397 48.1323L63.4478 48.1477C60.2845 48.16 59.4575 48.1447 59.2917 48.0715ZM74.0017 48.0836C73.7893 47.961 73.6984 47.8078 73.696 47.5679C73.6949 47.4467 74.666 44.4276 75.8542 40.8588C77.0423 37.29 78.9322 31.6142 80.0536 28.2459C81.1751 24.8776 82.3572 21.3348 82.6823 20.3729C83.0064 19.411 83.2718 18.5396 83.2718 18.4366C83.2718 18.3335 83.2132 18.1761 83.1406 18.0867C83.0243 17.9411 82.9408 17.9207 82.3373 17.8899L81.6642 17.8555L81.6443 16.9093L81.6254 15.9632L87.6989 15.9639C91.6856 15.9639 93.8599 15.9889 94.0279 16.0358C94.1691 16.075 94.3182 16.171 94.359 16.249C94.4455 16.4098 95.1265 18.435 98.3357 28.0743C103.558 43.7557 104.752 47.375 104.752 47.5229C104.752 47.7653 104.617 48.0067 104.434 48.0907C104.318 48.1437 103.104 48.167 100.456 48.167C96.9637 48.1669 96.6257 48.1568 96.411 48.0466C96.2817 47.9804 96.1197 47.8484 96.0511 47.7533C95.9815 47.6582 95.4506 46.0945 94.872 44.2784C89.3493 26.9669 89.5024 27.4393 89.3781 27.3002C89.2409 27.1464 89.1365 27.1479 88.9943 27.3054C88.882 27.4308 88.6693 28.089 85.6668 37.6046C84.7949 40.3673 83.8554 43.34 83.578 44.2104C83.3016 45.0809 82.9467 46.2033 82.7896 46.7048C82.4814 47.6907 82.3452 47.9258 81.9963 48.0722C81.696 48.1985 74.2195 48.2092 74.0017 48.0836Z" fill="#4A4A4A"/>
</svg>
