<svg width="71" height="26" viewBox="0 0 71 26" fill="none" xmlns="http://www.w3.org/2000/svg">
<path fill-rule="evenodd" clip-rule="evenodd" d="M71 0H0V26H71V0ZM1.40103 1.50222V24.4977H69.5989V1.50222H1.40103Z" fill="white"/>
<path d="M27.8649 8.36279L24.4414 17.621H25.903L28.3596 10.8039L29.6244 14.324L30.0854 15.632L30.8049 17.621H32.2665L28.8543 8.36279H27.8649Z" fill="white"/>
<path d="M42.5531 17.6187L45.9766 8.3604H44.515L42.0584 15.1775L40.7935 11.6574L40.3326 10.3495L39.613 8.3604L38.1514 8.3604L41.5637 17.6187H42.5531Z" fill="white"/>
<path d="M55.2672 8.36328L51.8438 17.6215H53.3053L55.7619 10.8044L57.0268 14.3245L57.4877 15.6325L58.2073 17.6215H59.6689L56.2566 8.36328H55.2672Z" fill="white"/>
<path d="M13.125 8.37109V17.6294H18.5554V16.3214H14.5529V8.37109H13.125Z" fill="white"/>
</svg>
