<svg width="120" height="54" viewBox="0 0 120 54" fill="none" xmlns="http://www.w3.org/2000/svg">
<path fill-rule="evenodd" clip-rule="evenodd" d="M61.1399 2.76905C58.6948 5.79433 51.7207 15.5614 50.9259 16.826C49.3958 19.2491 49.2606 20.4233 49.2155 21.2057C49.1711 21.9736 49.1711 23.3582 50.4159 24.4872C52.5012 26.3533 55.4256 26.0519 58.0209 26.0519H79.396C80.3109 26.0519 80.5813 25.7806 81.0763 25.1188C82.786 22.4998 83.5515 19.6554 83.5515 17.1117C83.5515 11.6633 80.0269 4.80097 71.1013 1.70034L70.0955 3.14516C77.1755 6.51571 80.1013 10.9255 80.1013 17.0959C80.1463 18.7518 79.7107 20.5425 78.6305 22.1983H57.84C56.5952 22.1983 56.415 20.7837 56.8649 19.9856C58.6473 16.8029 60.6365 13.7413 62.8196 10.8207C64.9199 8.00642 66.9895 5.37232 69.1649 2.61834C69.75 1.85106 69.3595 1.11324 68.1898 0.872779C65.7598 0.361031 63.2252 0 60.1499 0C43.0956 0 36.8548 9.82733 36.8548 17.1117C36.8548 25.0133 43.14 34.1789 60.1949 34.1789C69.6599 34.1789 75.8556 31.1228 79.4403 27.1952H75.8249C72.6895 30.0999 67.3043 32.1627 60.1949 32.1627C45.7496 32.1627 40.4252 24.0199 40.4252 17.0062C40.5296 10.7453 46.2447 2.10659 60.5555 1.82092C61.0956 1.80585 61.5162 2.30252 61.1399 2.76905ZM112.441 47.8734C113.296 47.994 113.956 48.6708 113.956 49.4696C113.956 50.3712 113.146 51.0939 112.155 51.0939H93.8262V39.0689H88.4253V51.1248H78.4953C75.8106 51.1248 75.2561 49.484 75.2561 47.9789V38.9942H66.3012C65.4156 39.5964 64.5608 40.2589 63.6458 40.8151L58.3357 44.0959L51.436 39.0394H40.6955V42.0647H44.58V40.4082L53.7152 46.9862L47.4751 50.9131H40.6949V53.9383H48.5396C49.3794 53.367 50.1749 52.7648 51.0447 52.238L56.5044 48.912L63.4341 53.8787H71.3253L60.8989 46.0073L66.2548 42.5018C67.3951 41.7482 68.5954 41.1172 69.7651 40.4253V48.3413C69.7651 51.6824 70.6199 54 77.325 54L115.201 53.9102C118.125 53.9541 120 51.9235 120 49.471C120 47.0315 117.84 45.0304 115.201 45.0304H101.521C101.701 43.3602 103.14 41.9613 104.595 41.9613H118.44L118.396 39.0566H103.71C99.0599 39.0566 95.3407 42.9245 95.2355 47.4247C95.2212 47.7405 95.4301 47.9358 95.7756 47.9358L112.441 47.8734ZM40.6955 47.8289V44.7433H43.3653V47.8289H40.6955ZM40.6955 39.0394H30.5553C27.8104 39.0394 25.6951 39.7622 24.1356 40.9953C21.3307 43.2232 20.4307 45.5702 20.4608 46.6245H24.1206C22.5153 47.8289 21.4351 49.2723 20.8657 50.9439H8.86479C6.70509 50.9439 5.30945 49.4093 5.30945 47.9186V38.9339H0V48.2653C0 51.6208 3.18048 53.9383 8.27963 53.9383H40.6955V50.9131H27.8255C27.8855 49.3785 29.5202 47.8289 31.0052 47.8289H40.6955V44.7433H27.6752C27.4957 43.8404 29.1754 42.0647 30.4652 42.0647H40.6955V39.0394Z" fill="#4A4A4A"/>
</svg>
