<svg width="52" height="50" viewBox="0 0 52 50" fill="none" xmlns="http://www.w3.org/2000/svg">
<path d="M3.79173 48.8341H9.20849C11.2994 48.8341 13.0002 47.1333 13.0002 45.0424V20.1253C13.0002 18.0345 11.2994 16.3336 9.20849 16.3336H3.79173C1.70086 16.3336 0 18.0345 0 20.1253V45.0424C0 47.1333 1.70086 48.8341 3.79173 48.8341ZM27.6926 0.625C25.5259 0.625 24.4426 1.70835 24.4426 7.12511C24.4426 12.2732 19.457 16.4159 16.2503 18.5501V45.3912C19.7192 46.9968 26.6634 49.3758 37.4428 49.3758H40.9095C45.1346 49.3758 48.7313 46.3424 49.4463 42.1824L51.873 28.0988C52.0884 26.8545 52.0292 25.5782 51.6995 24.3593C51.3698 23.1403 50.7775 22.0082 49.9643 21.0422C49.151 20.0761 48.1364 19.2996 46.9915 18.767C45.8465 18.2343 44.599 17.9584 43.3362 17.9586H33.1094C33.1094 17.9586 34.7344 14.7086 34.7344 9.29181C34.7344 2.7917 29.8593 0.625 27.6926 0.625Z" fill="#5969FF"/>
</svg>
