<svg width="40.000000" height="40.000000" viewBox="0 0 40 40" fill="none" xmlns="http://www.w3.org/2000/svg" xmlns:xlink="http://www.w3.org/1999/xlink">
	<desc>
			Created with Pixso.
	</desc>
	<defs/>
	<rect id="Icon / Contacts / Location" width="40.000000" height="40.000000" fill="#FFFFFF" fill-opacity="0"/>
	<circle id="Ellipse 79" cx="20.000000" cy="20.000000" r="20.000000" fill="#5969FF" fill-opacity="1.000000"/>
	<path id="Vector" d="M12.1484 22.428L12.1953 22.4983C12.25 22.584 12.3125 22.6658 12.3672 22.7515L19.125 32.4951C19.3203 32.7788 19.6484 32.9485 19.9922 32.9485C20.3359 32.9485 20.6562 32.7788 20.8516 32.4951L27.6016 22.7671C27.6641 22.6775 27.7266 22.5879 27.7891 22.4944L27.8359 22.4319C28.8125 20.9189 29.3281 19.1553 29.3281 17.3535C29.3281 12.2222 25.1172 7.99976 20 7.99976C14.875 7.99976 10.6641 12.2222 10.6641 17.3535C10.6641 19.1553 11.1797 20.9189 12.1562 22.4319L12.1484 22.428ZM19.9922 13.4639C22.125 13.4639 23.8828 15.2231 23.8828 17.3613C23.8828 19.4995 22.125 21.2588 19.9922 21.2588C17.8594 21.2588 16.1016 19.4995 16.1016 17.3613C16.1016 15.2231 17.8594 13.4639 19.9922 13.4639Z" fill="#FFFFFF" fill-opacity="1.000000" fill-rule="nonzero"/>
</svg>
