<svg width="34" height="40" viewBox="0 0 34 40" fill="none" xmlns="http://www.w3.org/2000/svg">
<path fill-rule="evenodd" clip-rule="evenodd" d="M28.9335 40H5.06589C2.50439 40 0.407227 38.2014 0.407227 36.0034V16.3265C0.407227 14.2312 2.31239 12.4985 4.71009 12.3414C3.76036 5.77201 9.19214 -0.0879542 17.1638 0.000999795C24.9801 0.0879988 30.2287 5.83066 29.2884 12.3417C31.6867 12.4983 33.5924 14.2314 33.5924 16.3267V36.0034C33.5924 38.2006 31.4952 40 28.9335 40ZM8.63751 12.3299H25.3584C26.2461 7.67548 22.9889 3.46703 17.264 3.31649C11.3161 3.15984 7.71597 7.48218 8.63751 12.3299ZM18.5018 31.2903C20.015 31.0794 20.7713 30.4235 20.7713 29.3187V28.0049C20.7713 27.6024 20.6126 27.2363 20.2995 26.9101C19.9825 26.5858 19.0783 25.913 17.5797 24.8964C16.8379 24.3734 16.4667 23.924 16.4667 23.5462L16.4057 22.8756C16.4057 22.4753 16.5926 22.274 16.9638 22.274C17.2843 22.274 17.4426 22.3773 17.4426 22.5838V23.8047H20.4685V22.6992C20.4685 21.7762 19.813 21.2011 18.5018 20.9778V20.273H15.4762V20.9778C13.9778 21.194 13.2287 21.8299 13.2287 22.8832V24.0423C13.2287 24.5161 13.5924 25.0345 14.3163 25.5943C15.8363 26.6158 16.737 27.2564 17.0179 27.5193C17.3028 27.7796 17.4429 28.0398 17.4429 28.2999V29.523C17.4429 29.7586 17.2484 29.8766 16.8595 29.8766C16.4562 29.8766 16.2545 29.7586 16.2545 29.523V27.8299H13.2287V29.5051C13.2287 30.4159 13.9778 31.0029 15.4762 31.2608V31.9655H18.502L18.5018 31.2903Z" fill="#5969FF"/>
</svg>
