<svg width="204" height="70" viewBox="0 0 204 70" fill="none" xmlns="http://www.w3.org/2000/svg">
<path d="M83.2412 36L91.6451 13.0394C92.1203 11.7889 92.8956 10.8509 93.9711 10.2257C95.0716 9.57535 96.3097 9.2502 97.6854 9.2502C99.061 9.2502 100.287 9.56285 101.362 10.1881C102.463 10.8134 103.25 11.7514 103.726 13.0019L112.129 36H103.538L102.112 31.4229H93.1458L91.6451 36H83.2412ZM94.834 25.2326H100.424L97.9855 16.7912C97.9605 16.7161 97.923 16.6661 97.8729 16.6411C97.8229 16.5911 97.7604 16.5661 97.6854 16.5661C97.6353 16.5661 97.5853 16.5911 97.5353 16.6411C97.4853 16.6661 97.4477 16.7161 97.4227 16.7912L94.834 25.2326ZM124.395 36C122.719 36 121.231 35.6498 119.93 34.9495C118.63 34.2242 117.604 33.2487 116.854 32.0232C116.103 30.7726 115.728 29.3594 115.728 27.7837V16.0783H108.938V9.73793H130.472V16.0783H123.832V28.1964C123.832 28.5966 123.97 28.9468 124.245 29.2469C124.52 29.522 124.857 29.6596 125.258 29.6596H127.771V36H124.395ZM145.076 36.4877C143 36.4877 141.086 36.1501 139.336 35.4748C137.61 34.7994 136.109 33.849 134.834 32.6234C133.583 31.3729 132.608 29.9222 131.907 28.2714C131.207 26.6207 130.857 24.8199 130.857 22.869C130.857 20.9181 131.207 19.1172 131.907 17.4665C132.608 15.7907 133.583 14.34 134.834 13.1145C136.109 11.8889 137.61 10.9385 139.336 10.2632C141.086 9.58786 143 9.2502 145.076 9.2502C147.152 9.2502 149.053 9.58786 150.778 10.2632C152.529 10.9385 154.03 11.8889 155.28 13.1145C156.556 14.34 157.544 15.7907 158.244 17.4665C158.945 19.1172 159.295 20.9181 159.295 22.869C159.295 24.8199 158.945 26.6207 158.244 28.2714C157.544 29.9222 156.556 31.3729 155.28 32.6234C154.03 33.849 152.529 34.7994 150.778 35.4748C149.053 36.1501 147.152 36.4877 145.076 36.4877ZM145.076 29.9597C146.001 29.9597 146.839 29.7846 147.589 29.4345C148.34 29.0593 148.978 28.5466 149.503 27.8963C150.028 27.246 150.428 26.4956 150.703 25.6452C150.978 24.7698 151.116 23.8444 151.116 22.869C151.116 21.8935 150.978 20.9806 150.703 20.1302C150.428 19.2548 150.028 18.492 149.503 17.8417C148.978 17.1914 148.34 16.6911 147.589 16.341C146.839 15.9658 146.001 15.7782 145.076 15.7782C144.15 15.7782 143.312 15.9658 142.562 16.341C141.812 16.6911 141.174 17.1914 140.649 17.8417C140.124 18.492 139.723 19.2548 139.448 20.1302C139.173 20.9806 139.036 21.8935 139.036 22.869C139.036 23.8444 139.173 24.7698 139.448 25.6452C139.723 26.4956 140.124 27.246 140.649 27.8963C141.174 28.5466 141.812 29.0593 142.562 29.4345C143.312 29.7846 144.15 29.9597 145.076 29.9597ZM181.902 36.4877C180.301 36.4877 178.788 36.1626 177.362 35.5123C175.961 34.862 174.823 33.899 173.948 32.6234C173.073 31.3479 172.635 29.7846 172.635 27.9338V17.7666C172.635 17.4415 172.56 17.1663 172.41 16.9412C172.285 16.6911 172.11 16.5035 171.884 16.3785C171.659 16.2534 171.397 16.1909 171.097 16.1909C170.796 16.1909 170.521 16.2534 170.271 16.3785C170.046 16.5035 169.859 16.6911 169.708 16.9412C169.583 17.1663 169.521 17.4415 169.521 17.7666V36H161.792V17.8417C161.792 16.0158 162.218 14.4651 163.068 13.1895C163.943 11.9139 165.094 10.9385 166.52 10.2632C167.945 9.58786 169.471 9.2502 171.097 9.2502C172.722 9.2502 174.236 9.58786 175.636 10.2632C177.037 10.9385 178.175 11.9139 179.05 13.1895C179.926 14.4651 180.363 16.0158 180.363 17.8417V28.0088C180.363 28.334 180.438 28.6216 180.588 28.8717C180.739 29.0968 180.926 29.2719 181.151 29.397C181.376 29.522 181.614 29.5846 181.864 29.5846C182.139 29.5846 182.402 29.522 182.652 29.397C182.902 29.2719 183.102 29.0968 183.252 28.8717C183.402 28.6216 183.477 28.334 183.477 28.0088V17.8417C183.477 16.0158 183.915 14.4651 184.79 13.1895C185.666 11.9139 186.804 10.9385 188.204 10.2632C189.63 9.58786 191.143 9.2502 192.744 9.2502C194.345 9.2502 195.846 9.58786 197.246 10.2632C198.647 10.9385 199.785 11.9139 200.66 13.1895C201.536 14.4651 201.973 16.0158 201.973 17.8417V36H194.282V17.6541C194.282 17.3539 194.207 17.1038 194.057 16.9037C193.907 16.6786 193.72 16.5035 193.494 16.3785C193.269 16.2534 193.019 16.1909 192.744 16.1909C192.469 16.1909 192.206 16.2534 191.956 16.3785C191.706 16.5035 191.506 16.6786 191.356 16.9037C191.231 17.1038 191.168 17.3539 191.168 17.6541V27.9338C191.168 29.7846 190.718 31.3479 189.818 32.6234C188.942 33.899 187.804 34.862 186.404 35.5123C185.003 36.1626 183.502 36.4877 181.902 36.4877Z" fill="white"/>
<path d="M93.7864 54.9956L92.9664 53.0535H87.1543L86.3343 54.9956H83.3851L87.8017 44.9252H92.4053L96.8363 54.9956H93.7864ZM88.1182 50.8092H92.0169L90.0603 46.2056L88.1182 50.8092ZM106.405 44.9252H109.397V50.6941C109.397 52.104 108.894 53.2021 107.887 53.9886C106.88 54.775 105.412 55.1682 103.485 55.1682C101.547 55.1682 100.075 54.775 99.0681 53.9886C98.061 53.2021 97.5575 52.104 97.5575 50.6941V44.9252H100.55V50.392C100.55 51.1209 100.785 51.6915 101.255 52.104C101.734 52.5164 102.478 52.7226 103.485 52.7226C105.432 52.7226 106.405 51.9457 106.405 50.392V44.9252ZM110.954 47.3709V44.9252H122.434V47.3709H118.191V54.9956H115.198V47.3709H110.954ZM124.981 53.7872C123.802 52.8664 123.212 51.5908 123.212 49.9604C123.212 48.3299 123.802 47.0544 124.981 46.1336C126.161 45.2129 127.801 44.7526 129.901 44.7526C132.002 44.7526 133.642 45.2129 134.822 46.1336C136.001 47.0544 136.591 48.3299 136.591 49.9604C136.591 51.5908 136.001 52.8664 134.822 53.7872C133.642 54.7079 132.002 55.1682 129.901 55.1682C127.801 55.1682 126.161 54.7079 124.981 53.7872ZM127.168 47.9463C126.525 48.445 126.204 49.1164 126.204 49.9604C126.204 50.8044 126.525 51.4806 127.168 51.9889C127.82 52.4876 128.731 52.737 129.901 52.737C131.071 52.737 131.978 52.4876 132.62 51.9889C133.273 51.4806 133.599 50.8044 133.599 49.9604C133.599 49.1164 133.273 48.445 132.62 47.9463C131.978 47.438 131.071 47.1838 129.901 47.1838C128.731 47.1838 127.82 47.438 127.168 47.9463ZM137.367 47.3709V44.9252H148.847V47.3709H144.603V54.9956H141.611V47.3709H137.367ZM158.553 54.9956L155.259 51.4278H153.389V54.9956H150.396V44.9252H153.389H157.561C158.769 44.9252 159.767 45.2033 160.553 45.7596C161.349 46.3159 161.747 47.1551 161.747 48.2772C161.747 50.0707 160.716 51.1017 158.654 51.3703L162.337 54.9956H158.553ZM153.389 47.3133V49.1835H157.417C157.829 49.1835 158.155 49.1068 158.395 48.9534C158.635 48.7999 158.755 48.5745 158.755 48.2772C158.755 47.9799 158.63 47.7449 158.381 47.5723C158.141 47.3996 157.82 47.3133 157.417 47.3133H153.389ZM173.108 54.9956L172.288 53.0535H166.476L165.656 54.9956H162.706L167.123 44.9252H171.727L176.158 54.9956H173.108ZM167.44 50.8092H171.338L169.382 46.2056L167.44 50.8092ZM183.208 44.9252C185.184 44.9252 186.742 45.3616 187.884 46.2343C189.025 47.1071 189.596 48.3491 189.596 49.9604C189.596 51.5717 189.025 52.8137 187.884 53.6865C186.742 54.5592 185.184 54.9956 183.208 54.9956H177.511V44.9252H183.208ZM182.892 52.5499C184.11 52.5499 185.03 52.3293 185.654 51.8882C186.287 51.4374 186.603 50.7948 186.603 49.9604C186.603 49.126 186.287 48.4882 185.654 48.047C185.03 47.5962 184.11 47.3709 182.892 47.3709H180.503V52.5499H182.892ZM191.434 54.9956V44.9252H201.691V47.2558H194.426V48.7807H200.094V50.9674H194.426V52.665H201.965V54.9956H191.434Z" fill="white"/>
<path d="M60.6462 34.5864C66.4496 28.1584 68.8227 21.8322 66.3089 17.5496C63.1724 12.2071 54.642 12.5814 48.4714 13.853C48.1165 12.8011 47.7179 11.764 47.2765 10.7443C47.9359 10.1076 48.3878 9.2924 48.5748 8.40244C48.7617 7.51248 48.6752 6.58795 48.3263 5.74645C47.9774 4.90496 47.3818 4.18454 46.6154 3.67682C45.8489 3.1691 44.9462 2.89704 44.022 2.89524C43.4324 2.89524 42.8707 3.01425 42.3503 3.21262C40.5038 1.4711 38.4596 0.508789 36.2965 0.508789C31.2679 0.508789 26.8817 5.69469 24.1207 13.853C17.9552 12.5824 9.42274 12.205 6.28412 17.5496C3.77033 21.8322 6.14446 28.1594 11.9479 34.5874C10.5089 36.1814 9.28101 37.7683 8.28584 39.3206C8.09239 39.2962 7.90205 39.2626 7.70136 39.2626C6.46595 39.2645 5.28168 39.7479 4.40811 40.607C3.53454 41.466 3.04293 42.6305 3.04102 43.8453C3.04102 45.4993 3.94826 46.9357 5.28998 47.7373C5.28377 49.1584 5.60239 50.4686 6.28308 51.6272C9.42067 56.9698 17.9583 56.5893 24.1207 55.3198C26.8817 63.4781 31.2679 68.664 36.2965 68.664C41.3262 68.664 45.7124 63.4781 48.4724 55.3208C51.8448 56.0146 55.0558 56.3513 58.3176 55.9617C59.1679 57.0684 60.5024 57.7958 62.0107 57.7958C63.2464 57.7941 64.4311 57.3107 65.3049 56.4514C66.1788 55.5922 66.6704 54.4272 66.672 53.2121C66.672 52.6272 66.55 52.0728 66.3451 51.558C68.7948 47.2754 66.4196 40.9828 60.6451 34.5874L60.6462 34.5864ZM36.2965 48.0231C32.1555 46.1299 28.1898 43.8859 24.4445 41.3164C24.057 36.8417 24.0611 32.3425 24.4569 27.8685C28.1934 25.2898 32.1555 23.0427 36.2965 21.1537C40.4375 23.0424 44.3997 25.2891 48.1362 27.8675C48.5427 32.3505 48.5251 37.0084 48.1486 41.3164C44.4032 43.8859 40.4376 46.1299 36.2965 48.0231ZM47.682 45.2928C47.3704 47.4499 46.9345 49.5879 46.3765 51.6964C44.2344 51.119 42.1267 50.4249 40.0631 49.6171C42.6824 48.3162 45.226 46.8719 47.682 45.2928ZM32.531 49.6171C30.4671 50.425 28.359 51.1191 26.2165 51.6964C25.6586 49.5879 25.2227 47.4499 24.911 45.2928C27.3675 46.8722 29.9114 48.3158 32.531 49.6171ZM21.1755 38.93C19.4365 37.5903 17.7759 36.1551 16.2017 34.6311C17.7735 33.0901 19.4334 31.6385 21.1734 30.2834C21.0129 33.1635 21.0136 36.05 21.1755 38.93ZM24.942 23.8647C25.2634 21.7183 25.7082 19.5915 26.2745 17.4947C28.397 18.0694 30.4857 18.7588 32.531 19.5597C29.9223 20.8556 27.3888 22.2928 24.942 23.8647ZM40.062 19.5587C42.1074 18.7581 44.1961 18.069 46.3186 17.4947C46.8847 19.5912 47.3296 21.7176 47.651 23.8636C45.2042 22.2918 42.6707 20.8547 40.062 19.5587ZM51.4207 30.2824C53.1604 31.6378 54.82 33.0897 56.3914 34.6311C54.8171 36.1554 53.1565 37.591 51.4176 38.931C51.581 35.9464 51.58 33.2314 51.4207 30.2824ZM63.6214 19.0755C65.292 21.9227 63.4558 26.9123 58.541 32.3952C56.3914 30.2916 53.8889 28.2001 51.0896 26.1901C50.7203 22.8159 50.1338 19.6533 49.362 16.7806C53.7938 15.8997 61.3745 15.2517 63.6214 19.0755ZM36.2965 3.56051C37.5203 3.56051 38.772 4.14339 39.9865 5.23082C39.5827 5.91349 39.3677 6.68819 39.3627 7.47791C39.3644 8.69291 39.8559 9.8577 40.7295 10.7169C41.6031 11.5762 42.7875 12.0597 44.0231 12.0616C44.1638 12.0616 44.2951 12.0321 44.4327 12.0209C44.7793 12.8245 45.1103 13.679 45.4227 14.5813C42.4807 15.3748 39.402 16.4612 36.2965 17.806C33.19 16.4612 30.1124 15.3748 27.1703 14.5813C29.562 7.67627 33.0348 3.56051 36.2965 3.56051ZM8.97274 19.0755C11.2176 15.2507 18.8024 15.9007 23.232 16.7806C22.4593 19.6533 21.8727 22.8159 21.5034 26.1901C18.7041 28.2012 16.2027 30.2916 14.0531 32.3952C9.13929 26.9123 7.29998 21.9227 8.97274 19.0755ZM8.9717 50.1013C8.6717 49.5897 8.49584 48.9966 8.4317 48.3436C10.6527 47.9977 12.3627 46.125 12.3627 43.8453C12.3627 42.6348 11.8724 41.5382 11.0893 40.7183C11.9988 39.3532 13.0066 38.0539 14.1048 36.8304C16.242 38.9168 18.7269 40.9909 21.5034 42.9847C21.8727 46.3579 22.4593 49.5205 23.232 52.3922C18.822 53.268 11.2176 53.9282 8.9717 50.1013ZM36.2965 65.6122C32.951 65.6122 29.472 61.5463 27.1 54.6108C30.0638 53.8153 33.1662 52.7238 36.2965 51.3678C39.4269 52.7238 42.5293 53.8153 45.4931 54.6108C43.121 61.5463 39.642 65.6122 36.2965 65.6122ZM49.362 52.3912C50.1338 49.5205 50.7203 46.3579 51.0896 42.9847C53.8662 40.9909 56.351 38.9168 58.4882 36.8304C62.832 41.7142 64.8027 46.2216 64.032 49.1106C63.4036 48.8052 62.7127 48.6445 62.0117 48.6406C59.5289 48.6406 57.5014 50.5733 57.3845 52.9984C54.7331 53.2294 51.9886 52.914 49.362 52.3912Z" fill="white"/>
<path d="M36.2941 28.0659C32.6424 28.0659 29.6631 30.9956 29.6631 34.5864C29.6631 38.1773 32.6424 41.1069 36.2941 41.1069C39.9562 41.1069 42.9252 38.1773 42.9252 34.5864C42.9252 30.9956 39.9562 28.0659 36.2941 28.0659Z" fill="white"/>
<ellipse cx="62.0496" cy="52.9719" rx="5.86207" ry="5.76437" fill="white"/>
</svg>
