<svg width="174" height="59" viewBox="0 0 174 59" fill="none" xmlns="http://www.w3.org/2000/svg">
<path d="M71 30L78.168 10.416C78.5733 9.34933 79.2347 8.54933 80.152 8.016C81.0907 7.46133 82.1467 7.184 83.32 7.184C84.4933 7.184 85.5387 7.45067 86.456 7.984C87.3947 8.51733 88.0667 9.31733 88.472 10.384L95.64 30H88.312L87.096 26.096H79.448L78.168 30H71ZM80.888 20.816H85.656L83.576 13.616C83.5547 13.552 83.5227 13.5093 83.48 13.488C83.4373 13.4453 83.384 13.424 83.32 13.424C83.2773 13.424 83.2347 13.4453 83.192 13.488C83.1493 13.5093 83.1173 13.552 83.096 13.616L80.888 20.816ZM106.102 30C104.672 30 103.403 29.7013 102.294 29.104C101.184 28.4853 100.31 27.6533 99.6695 26.608C99.0295 25.5413 98.7095 24.336 98.7095 22.992V13.008H92.9175V7.6H111.286V13.008H105.622V23.344C105.622 23.6853 105.739 23.984 105.974 24.24C106.208 24.4747 106.496 24.592 106.838 24.592H108.982V30H106.102ZM123.741 30.416C121.971 30.416 120.339 30.128 118.845 29.552C117.373 28.976 116.093 28.1653 115.005 27.12C113.939 26.0533 113.107 24.816 112.509 23.408C111.912 22 111.613 20.464 111.613 18.8C111.613 17.136 111.912 15.6 112.509 14.192C113.107 12.7627 113.939 11.5253 115.005 10.48C116.093 9.43467 117.373 8.624 118.845 8.048C120.339 7.472 121.971 7.184 123.741 7.184C125.512 7.184 127.133 7.472 128.605 8.048C130.099 8.624 131.379 9.43467 132.445 10.48C133.533 11.5253 134.376 12.7627 134.973 14.192C135.571 15.6 135.869 17.136 135.869 18.8C135.869 20.464 135.571 22 134.973 23.408C134.376 24.816 133.533 26.0533 132.445 27.12C131.379 28.1653 130.099 28.976 128.605 29.552C127.133 30.128 125.512 30.416 123.741 30.416ZM123.741 24.848C124.531 24.848 125.245 24.6987 125.885 24.4C126.525 24.08 127.069 23.6427 127.517 23.088C127.965 22.5333 128.307 21.8933 128.541 21.168C128.776 20.4213 128.893 19.632 128.893 18.8C128.893 17.968 128.776 17.1893 128.541 16.464C128.307 15.7173 127.965 15.0667 127.517 14.512C127.069 13.9573 126.525 13.5307 125.885 13.232C125.245 12.912 124.531 12.752 123.741 12.752C122.952 12.752 122.237 12.912 121.597 13.232C120.957 13.5307 120.413 13.9573 119.965 14.512C119.517 15.0667 119.176 15.7173 118.941 16.464C118.707 17.1893 118.589 17.968 118.589 18.8C118.589 19.632 118.707 20.4213 118.941 21.168C119.176 21.8933 119.517 22.5333 119.965 23.088C120.413 23.6427 120.957 24.08 121.597 24.4C122.237 24.6987 122.952 24.848 123.741 24.848ZM155.152 30.416C153.786 30.416 152.496 30.1387 151.28 29.584C150.085 29.0293 149.114 28.208 148.368 27.12C147.621 26.032 147.248 24.6987 147.248 23.12V14.448C147.248 14.1707 147.184 13.936 147.056 13.744C146.949 13.5307 146.8 13.3707 146.608 13.264C146.416 13.1573 146.192 13.104 145.936 13.104C145.68 13.104 145.445 13.1573 145.232 13.264C145.04 13.3707 144.88 13.5307 144.752 13.744C144.645 13.936 144.592 14.1707 144.592 14.448V30H138V14.512C138 12.9547 138.362 11.632 139.088 10.544C139.834 9.456 140.816 8.624 142.032 8.048C143.248 7.472 144.549 7.184 145.936 7.184C147.322 7.184 148.613 7.472 149.808 8.048C151.002 8.624 151.973 9.456 152.72 10.544C153.466 11.632 153.84 12.9547 153.84 14.512V23.184C153.84 23.4613 153.904 23.7067 154.032 23.92C154.16 24.112 154.32 24.2613 154.512 24.368C154.704 24.4747 154.906 24.528 155.12 24.528C155.354 24.528 155.578 24.4747 155.792 24.368C156.005 24.2613 156.176 24.112 156.304 23.92C156.432 23.7067 156.496 23.4613 156.496 23.184V14.512C156.496 12.9547 156.869 11.632 157.616 10.544C158.362 9.456 159.333 8.624 160.528 8.048C161.744 7.472 163.034 7.184 164.4 7.184C165.765 7.184 167.045 7.472 168.24 8.048C169.434 8.624 170.405 9.456 171.152 10.544C171.898 11.632 172.272 12.9547 172.272 14.512V30H165.712V14.352C165.712 14.096 165.648 13.8827 165.52 13.712C165.392 13.52 165.232 13.3707 165.04 13.264C164.848 13.1573 164.634 13.104 164.4 13.104C164.165 13.104 163.941 13.1573 163.728 13.264C163.514 13.3707 163.344 13.52 163.216 13.712C163.109 13.8827 163.056 14.096 163.056 14.352V23.12C163.056 24.6987 162.672 26.032 161.904 27.12C161.157 28.208 160.186 29.0293 158.992 29.584C157.797 30.1387 156.517 30.416 155.152 30.416Z" fill="#5969FF"/>
<path d="M79.9944 46.9668L79.295 45.3103H74.3376L73.6382 46.9668H71.1227L74.8898 38.3773H78.8164L82.5958 46.9668H79.9944ZM75.1598 43.396H78.4851L76.8163 39.4694L75.1598 43.396ZM90.7574 38.3773H93.3097V43.2979C93.3097 44.5004 92.8802 45.4371 92.0213 46.1078C91.1623 46.7786 89.9107 47.114 88.2665 47.114C86.614 47.114 85.3583 46.7786 84.4994 46.1078C83.6404 45.4371 83.211 44.5004 83.211 43.2979V38.3773H85.7633V43.0402C85.7633 43.6619 85.9637 44.1486 86.3645 44.5004C86.7735 44.8522 87.4075 45.028 88.2665 45.028C89.9271 45.028 90.7574 44.3654 90.7574 43.0402V38.3773ZM94.6375 40.4633V38.3773H104.43V40.4633H100.81V46.9668H98.2574V40.4633H94.6375ZM106.602 45.9361C105.596 45.1507 105.093 44.0627 105.093 42.6721C105.093 41.2814 105.596 40.1934 106.602 39.4081C107.608 38.6227 109.007 38.2301 110.798 38.2301C112.59 38.2301 113.989 38.6227 114.995 39.4081C116.001 40.1934 116.504 41.2814 116.504 42.6721C116.504 44.0627 116.001 45.1507 114.995 45.9361C113.989 46.7214 112.59 47.114 110.798 47.114C109.007 47.114 107.608 46.7214 106.602 45.9361ZM108.467 40.9542C107.919 41.3795 107.645 41.9522 107.645 42.6721C107.645 43.3919 107.919 43.9687 108.467 44.4022C109.023 44.8276 109.8 45.0403 110.798 45.0403C111.796 45.0403 112.569 44.8276 113.118 44.4022C113.674 43.9687 113.952 43.3919 113.952 42.6721C113.952 41.9522 113.674 41.3795 113.118 40.9542C112.569 40.5206 111.796 40.3038 110.798 40.3038C109.8 40.3038 109.023 40.5206 108.467 40.9542ZM117.166 40.4633V38.3773H126.958V40.4633H123.338V46.9668H120.786V40.4633H117.166ZM135.237 46.9668L132.427 43.9237H130.832V46.9668H128.279V38.3773H130.832H134.39C135.421 38.3773 136.272 38.6146 136.942 39.089C137.621 39.5635 137.961 40.2793 137.961 41.2364C137.961 42.7661 137.081 43.6455 135.323 43.8746L138.464 46.9668H135.237ZM130.832 40.4143V42.0094H134.267C134.619 42.0094 134.897 41.944 135.102 41.8131C135.306 41.6822 135.409 41.49 135.409 41.2364C135.409 40.9828 135.302 40.7824 135.09 40.6351C134.885 40.4879 134.611 40.4143 134.267 40.4143H130.832ZM147.651 46.9668L146.951 45.3103H141.994L141.295 46.9668H138.779L142.546 38.3773H146.473L150.252 46.9668H147.651ZM142.816 43.396H146.142L144.473 39.4694L142.816 43.396ZM156.266 38.3773C157.951 38.3773 159.28 38.7495 160.254 39.494C161.227 40.2384 161.714 41.2977 161.714 42.6721C161.714 44.0464 161.227 45.1057 160.254 45.8502C159.28 46.5946 157.951 46.9668 156.266 46.9668H151.407V38.3773H156.266ZM155.996 44.8808C157.035 44.8808 157.82 44.6926 158.352 44.3163C158.892 43.9318 159.162 43.3838 159.162 42.6721C159.162 41.9604 158.892 41.4164 158.352 41.0401C157.82 40.6556 157.035 40.4633 155.996 40.4633H153.959V44.8808H155.996ZM163.282 46.9668V38.3773H172.031V40.3652H165.834V41.6659H170.669V43.531H165.834V44.9789H172.264V46.9668H163.282Z" fill="#36175E"/>
<path d="M51.7266 29.4998C56.6766 24.0171 58.7007 18.6212 56.5566 14.9684C53.8813 10.4115 46.6054 10.7308 41.3422 11.8154C41.0395 10.9182 40.6995 10.0336 40.3231 9.16386C40.8855 8.6208 41.271 7.9255 41.4304 7.16641C41.5899 6.40733 41.5161 5.61876 41.2185 4.90101C40.9209 4.18327 40.4129 3.56879 39.7591 3.13574C39.1054 2.70268 38.3354 2.47063 37.5472 2.46909C37.0442 2.46909 36.5651 2.57061 36.1213 2.7398C34.5463 1.25439 32.8028 0.433594 30.9578 0.433594C26.6687 0.433594 22.9275 4.85686 20.5725 11.8154C15.3137 10.7317 8.03601 10.4098 5.35895 14.9684C3.21483 18.6212 5.23983 24.018 10.1898 29.5006C8.96248 30.8602 7.91513 32.2138 7.0663 33.5378C6.9013 33.517 6.73895 33.4883 6.56777 33.4883C5.51404 33.49 4.50393 33.9023 3.75883 34.635C3.01372 35.3677 2.59441 36.3609 2.59277 37.3971C2.59277 38.8079 3.3666 40.033 4.51101 40.7167C4.50571 41.9288 4.77748 43.0463 5.35807 44.0346C8.03424 48.5915 15.3163 48.267 20.5725 47.1842C22.9275 54.1427 26.6687 58.566 30.9578 58.566C35.2478 58.566 38.9889 54.1427 41.3431 47.185C44.2195 47.7768 46.9584 48.064 49.7404 47.7316C50.4657 48.6756 51.604 49.296 52.8904 49.296C53.9445 49.2946 54.9549 48.8823 55.7002 48.1494C56.4456 47.4165 56.8649 46.4229 56.8663 45.3864C56.8663 44.8875 56.7622 44.4146 56.5875 43.9756C58.6769 40.3228 56.651 34.9555 51.7257 29.5006L51.7266 29.4998ZM30.9578 40.9605C27.4257 39.3457 24.0432 37.4317 20.8487 35.2401C20.5181 31.4235 20.5217 27.5859 20.8592 23.7698C24.0462 21.5703 27.4257 19.6537 30.9578 18.0425C34.4898 19.6534 37.8693 21.5698 41.0563 23.769C41.4031 27.5927 41.3881 31.5656 41.0669 35.2401C37.8723 37.4317 34.4899 39.3457 30.9578 40.9605ZM40.6689 38.6318C40.4031 40.4716 40.0313 42.2952 39.5554 44.0936C37.7283 43.6012 35.9306 43.0091 34.1704 42.3201C36.4045 41.2105 38.5741 39.9786 40.6689 38.6318ZM27.746 42.3201C25.9856 43.0092 24.1875 43.6012 22.3601 44.0936C21.8842 42.2952 21.5125 40.4716 21.2466 38.6318C23.3418 39.9788 25.5116 41.2102 27.746 42.3201ZM18.0604 33.2046C16.5772 32.062 15.1608 30.8378 13.8181 29.5379C15.1587 28.2235 16.5745 26.9854 18.0587 25.8296C17.9217 28.2861 17.9223 30.7482 18.0604 33.2046ZM21.2731 20.3548C21.5472 18.524 21.9266 16.7101 22.4095 14.9216C24.2199 15.4118 26.0015 15.9998 27.746 16.6829C25.521 17.7882 23.36 19.014 21.2731 20.3548ZM34.1695 16.682C35.9141 15.9992 37.6956 15.4114 39.506 14.9216C39.9889 16.7098 40.3683 18.5235 40.6425 20.3539C38.5555 19.0133 36.3945 17.7874 34.1695 16.682ZM43.8578 25.8288C45.3416 26.9848 46.7572 28.2232 48.0975 29.5379C46.7547 30.838 45.3383 32.0625 43.8551 33.2055C43.9945 30.6598 43.9937 28.3441 43.8578 25.8288ZM54.2642 16.2699C55.6892 18.6984 54.1231 22.9542 49.931 27.6309C48.0975 25.8366 45.9631 24.0527 43.5754 22.3382C43.2604 19.4602 42.7601 16.7627 42.1019 14.3125C45.8819 13.5611 52.3478 13.0084 54.2642 16.2699ZM30.9578 3.03654C32.0016 3.03654 33.0692 3.5337 34.1051 4.46121C33.7607 5.04348 33.5773 5.70426 33.5731 6.37784C33.5745 7.41417 33.9937 8.40766 34.7388 9.14053C35.4839 9.87341 36.4942 10.2859 37.5481 10.2875C37.6681 10.2875 37.7801 10.2623 37.8975 10.2528C38.1931 10.9382 38.4754 11.667 38.7419 12.4366C36.2325 13.1134 33.6066 14.04 30.9578 15.1871C28.3081 14.04 25.6831 13.1134 23.1737 12.4366C25.2137 6.54704 28.1757 3.03654 30.9578 3.03654ZM7.65219 16.2699C9.56689 13.0075 16.0363 13.562 19.8145 14.3125C19.1554 16.7627 18.6551 19.4602 18.3401 22.3382C15.9525 24.0536 13.8189 25.8366 11.9854 27.6309C7.79424 22.9542 6.22542 18.6984 7.65219 16.2699ZM7.6513 42.7331C7.39542 42.2967 7.24542 41.7909 7.19071 41.2338C9.08513 40.9388 10.5437 39.3415 10.5437 37.3971C10.5437 36.3646 10.1254 35.4293 9.45748 34.7299C10.2332 33.5656 11.0928 32.4574 12.0295 31.4138C13.8525 33.1933 15.9719 34.9625 18.3401 36.6631C18.6551 39.5402 19.1554 42.2377 19.8145 44.6871C16.0531 45.4341 9.56689 45.9972 7.6513 42.7331ZM30.9578 55.963C28.1042 55.963 25.1369 52.495 23.1137 46.5794C25.6416 45.9009 28.2878 44.9699 30.9578 43.8134C33.6278 44.9699 36.274 45.9009 38.8019 46.5794C36.7787 52.495 33.8113 55.963 30.9578 55.963ZM42.1019 44.6862C42.7601 42.2377 43.2604 39.5402 43.5754 36.6631C45.9437 34.9625 48.0631 33.1933 49.886 31.4138C53.591 35.5794 55.2719 39.4239 54.6145 41.888C54.0785 41.6276 53.4892 41.4905 52.8913 41.4872C50.7737 41.4872 49.0442 43.1357 48.9445 45.2042C46.6831 45.4011 44.3422 45.1322 42.1019 44.6862Z" fill="black"/>
<path d="M30.9557 23.938C27.841 23.938 25.2998 26.4368 25.2998 29.4996C25.2998 32.5624 27.841 35.0612 30.9557 35.0612C34.0792 35.0612 36.6116 32.5624 36.6116 29.4996C36.6116 26.4368 34.0792 23.938 30.9557 23.938Z" fill="black"/>
<ellipse cx="52.9238" cy="45.1818" rx="5" ry="4.91667" fill="#5969FF"/>
</svg>
