<svg width="35" height="34" viewBox="0 0 35 34" fill="none" xmlns="http://www.w3.org/2000/svg">
<path d="M17.3975 0.179443C8.14775 0.179443 0.649414 7.67778 0.649414 16.9275C0.649414 26.1772 8.14775 33.6755 17.3975 33.6755C22.143 33.6755 26.4271 31.7013 29.4746 28.53L29.3701 28.3288L24.4773 23.4361C24.2374 23.1963 24.2374 22.8059 24.4773 22.566L26.4474 20.596C26.5636 20.4798 26.7181 20.4158 26.8824 20.4158C27.0467 20.4158 27.2012 20.4799 27.3174 20.596L31.8542 25.1328L31.9823 25.1642C33.3589 22.732 34.1455 19.9218 34.1455 16.9275C34.1455 7.67778 26.6472 0.179443 17.3975 0.179443Z" fill="#FED2A4"/>
<path d="M17.3975 29.0271C24.0799 29.0271 29.4971 23.6099 29.4971 16.9275C29.4971 10.2451 24.0799 4.82788 17.3975 4.82788C10.715 4.82788 5.29785 10.2451 5.29785 16.9275C5.29785 23.6099 10.715 29.0271 17.3975 29.0271Z" fill="#FFBD86"/>
<path d="M17.8079 31.1585H3.28711C2.90956 31.1585 2.60352 30.8525 2.60352 30.475V21.3708C2.60352 20.9933 2.90956 20.6873 3.28711 20.6873H17.8079C18.1855 20.6873 18.4915 20.9933 18.4915 21.3708V30.475C18.4915 30.8525 18.1855 31.1585 17.8079 31.1585Z" fill="#FE5694"/>
<path d="M4.92773 30.475V21.3708C4.92773 20.9933 5.23378 20.6873 5.61133 20.6873H3.28711C2.90956 20.6873 2.60352 20.9933 2.60352 21.3708V30.475C2.60352 30.8525 2.90956 31.1585 3.28711 31.1585H5.61133C5.23378 31.1585 4.92773 30.8525 4.92773 30.475Z" fill="#FD3581"/>
<path d="M15.7764 24.2078H5.31738C5.26299 24.2078 5.21083 24.1862 5.17237 24.1477C5.13391 24.1092 5.1123 24.0571 5.1123 24.0027V23.3875C5.1123 23.3331 5.13391 23.2809 5.17237 23.2424C5.21083 23.204 5.26299 23.1824 5.31738 23.1824H15.7764C15.8308 23.1824 15.8829 23.204 15.9214 23.2424C15.9598 23.2809 15.9814 23.3331 15.9814 23.3875V24.0027C15.9814 24.0571 15.9598 24.1092 15.9214 24.1477C15.8829 24.1862 15.8308 24.2078 15.7764 24.2078ZM15.7764 26.5985H12.3621C12.3077 26.5985 12.2555 26.5769 12.2171 26.5384C12.1786 26.5 12.157 26.4478 12.157 26.3934V26.12C12.157 26.0656 12.1786 26.0134 12.2171 25.975C12.2555 25.9365 12.3077 25.9149 12.3621 25.9149H15.7764C15.8308 25.9149 15.8829 25.9365 15.9214 25.975C15.9598 26.0134 15.9814 26.0656 15.9814 26.12V26.3934C15.9814 26.4478 15.9598 26.5 15.9214 26.5384C15.8829 26.5769 15.8308 26.5985 15.7764 26.5985ZM10.848 26.5985H5.31738C5.26299 26.5985 5.21083 26.5769 5.17237 26.5384C5.13391 26.5 5.1123 26.4478 5.1123 26.3934V26.12C5.1123 26.0656 5.13391 26.0134 5.17237 25.975C5.21083 25.9365 5.26299 25.9149 5.31738 25.9149H10.8481C10.9025 25.9149 10.9546 25.9365 10.9931 25.975C11.0315 26.0134 11.0531 26.0656 11.0531 26.12V26.3934C11.0531 26.4478 11.0315 26.5 10.993 26.5384C10.9546 26.5769 10.9024 26.5985 10.848 26.5985ZM15.7764 29.0461H5.31738C5.26299 29.0461 5.21083 29.0245 5.17237 28.986C5.13391 28.9476 5.1123 28.8954 5.1123 28.841V28.5676C5.1123 28.5132 5.13391 28.461 5.17237 28.4226C5.21083 28.3841 5.26299 28.3625 5.31738 28.3625H15.7764C15.8308 28.3625 15.8829 28.3841 15.9214 28.4226C15.9598 28.461 15.9814 28.5132 15.9814 28.5676V28.841C15.9814 28.8954 15.9598 28.9476 15.9214 28.986C15.8829 29.0245 15.8308 29.0461 15.7764 29.0461Z" fill="white"/>
<path d="M26.3191 20.7244L23.8342 18.2395C23.3463 18.888 22.7696 19.4647 22.1211 19.9527L24.606 22.4375L26.3191 20.7244Z" fill="#8D9CA8"/>
<path d="M25.327 21.7164L22.9009 19.2903C22.6543 19.5262 22.3939 19.7474 22.1211 19.9525L24.606 22.4374L25.327 21.7164Z" fill="#7A8C98"/>
<path d="M31.982 25.1641L27.3655 20.5476C27.0986 20.2807 26.6657 20.2807 26.3988 20.5476L24.4287 22.5177C24.1618 22.7846 24.1618 23.2175 24.4287 23.4844L29.4743 28.53C30.4476 27.5172 31.2901 26.3865 31.982 25.1641Z" fill="#596C76"/>
<path d="M26.5919 23.4844C26.3249 23.2175 26.3249 22.7846 26.5919 22.5177L27.9637 21.1458L27.3655 20.5476C27.0986 20.2807 26.6657 20.2807 26.3988 20.5476L24.4287 22.5177C24.1618 22.7846 24.1618 23.2175 24.4287 23.4844L29.4743 28.53C29.8284 28.1613 30.1655 27.7765 30.4845 27.3771L26.5919 23.4844Z" fill="#465A61"/>
<path d="M16.971 21.7421C21.7497 21.7421 25.6237 17.8682 25.6237 13.0894C25.6237 8.31069 21.7497 4.43677 16.971 4.43677C12.1923 4.43677 8.31836 8.31069 8.31836 13.0894C8.31836 17.8682 12.1923 21.7421 16.971 21.7421Z" fill="#AF66DA"/>
<path d="M10.0729 13.0894C10.0729 8.60683 13.4816 4.92048 17.8483 4.48079C17.5598 4.45174 17.2671 4.43677 16.971 4.43677C12.1923 4.43677 8.31836 8.31069 8.31836 13.0894C8.31836 17.8682 12.1923 21.7421 16.971 21.7421C17.2671 21.7421 17.5598 21.7271 17.8483 21.6981C13.4816 21.2583 10.0729 17.572 10.0729 13.0894Z" fill="#9857BD"/>
<path d="M16.9709 19.1462C20.316 19.1462 23.0278 16.4344 23.0278 13.0893C23.0278 9.74421 20.316 7.03247 16.9709 7.03247C13.6258 7.03247 10.9141 9.74421 10.9141 13.0893C10.9141 16.4344 13.6258 19.1462 16.9709 19.1462Z" fill="#C8EFFE"/>
<path d="M13.8289 13.0895C13.8289 10.2469 15.7873 7.86205 18.4283 7.20963C17.9515 7.09191 17.4621 7.03251 16.9709 7.03272C13.6258 7.03272 10.9141 9.74446 10.9141 13.0896C10.9141 16.4347 13.6258 19.1464 16.9709 19.1464C17.4734 19.1464 17.9614 19.0848 18.4283 18.9695C15.7873 18.3169 13.8289 15.9321 13.8289 13.0895Z" fill="#99E6FC"/>
</svg>
