<svg width="48" height="52" viewBox="0 0 48 52" fill="none" xmlns="http://www.w3.org/2000/svg">
<path d="M46.1802 15.602C46.2015 15.6244 46.2208 15.6467 46.2421 15.6701C42.2934 15.5347 38.3446 15.4331 34.3959 15.3654C33.7783 15.3518 33.19 15.0996 32.7545 14.6616C32.319 14.2236 32.07 13.6339 32.0599 13.0163C32.0098 8.96189 31.9374 4.90751 31.8426 0.853137C31.8182 0.812512 39.4476 6.82603 46.1802 15.602Z" fill="#5969FF"/>
<path d="M0.896484 26.0193C0.905625 32.1212 1.23977 35.9277 1.81055 39.9009C2.20055 42.6014 3.56148 45.2126 5.58461 47.2662C7.60773 49.3198 10.2006 50.7081 12.8971 51.1134L12.9794 51.1256C16.268 51.5938 17.3862 51.9705 24.2924 52C31.1987 51.9513 31.7278 51.5938 35.0205 51.1256L35.1027 51.1134C37.7992 50.7071 40.3901 49.3157 42.4152 47.2662C44.4404 45.2166 45.7993 42.6014 46.1893 39.9009C46.756 35.9277 47.0902 32.1212 47.1034 26.0193C47.1034 23.0445 47.016 20.6172 46.8688 18.4478C42.723 18.3395 38.5772 18.2609 34.4314 18.2122C33.0522 18.1932 31.7352 17.6353 30.7619 16.6578C29.7886 15.6804 29.2364 14.361 29.2233 12.9817C29.1894 8.70188 29.1393 4.42237 29.073 0.143203C28.7988 0.124922 28.5113 0.108672 28.2046 0.0934375C27.0163 0.0365625 25.565 0 23.682 0C16.7758 0.0497656 16.2466 0.40625 12.954 0.875469L12.8717 0.887656C10.1752 1.29391 7.58437 2.68531 5.55922 4.73586C3.53406 6.78641 2.17414 9.39961 1.78414 12.1002L1.80852 12.1174C1.80852 12.1245 1.80852 12.1316 1.80852 12.1388C1.23875 16.1119 0.904609 19.9184 0.896484 26.0193ZM10.4434 36.0811C10.4386 35.7656 10.4976 35.4524 10.6169 35.1603C10.7362 34.8683 10.9133 34.6033 11.1375 34.3813C11.3618 34.1594 11.6285 33.985 11.9218 33.8687C12.2151 33.7524 12.5289 33.6966 12.8443 33.7045C17.0849 33.7573 21.3254 33.78 25.566 33.7726C25.8858 33.7715 26.2027 33.8339 26.4983 33.9561C26.7938 34.0784 27.0621 34.2581 27.2877 34.4848C27.5133 34.7116 27.6917 34.9808 27.8124 35.2769C27.9332 35.5731 27.994 35.8903 27.9913 36.2101C27.9895 36.8574 27.7326 37.4779 27.2763 37.937C26.82 38.3962 26.2011 38.6569 25.5538 38.6628C21.337 38.675 17.1204 38.6378 12.9042 38.5511C12.2561 38.5316 11.6399 38.2649 11.1822 37.8056C10.7244 37.3463 10.4607 36.7293 10.4434 36.0811ZM10.3621 25.7664C10.3688 25.1215 10.6298 24.5053 11.0883 24.0517C11.5468 23.5981 12.1658 23.3438 12.8108 23.3441C20.2695 23.3116 27.7283 23.3116 35.187 23.3441C35.505 23.3441 35.8198 23.4068 36.1136 23.5284C36.4074 23.6501 36.6743 23.8285 36.8991 24.0533C37.1239 24.2781 37.3023 24.5451 37.424 24.8388C37.5457 25.1326 37.6083 25.4474 37.6083 25.7654C37.6083 26.0834 37.5457 26.3982 37.424 26.692C37.3023 26.9857 37.1239 27.2526 36.8991 27.4775C36.6743 27.7023 36.4074 27.8807 36.1136 28.0023C35.8198 28.124 35.505 28.1866 35.187 28.1866C27.7269 28.213 20.2668 28.213 12.8067 28.1866C12.1622 28.1875 11.5435 27.9336 11.0854 27.4802C10.6273 27.0269 10.368 26.4109 10.3621 25.7664Z" fill="#5969FF"/>
</svg>
