<svg width="64" height="64" viewBox="0 0 64 64" fill="none" xmlns="http://www.w3.org/2000/svg">
<rect width="64" height="64" rx="32" fill="#5969FF"/>
<path fill-rule="evenodd" clip-rule="evenodd" d="M40.456 21.909C40.1323 21.909 39.816 22.005 39.5469 22.1848C39.2778 22.3646 39.068 22.6202 38.9442 22.9192C38.8203 23.2182 38.7879 23.5472 38.851 23.8646C38.9142 24.1821 39.07 24.4736 39.2989 24.7025C39.5277 24.9313 39.8193 25.0872 40.1367 25.1503C40.4541 25.2135 40.7832 25.1811 41.0822 25.0572C41.3812 24.9334 41.6367 24.7236 41.8166 24.4545C41.9964 24.1854 42.0923 23.8691 42.0923 23.5454C42.092 23.1115 41.9195 22.6955 41.6127 22.3887C41.3059 22.0819 40.8898 21.9094 40.456 21.909ZM40.456 24.0909C40.3481 24.0909 40.2426 24.0589 40.1529 23.9989C40.0632 23.939 39.9933 23.8538 39.952 23.7541C39.9107 23.6545 39.8999 23.5448 39.921 23.439C39.942 23.3332 39.994 23.236 40.0703 23.1597C40.1466 23.0834 40.2437 23.0315 40.3496 23.0104C40.4554 22.9894 40.565 23.0002 40.6647 23.0415C40.7644 23.0828 40.8496 23.1527 40.9095 23.2424C40.9694 23.3321 41.0014 23.4375 41.0014 23.5454C41.001 23.6899 40.9434 23.8284 40.8412 23.9306C40.739 24.0328 40.6005 24.0904 40.456 24.0909Z" fill="white"/>
<path fill-rule="evenodd" clip-rule="evenodd" d="M44.2316 23C44.2586 23.1806 44.2732 23.3628 44.2753 23.5454C44.2732 23.728 44.2586 23.9102 44.2316 24.0909H46.1571C46.0721 24.9657 45.7868 25.8091 45.3233 26.5559C44.8598 27.3027 44.2306 27.9328 43.4844 28.3972L42.6308 26.6818C42.3301 26.89 42.0014 27.0544 41.6544 27.1699L42.5108 28.8854C41.1904 29.4018 39.7239 29.4018 38.4035 28.8854L39.2598 27.1699C38.9128 27.0544 38.5841 26.89 38.2835 26.6818L37.4298 28.3972C36.6836 27.9328 36.0544 27.3027 35.5909 26.5559C35.1274 25.8092 34.8421 24.9657 34.7571 24.0909H36.6826C36.6556 23.9102 36.641 23.728 36.6389 23.5454C36.641 23.3628 36.6556 23.1806 36.6826 23H34.7571C34.8421 22.1251 35.1274 21.2817 35.5909 20.5349C36.0544 19.7881 36.6836 19.158 37.4298 18.6936L38.2834 20.409C38.5841 20.2008 38.9128 20.0364 39.2598 19.9209L38.4035 18.2054C39.7239 17.689 41.1903 17.689 42.5107 18.2054L41.6544 19.9209C42.0014 20.0364 42.3301 20.2008 42.6307 20.409L43.4844 18.6936C44.2306 19.158 44.8598 19.7881 45.3233 20.5349C45.7868 21.2817 46.0721 22.1251 46.1571 23H44.2316ZM38.9419 25.813C39.3904 26.1127 39.9177 26.2727 40.4571 26.2727C41.1801 26.2715 41.8731 25.9838 42.3843 25.4726C42.8955 24.9614 43.1832 24.2684 43.1844 23.5454C43.1844 23.006 43.0244 22.4787 42.7247 22.0302C42.4251 21.5817 41.9991 21.2322 41.5008 21.0257C41.0024 20.8193 40.4541 20.7653 39.925 20.8705C39.396 20.9758 38.91 21.2355 38.5286 21.6169C38.1472 21.9983 37.8875 22.4843 37.7822 23.0133C37.677 23.5424 37.731 24.0907 37.9374 24.5891C38.1439 25.0874 38.4934 25.5134 38.9419 25.813Z" fill="white"/>
<path fill-rule="evenodd" clip-rule="evenodd" d="M40.456 14.5454C38.6759 14.5454 36.9359 15.0733 35.4558 16.0622C33.9758 17.0511 32.8222 18.4567 32.1411 20.1013C31.4599 21.7458 31.2816 23.5554 31.6289 25.3012C31.9762 27.0471 32.8333 28.6507 34.092 29.9094C35.3507 31.168 36.9543 32.0252 38.7002 32.3725C40.446 32.7197 42.2556 32.5415 43.9001 31.8603C45.5447 31.1791 46.9503 30.0256 47.9392 28.5455C48.9281 27.0655 49.456 25.3254 49.456 23.5454C49.4536 21.1592 48.5047 18.8714 46.8173 17.184C45.13 15.4967 42.8422 14.5478 40.456 14.5454ZM40.456 30.3636C39.1075 30.3636 37.7892 29.9637 36.668 29.2145C35.5467 28.4653 34.6728 27.4005 34.1568 26.1546C33.6407 24.9088 33.5057 23.5378 33.7688 22.2152C34.0319 20.8927 34.6812 19.6778 35.6348 18.7242C36.5883 17.7707 37.8032 17.1213 39.1258 16.8582C40.4484 16.5952 41.8193 16.7302 43.0652 17.2462C44.311 17.7623 45.3759 18.6362 46.1251 19.7574C46.8743 20.8787 47.2742 22.1969 47.2742 23.5454C47.2726 25.3532 46.5537 27.0865 45.2754 28.3648C43.9971 29.6432 42.2638 30.362 40.456 30.3636Z" fill="white"/>
<path fill-rule="evenodd" clip-rule="evenodd" d="M29.9396 39.6663H29.4487C29.2808 38.9556 28.999 38.2769 28.6141 37.6563L28.9632 37.3099C29.1451 37.1275 29.2471 36.8803 29.2469 36.6227C29.2472 36.4955 29.2224 36.3695 29.1737 36.252C29.125 36.1345 29.0535 36.0278 28.9632 35.9381L28.0632 35.0381C27.9732 34.948 27.8663 34.8765 27.7486 34.8277C27.6309 34.7789 27.5047 34.7538 27.3773 34.7538C27.2499 34.7538 27.1238 34.7789 27.0061 34.8277C26.8884 34.8765 26.7815 34.948 26.6914 35.0381L26.3451 35.3872C25.7231 35.0051 25.0448 34.7234 24.3351 34.5527V34.0618C24.3349 33.8043 24.2326 33.5574 24.0506 33.3753C23.8685 33.1933 23.6216 33.091 23.3641 33.0909H22.0932C21.8358 33.091 21.5889 33.1933 21.4068 33.3754C21.2248 33.5574 21.1224 33.8043 21.1223 34.0618V34.5527C20.4126 34.7234 19.7343 35.0051 19.1123 35.3872L18.7632 35.0381C18.6735 34.948 18.5668 34.8765 18.4493 34.8277C18.3318 34.7789 18.2059 34.7538 18.0787 34.7538C17.9515 34.7538 17.8255 34.7789 17.7081 34.8277C17.5906 34.8765 17.4839 34.948 17.3941 35.0381L16.4941 35.9381C16.4042 36.028 16.3329 36.1347 16.2842 36.2522C16.2355 36.3696 16.2105 36.4955 16.2105 36.6227C16.2105 36.7498 16.2355 36.8757 16.2842 36.9932C16.3329 37.1106 16.4042 37.2174 16.4941 37.3072L16.8432 37.6563C16.4584 38.2769 16.1765 38.9557 16.0087 39.6663H15.5178C15.2605 39.6669 15.0138 39.7694 14.8319 39.9513C14.6499 40.1333 14.5474 40.3799 14.5469 40.6372V41.9081C14.5474 42.1655 14.6499 42.4121 14.8319 42.594C15.0138 42.776 15.2605 42.8785 15.5178 42.879H16.0087C16.1766 43.5897 16.4584 44.2685 16.8432 44.889L16.4941 45.2354C16.3123 45.4179 16.2103 45.6651 16.2105 45.9227C16.2101 46.0499 16.235 46.1759 16.2837 46.2934C16.3324 46.4109 16.4039 46.5176 16.4941 46.6072L17.3941 47.5072C17.4842 47.5974 17.5911 47.6689 17.7088 47.7177C17.8265 47.7664 17.9527 47.7916 18.0801 47.7916C18.2075 47.7916 18.3336 47.7664 18.4513 47.7177C18.569 47.6689 18.6759 47.5974 18.766 47.5072L19.1123 47.1581C19.7343 47.5403 20.4126 47.8219 21.1223 47.9927V48.4836C21.1224 48.7411 21.2248 48.988 21.4068 49.17C21.5889 49.3521 21.8358 49.4544 22.0932 49.4545H23.3641C23.6216 49.4544 23.8685 49.3521 24.0506 49.17C24.2326 48.988 24.3349 48.7411 24.3351 48.4836V47.9927C25.0448 47.8219 25.7231 47.5403 26.3451 47.1581L26.6941 47.5072C26.7839 47.5973 26.8906 47.6688 27.0081 47.7176C27.1255 47.7664 27.2515 47.7915 27.3787 47.7915C27.5059 47.7915 27.6318 47.7664 27.7493 47.7176C27.8668 47.6688 27.9735 47.5973 28.0632 47.5072L28.9632 46.6072C29.0532 46.5173 29.1245 46.4106 29.1732 46.2932C29.2218 46.1757 29.2469 46.0498 29.2469 45.9227C29.2469 45.7955 29.2218 45.6696 29.1732 45.5522C29.1245 45.4347 29.0532 45.328 28.9632 45.2381L28.6141 44.889C28.999 44.2685 29.2808 43.5897 29.4487 42.879H29.9396C30.1969 42.8785 30.4436 42.776 30.6255 42.594C30.8075 42.4121 30.9099 42.1654 30.9105 41.9081V40.6372C30.9099 40.3799 30.8075 40.1333 30.6255 39.9513C30.4436 39.7693 30.1969 39.6669 29.9396 39.6663ZM22.7287 44.2727C22.1353 44.2727 21.5553 44.0967 21.062 43.7671C20.5686 43.4374 20.1841 42.9689 19.9571 42.4207C19.73 41.8726 19.6706 41.2694 19.7863 40.6874C19.9021 40.1055 20.1878 39.5709 20.6074 39.1514C21.0269 38.7318 21.5615 38.4461 22.1434 38.3303C22.7254 38.2146 23.3286 38.274 23.8767 38.501C24.4249 38.7281 24.8935 39.1126 25.2231 39.606C25.5527 40.0993 25.7287 40.6793 25.7287 41.2727C25.7289 41.6667 25.6515 42.0569 25.5008 42.421C25.3501 42.7851 25.1291 43.1159 24.8505 43.3945C24.5719 43.6731 24.2411 43.8941 23.877 44.0448C23.5129 44.1955 23.1227 44.2729 22.7287 44.2727Z" fill="white"/>
<path fill-rule="evenodd" clip-rule="evenodd" d="M29.2204 27.1949L37.165 34.8149C37.8178 34.6703 38.4966 34.6924 39.1386 34.8793C39.7807 35.0661 40.3653 35.4117 40.8386 35.884C41.253 36.2847 41.5783 36.7681 41.7935 37.3029C42.0087 37.8376 42.109 38.4116 42.0877 38.9876C42.0628 39.6012 41.9092 40.2026 41.6366 40.7528C41.3641 41.303 40.9788 41.7897 40.5059 42.1813C39.7294 42.8304 38.7498 43.1865 37.7377 43.1876C36.7881 43.1942 35.866 42.8692 35.1304 42.2686C34.5593 41.8237 34.121 41.2307 33.8633 40.5542C33.6056 39.8777 33.5383 39.1434 33.6686 38.4313L25.7268 30.8086C25.0911 30.9656 24.4257 30.9563 23.7947 30.7814C23.1637 30.6066 22.5883 30.2722 22.1241 29.8104C21.5879 29.3163 21.1955 28.6862 20.9885 27.9871C20.7816 27.2879 20.7678 26.5458 20.9486 25.8395C20.9737 25.7486 21.0218 25.6657 21.0883 25.5988C21.1547 25.5319 21.2372 25.4833 21.3279 25.4575C21.4186 25.4317 21.5144 25.4298 21.6061 25.4518C21.6978 25.4738 21.7822 25.519 21.8514 25.5831C21.8623 25.5913 23.5804 27.2167 23.5804 27.2167C23.7463 27.3478 23.9512 27.4198 24.1627 27.4213C24.3741 27.4228 24.58 27.3537 24.7477 27.2249L25.615 26.3304C25.7423 26.1624 25.807 25.9553 25.798 25.7447C25.7891 25.5342 25.707 25.3333 25.5659 25.1767C25.5577 25.1686 23.8395 23.5431 23.8395 23.5431C23.7725 23.4765 23.7236 23.3937 23.6977 23.3027C23.6718 23.2118 23.6697 23.1157 23.6916 23.0237C23.7136 22.9318 23.7587 22.8469 23.8228 22.7774C23.8869 22.7079 23.9678 22.656 24.0577 22.6267C24.7585 22.4199 25.502 22.4054 26.2103 22.5849C26.9185 22.7644 27.5655 23.1311 28.0832 23.6467C28.5634 24.0893 28.9207 24.6489 29.12 25.2708C29.3193 25.8927 29.3539 26.5556 29.2204 27.1949ZM37.2032 40.7085L38.6732 40.6813L39.6959 39.6258L39.6686 38.1613L38.6077 37.144L37.1377 37.1713L36.115 38.2267L36.1423 39.6913L37.2032 40.7085Z" fill="white"/>
</svg>
