<svg width="44" height="52" viewBox="0 0 44 52" fill="none" xmlns="http://www.w3.org/2000/svg">
<path d="M21.6713 25.0485C25.1124 25.0485 28.0923 23.8142 30.527 21.379C32.9617 18.9444 34.1959 15.9654 34.1959 12.5239C34.1959 9.08337 32.9617 6.10406 30.5266 3.66851C28.0915 1.23418 25.112 0 21.6713 0C18.2297 0 15.2506 1.23418 12.816 3.66892C10.3813 6.10366 9.14664 9.08307 9.14664 12.5239C9.14664 15.9654 10.3812 18.9448 12.8164 21.3796C15.2515 23.8139 18.2309 25.0485 21.6713 25.0485ZM43.586 39.9851C43.5157 38.972 43.3737 37.8666 43.1646 36.6995C42.9536 35.5235 42.6819 34.4119 42.3565 33.3959C42.0205 32.3458 41.5635 31.3088 40.9986 30.315C40.4122 29.2835 39.7235 28.3853 38.9506 27.6462C38.1425 26.873 37.1531 26.2514 36.0089 25.7978C34.8688 25.3469 33.6051 25.1183 32.2536 25.1183C31.7227 25.1183 31.2094 25.3361 30.218 25.9816C29.5132 26.4405 28.8064 26.8962 28.0974 27.3486C27.4163 27.7827 26.4935 28.1894 25.3537 28.5575C24.2417 28.9174 23.1126 29.0999 21.9982 29.0999C20.8838 29.0999 19.7551 28.9174 18.6418 28.5575C17.5033 28.1897 16.5806 27.7831 15.9001 27.349C15.111 26.8448 14.397 26.3846 13.7777 25.9811C12.7874 25.3357 12.2736 25.1178 11.7429 25.1178C10.3908 25.1178 9.12765 25.3468 7.98782 25.7983C6.84444 26.251 5.85462 26.8726 5.04568 27.6466C4.27331 28.3861 3.58421 29.2838 2.99861 30.315C2.43413 31.3087 1.9771 32.3454 1.64062 33.3963C1.31563 34.4124 1.04395 35.5235 0.832904 36.6995C0.623788 37.865 0.481805 38.9707 0.411524 39.9864C0.341611 41.0084 0.306958 42.0326 0.307627 43.057C0.307627 45.7714 1.17049 47.9688 2.87206 49.5894C4.5526 51.1887 6.77619 52 9.48027 52H34.5185C37.2226 52 39.4453 51.1891 41.1263 49.5895C42.8283 47.97 43.6911 45.7722 43.6911 43.0566C43.6907 42.0089 43.6555 40.9754 43.586 39.9851Z" fill="#5969FF"/>
</svg>
