<svg width="46" height="52" viewBox="0 0 46 52" fill="none" xmlns="http://www.w3.org/2000/svg">
<path fill-rule="evenodd" clip-rule="evenodd" d="M17.6568 1.26125C19.3159 0.431812 21.1453 0 23.0002 0C24.8552 0 26.6846 0.431812 28.3437 1.26125L41.1892 7.68148C42.3384 8.25619 43.3049 9.13959 43.9803 10.2327C44.6557 11.3258 45.0134 12.5853 45.0132 13.8703V32.8567C45.0133 34.8834 44.498 36.8768 43.5157 38.6495C42.5334 40.4222 41.1165 41.9159 39.398 42.9902L26.6682 50.9476C25.5684 51.6353 24.2974 52 23.0002 52C21.7031 52 20.4321 51.6353 19.3323 50.9476L6.60249 42.9902C4.88403 41.9159 3.46704 40.4222 2.48475 38.6495C1.50247 36.8768 0.987167 34.8834 0.987305 32.8567V13.8703C0.987115 12.5853 1.34476 11.3258 2.02017 10.2327C2.69557 9.13959 3.66204 8.25619 4.81127 7.68148L17.6568 1.26125ZM31.8809 22.1572C32.0663 21.9845 32.215 21.7762 32.3181 21.5447C32.4212 21.3133 32.4767 21.0634 32.4811 20.8101C32.4856 20.5567 32.439 20.3051 32.3441 20.0701C32.2492 19.8352 32.108 19.6218 31.9288 19.4426C31.7496 19.2634 31.5362 19.1222 31.3013 19.0273C31.0663 18.9324 30.8147 18.8858 30.5613 18.8902C30.308 18.8947 30.0581 18.9502 29.8267 19.0533C29.5952 19.1564 29.3869 19.3051 29.2142 19.4905L20.4845 28.2202L16.7863 24.522C16.4286 24.1887 15.9555 24.0073 15.4667 24.0159C14.9779 24.0245 14.5115 24.2225 14.1658 24.5682C13.8201 24.9139 13.6221 25.3803 13.6135 25.8691C13.6049 26.358 13.7863 26.831 14.1196 27.1887L19.1511 32.2203C19.5049 32.5736 19.9845 32.7721 20.4845 32.7721C20.9845 32.7721 21.4641 32.5736 21.8178 32.2203L31.8809 22.1572Z" fill="#5969FF"/>
</svg>
