<svg width="37" height="37" viewBox="0 0 37 37" fill="none" xmlns="http://www.w3.org/2000/svg">
<path d="M35.3355 24.0985H2.25354C1.5208 24.0985 0.926758 23.5044 0.926758 22.7717V15.4357C0.926758 14.7029 1.5208 14.1089 2.25354 14.1089H35.3355C36.0683 14.1089 36.6623 14.7029 36.6623 15.4357V22.7717C36.6623 23.5044 36.0683 24.0985 35.3355 24.0985Z" fill="#FE99A0"/>
<path d="M36.6626 15.4357V22.7713C36.6626 23.5039 36.0687 24.0986 35.336 24.0986H32.5606C33.2941 24.0986 33.888 23.5039 33.888 22.7713V15.4357C33.888 14.7031 33.2941 14.1084 32.5606 14.1084H35.336C36.0687 14.1085 36.6626 14.7031 36.6626 15.4357ZM32.6303 26.2557C32.2731 26.2557 31.9434 26.4503 31.7738 26.7648C29.2832 31.3835 24.3996 34.5288 18.7948 34.5288C13.1901 34.5288 8.30649 31.3835 5.81582 26.7648C5.64629 26.4503 5.31652 26.2557 4.95934 26.2557C4.21814 26.2557 3.75092 27.0476 4.10292 27.6999C4.88153 29.1424 5.87986 30.4769 7.08031 31.6621C10.2184 34.7605 14.476 36.4933 18.8859 36.4699C23.3062 36.4464 27.4583 34.7136 30.5869 31.585C31.7561 30.4158 32.7304 29.1039 33.4931 27.688C33.8418 27.0406 33.3659 26.2556 32.6305 26.2556H32.6303V26.2557ZM18.7948 5.05807C23.855 5.05807 28.3268 7.62159 30.9809 11.5182C31.1642 11.7873 31.4659 11.9514 31.7916 11.9514C32.5747 11.9514 33.0395 11.0743 32.5984 10.4272C32.005 9.55757 31.3315 8.74532 30.5869 8.00107C27.4368 4.85169 23.2492 3.1167 18.7948 3.1167C14.3405 3.1167 10.1522 4.85169 7.00278 8.001C6.25812 8.74525 5.58466 9.5575 4.99122 10.4271C4.55015 11.0742 5.01492 11.9513 5.79807 11.9513C6.12365 11.9513 6.42545 11.7873 6.60876 11.5182C9.26281 7.62159 13.7347 5.05807 18.7948 5.05807Z" fill="#FD8087"/>
<path d="M26.408 26.2557C26.1444 26.2557 25.8938 26.3647 25.7094 26.5531C23.9512 28.3506 21.5007 29.4676 18.7946 29.4676C16.0884 29.4676 13.638 28.3506 11.8797 26.5531C11.6954 26.3647 11.4448 26.2557 11.1812 26.2557C10.319 26.2557 9.88936 27.2924 10.4921 27.909C12.6021 30.0677 15.5445 31.4091 18.7946 31.4091C22.0446 31.4091 24.987 30.0677 27.097 27.909C27.6998 27.2924 27.2702 26.2557 26.408 26.2557ZM18.7946 10.1186C20.8026 10.1186 22.6694 10.7336 24.2172 11.7848C24.3773 11.8935 24.5664 11.9515 24.7599 11.9514C25.7154 11.9514 26.0961 10.7151 25.3057 10.1781C23.4474 8.91572 21.2054 8.17725 18.7946 8.17725C16.3839 8.17725 14.1419 8.91572 12.2836 10.1781C11.4931 10.715 11.8738 11.9514 12.8294 11.9514C13.0229 11.9514 13.212 11.8935 13.3721 11.7848C14.9198 10.7336 16.7867 10.1186 18.7946 10.1186Z" fill="#FD8087"/>
<path d="M9.26369 17.1867C9.21917 17.0692 9.1399 16.9682 9.03645 16.8969C8.933 16.8257 8.81029 16.7877 8.68468 16.788H8.68384C8.56085 16.7878 8.44062 16.8244 8.33856 16.8931C8.2365 16.9617 8.15726 17.0592 8.11099 17.1732C8.10931 17.1772 8.10777 17.1813 8.10623 17.1853L6.77211 20.6881C6.72234 20.8215 6.72735 20.9692 6.78604 21.099C6.84473 21.2287 6.95235 21.3299 7.08541 21.3806C7.21847 21.4313 7.36618 21.4273 7.49631 21.3695C7.62644 21.3117 7.72843 21.2048 7.78003 21.0721L8.68272 18.7019L9.57661 21.0706C9.61533 21.1731 9.68435 21.2614 9.77449 21.3238C9.86464 21.3861 9.97163 21.4195 10.0812 21.4196C10.1685 21.4196 10.2544 21.3984 10.3317 21.3579C10.409 21.3174 10.4752 21.2587 10.5249 21.1869C10.5745 21.1152 10.6059 21.0324 10.6165 20.9458C10.6271 20.8592 10.6166 20.7714 10.5857 20.6897L9.26369 17.1867ZM14.3508 16.7879C14.2078 16.7893 14.0712 16.8474 13.971 16.9495C13.8709 17.0517 13.8154 17.1894 13.8167 17.3324L13.8347 19.1871L12.3433 17.0274C12.278 16.9328 12.1841 16.8615 12.0754 16.824C11.9667 16.7865 11.8488 16.7847 11.739 16.8189C11.6292 16.8531 11.5333 16.9216 11.4651 17.0142C11.397 17.1069 11.3602 17.2189 11.3603 17.3339V20.8801C11.3603 21.0231 11.4171 21.1603 11.5182 21.2615C11.6194 21.3626 11.7565 21.4194 11.8996 21.4194C12.0426 21.4194 12.1798 21.3626 12.2809 21.2615C12.382 21.1603 12.4389 21.0231 12.4389 20.8801V19.0638L13.8539 21.1129C14.0086 21.3363 14.2681 21.4309 14.515 21.3536C14.7662 21.2751 14.9285 21.0423 14.9285 20.7553L14.8953 17.322C14.8923 17.0242 14.6454 16.7836 14.3508 16.7879ZM33.8879 21.2662C33.8306 21.2236 33.7808 21.1718 33.7405 21.113L32.3254 19.0637V20.88C32.3254 21.1777 32.0838 21.4193 31.7861 21.4193C31.4884 21.4193 31.2468 21.1777 31.2468 20.88V17.3338C31.2468 17.2188 31.2836 17.1068 31.3518 17.0142C31.4199 16.9215 31.5159 16.8531 31.6257 16.819C31.7355 16.7849 31.8533 16.7867 31.9619 16.8242C32.0705 16.8618 32.1643 16.933 32.2297 17.0275L33.721 19.1874L33.703 17.3323C33.7022 17.2546 33.7183 17.1776 33.7502 17.1067C33.7821 17.0358 33.8291 16.9727 33.8878 16.9217L34.6115 19.4429L33.8879 21.2662ZM24.5189 16.7879C24.448 16.7879 24.3779 16.8018 24.3125 16.8289C24.247 16.856 24.1876 16.8958 24.1375 16.9459C24.0874 16.9959 24.0477 17.0554 24.0206 17.1208C23.9935 17.1863 23.9796 17.2564 23.9796 17.3272V20.8801C23.9796 21.178 24.221 21.4194 24.5189 21.4194C24.8168 21.4194 25.0582 21.178 25.0582 20.8801V17.3272C25.0582 17.1842 25.0014 17.047 24.9002 16.9459C24.7991 16.8447 24.6619 16.7879 24.5189 16.7879ZM19.4319 19.9655C19.3777 19.92 19.315 19.8856 19.2474 19.8643C19.1799 19.843 19.1088 19.8352 19.0383 19.8414C18.9677 19.8475 18.8991 19.8676 18.8362 19.9003C18.7734 19.933 18.7177 19.9777 18.6722 20.032C18.644 20.0656 18.6139 20.0967 18.5824 20.1247C18.4213 20.2681 18.214 20.3408 17.9661 20.3408C17.2839 20.3408 16.7289 19.7858 16.7289 19.1037C16.7289 18.4214 17.2839 17.8664 17.9661 17.8664C18.2125 17.866 18.4534 17.9395 18.6575 18.0774C18.776 18.1545 18.9201 18.182 19.0587 18.1539C19.1973 18.1257 19.3193 18.0443 19.3984 17.9272C19.4776 17.81 19.5076 17.6664 19.4819 17.5274C19.4563 17.3883 19.377 17.2649 19.2612 17.1837C18.8789 16.925 18.4277 16.7871 17.9661 16.7878C16.6892 16.7878 15.6504 17.8267 15.6504 19.1036C15.6504 20.3805 16.6892 21.4193 17.9661 21.4193C18.4792 21.4193 18.9404 21.25 19.2995 20.9302C19.3707 20.8668 19.4371 20.7982 19.4983 20.7251C19.5439 20.6709 19.5783 20.6082 19.5996 20.5407C19.6209 20.4732 19.6287 20.4021 19.6225 20.3316C19.6163 20.261 19.5963 20.1924 19.5636 20.1296C19.5309 20.0668 19.4862 20.011 19.4319 19.9655ZM5.04712 18.6258C4.62744 18.471 4.23551 18.3028 4.09814 18.2428C4.04976 18.1977 4.0492 18.1396 4.05395 18.1064C4.06038 18.0618 4.09422 17.9522 4.26977 17.8994C4.71881 17.7643 5.14443 18.0958 5.15995 18.1081C5.26981 18.1997 5.41155 18.2439 5.55398 18.2309C5.69641 18.218 5.82787 18.149 5.91944 18.0392C6.01101 17.9293 6.05518 17.7876 6.04225 17.6451C6.02931 17.5027 5.96033 17.3712 5.85047 17.2797C5.81537 17.2502 4.97811 16.5593 3.95859 16.8667C3.4323 17.0253 3.05967 17.4416 2.98626 17.9533C2.91705 18.4356 3.12623 18.8997 3.5322 19.1643C3.55604 19.1799 3.58107 19.1935 3.60708 19.2051C3.62777 19.2143 4.11981 19.4333 4.67372 19.6376C4.88807 19.7167 5.10703 19.8574 5.07879 20.0154C5.05537 20.1467 4.87164 20.3409 4.55179 20.3409C4.2251 20.3409 3.91161 20.2102 3.71327 19.9913C3.66573 19.9388 3.60831 19.8962 3.54429 19.866C3.48028 19.8357 3.41093 19.8183 3.34019 19.8148C3.26946 19.8113 3.19874 19.8218 3.13206 19.8457C3.06538 19.8695 3.00406 19.9063 2.95159 19.9539C2.8991 20.0014 2.8565 20.0588 2.82621 20.1228C2.79593 20.1869 2.77855 20.2562 2.77507 20.3269C2.77159 20.3977 2.78207 20.4684 2.80593 20.5351C2.82979 20.6018 2.86655 20.6631 2.91412 20.7155C3.31946 21.1628 3.91637 21.4194 4.55186 21.4194C5.34683 21.4194 6.01497 20.9086 6.1406 20.2049C6.23582 19.6716 5.99854 18.9768 5.04712 18.6258ZM22.7168 16.7879H20.7547C20.4568 16.7879 20.2154 17.0293 20.2154 17.3272C20.2154 17.6251 20.4568 17.8665 20.7547 17.8665H21.1926V20.8802C21.1926 21.1781 21.434 21.4195 21.7318 21.4195C22.0297 21.4195 22.2711 21.1781 22.2711 20.8802V17.8665H22.7169C22.8584 17.8642 22.9934 17.8064 23.0927 17.7055C23.1919 17.6046 23.2476 17.4687 23.2476 17.3272C23.2475 17.1856 23.1919 17.0498 23.0926 16.9489C22.9933 16.848 22.8584 16.7902 22.7168 16.7879ZM28.1766 16.7881C26.8996 16.7881 25.8614 17.827 25.8614 19.104C25.8614 20.3803 26.8996 21.4193 28.1766 21.4193C29.4536 21.4193 30.4926 20.3803 30.4926 19.104C30.4926 17.827 29.4536 16.7881 28.1766 16.7881ZM28.1766 20.3407C27.495 20.3407 26.9399 19.7857 26.9399 19.104C26.9399 18.4217 27.495 17.8666 28.1766 17.8666C28.859 17.8666 29.4141 18.4217 29.4141 19.104C29.4141 19.7857 28.859 20.3407 28.1766 20.3407Z" fill="#FFF8BF"/>
<path d="M34.8146 20.7548C34.8146 21.0424 34.6528 21.2746 34.4011 21.3537C34.2221 21.4098 34.0358 21.3752 33.8877 21.266V16.9216C33.9842 16.8363 34.1084 16.7888 34.2372 16.7878H34.2422C34.3844 16.7879 34.5208 16.844 34.6218 16.944C34.7228 17.0441 34.7802 17.18 34.7815 17.3221L34.8146 20.7548Z" fill="#FCF2A9"/>
<path d="M30.7226 11.9514H22.1489C21.3511 11.9514 20.8637 11.0751 21.2846 10.3974L26.4357 2.10132L33.2097 10.3974C33.6306 11.0751 31.5203 11.9514 30.7226 11.9514Z" fill="#FEE97D"/>
<path d="M34.4891 10.3974L28.7511 1.15625C28.3531 0.5153 27.4204 0.5153 27.0224 1.15625L26.4355 2.10131L31.5867 10.3974C32.0075 11.0751 31.5201 11.9514 30.7224 11.9514H33.6247C34.4225 11.9514 34.9099 11.0751 34.4891 10.3974Z" fill="#FEE45A"/>
<path d="M28.4748 5.38613V7.46327C28.4748 7.53735 28.4602 7.61071 28.4319 7.67916C28.4036 7.74761 28.362 7.80981 28.3096 7.86219C28.2573 7.91458 28.1951 7.95612 28.1266 7.98445C28.0582 8.01279 27.9848 8.02735 27.9107 8.02732C27.8366 8.02734 27.7633 8.01277 27.6948 7.98444C27.6264 7.9561 27.5642 7.91455 27.5118 7.86217C27.4594 7.80979 27.4179 7.7476 27.3896 7.67915C27.3612 7.61071 27.3467 7.53735 27.3467 7.46327V4.12346C27.3467 3.98958 27.3933 3.86779 27.4715 3.77075L27.9732 3.81102C27.9732 3.81102 28.4728 5.32866 28.4748 5.38613Z" fill="#FE99A0"/>
<path d="M28.4749 4.12337V5.38604L27.4717 3.77067C27.5243 3.70475 27.5912 3.65152 27.6672 3.61493C27.7432 3.57835 27.8265 3.55934 27.9109 3.55933C28.0604 3.55936 28.2039 3.6188 28.3097 3.72457C28.4154 3.83034 28.4749 3.97379 28.4749 4.12337Z" fill="#FD8087"/>
<path d="M27.9107 10.2226C28.2222 10.2226 28.4748 9.97004 28.4748 9.65853C28.4748 9.34701 28.2222 9.09448 27.9107 9.09448C27.5992 9.09448 27.3467 9.34701 27.3467 9.65853C27.3467 9.97004 27.5992 10.2226 27.9107 10.2226Z" fill="#FE99A0"/>
</svg>
