<svg width="18" height="18" viewBox="0 0 18 18" fill="none" xmlns="http://www.w3.org/2000/svg">
<path d="M7.67627 0C11.9158 0 15.3525 3.43678 15.3525 7.67627C15.3525 9.23508 14.8879 10.6854 14.0896 11.8962L17.5458 15.3525C18.1514 15.9582 18.1514 16.9401 17.5458 17.5458C16.9401 18.1514 15.9582 18.1514 15.3525 17.5458L11.8962 14.0896C10.6854 14.8879 9.23508 15.3525 7.67627 15.3525C3.43678 15.3525 0 11.9158 0 7.67627C0 3.43678 3.43678 0 7.67627 0ZM7.67627 2.19322C4.64807 2.19322 2.19322 4.64807 2.19322 7.67627C2.19322 10.7045 4.64807 13.1593 7.67627 13.1593C10.7045 13.1593 13.1593 10.7045 13.1593 7.67627C13.1593 4.64807 10.7045 2.19322 7.67627 2.19322Z" fill="white"/>
</svg>
