<svg width="40" height="40" viewBox="0 0 40 40" fill="none" xmlns="http://www.w3.org/2000/svg">
<path d="M20 0C14.6957 0 9.60859 2.10714 5.85786 5.85786C2.10714 9.60859 0 14.6957 0 20C0 25.3043 2.10714 30.3914 5.85786 34.1421C9.60859 37.8929 14.6957 40 20 40C25.3043 40 30.3914 37.8929 34.1421 34.1421C37.8929 30.3914 40 25.3043 40 20C40 14.6957 37.8929 9.60859 34.1421 5.85786C30.3914 2.10714 25.3043 0 20 0ZM30 20.04C30.0034 20.2552 29.9633 20.4688 29.8822 20.6681C29.8011 20.8674 29.6806 21.0483 29.528 21.2L22.944 27.764C22.7946 27.9137 22.6171 28.0325 22.4217 28.1136C22.2264 28.1948 22.0169 28.2366 21.8054 28.2368C21.5939 28.237 21.3844 28.1955 21.1889 28.1147C20.9934 28.0339 20.8157 27.9154 20.666 27.766C20.5163 27.6166 20.3975 27.4391 20.3164 27.2437C20.2352 27.0484 20.1934 26.8389 20.1932 26.6274C20.193 26.4159 20.2345 26.2064 20.3153 26.0109C20.3961 25.8154 20.5146 25.6377 20.664 25.488L24.52 21.628H11.6C11.1757 21.628 10.7687 21.4594 10.4686 21.1594C10.1686 20.8593 10 20.4523 10 20.028C10 19.6037 10.1686 19.1967 10.4686 18.8966C10.7687 18.5966 11.1757 18.428 11.6 18.428H24.556L20.664 14.536C20.3617 14.2337 20.1918 13.8236 20.1918 13.396C20.1918 13.1843 20.2335 12.9746 20.3145 12.779C20.3955 12.5834 20.5143 12.4057 20.664 12.256C20.8137 12.1063 20.9914 11.9875 21.187 11.9065C21.3826 11.8255 21.5923 11.7838 21.804 11.7838C22.2316 11.7838 22.6417 11.9537 22.944 12.256L29.528 18.82C29.6782 18.9693 29.7973 19.147 29.8783 19.3427C29.9593 19.5384 30.0007 19.7482 30 19.96V20.04Z" fill="#5969FF"/>
</svg>
