<svg width="50" height="52" viewBox="0 0 50 52" fill="none" xmlns="http://www.w3.org/2000/svg">
<path d="M38.8624 15.0721C38.8624 9.03157 39.1827 7.75852 37.7989 7.32983C34.6724 6.35555 34.9415 7.05703 34.9415 2.75721C34.9415 2.13367 34.493 1.40621 33.9036 1.19836C29.3676 -0.399455 20.6545 -0.399455 16.1185 1.19836C15.5419 1.40621 15.0806 2.13367 15.0806 2.75721C15.0806 7.13498 15.2728 6.38153 12.2232 7.32983C11.6338 7.5117 11.1597 8.1872 11.1597 8.81074V15.0591C14.9397 13.4613 19.4884 12.1882 24.8188 11.7985C26.1258 11.7076 32.6094 12.4221 38.8624 15.0721ZM19.5269 3.83541C22.8327 3.25085 27.1893 3.25085 30.508 3.83541C31.9047 4.08223 32.0072 6.0178 30.4952 5.84893C26.9074 5.44622 23.1403 5.44622 19.5397 5.84893C18.0405 6.00481 18.1302 4.06924 19.5269 3.83541ZM48.0112 43.651C47.6268 43.2613 46.9476 43.0534 46.4479 43.0534C43.8468 43.0534 44.3465 47.1064 39.3877 47.1064C34.1855 47.1064 34.9927 42.8066 32.0584 43.0794C30.8668 43.1963 30.2902 44.1186 29.9186 44.7162C28.0222 47.8079 22.5124 48.0158 20.3854 44.5993C19.2065 42.7287 17.3358 42.339 15.7469 44.7812C13.7224 47.743 8.63546 48.0287 6.30341 44.7422C5.79087 44.0147 5.08613 43.0274 3.9073 43.0274C2.84378 43.0274 1.63932 43.9887 1.57525 45.3267C1.47274 47.5221 5.23989 51.9519 11.0188 51.9519C13.7096 51.9519 16.2338 51.0036 18.1174 49.3018C22.0511 52.8352 28.3682 52.8222 32.2763 49.3018C40.4897 56.6674 52.073 46.9765 48.0112 43.651ZM13.1202 42.6767C15.5419 38.8445 20.4751 38.4288 23.3068 42.9365C23.435 43.0924 23.64 43.2613 23.8835 43.3912V14.1758C11.5185 15.4099 3.71509 21.6582 0.806443 24.4382C0.0248232 25.1786 -0.141751 26.3608 0.396413 27.2961L9.48114 43.2483C10.4806 43.9887 12.3129 43.9238 13.1202 42.6767ZM49.19 24.4382C46.2814 21.6712 38.4652 15.4099 26.113 14.1758V43.573C26.3949 43.4821 26.8818 43.2483 27.0484 42.9885C29.8289 38.4938 34.903 38.7146 37.376 42.8066C37.8117 43.5341 39.1058 44.0017 40.3744 43.5341L49.6128 27.2831C50.1382 26.3478 49.9716 25.1656 49.19 24.4382Z" fill="#5969FF"/>
</svg>
