<svg viewBox="0 0 42 28" fill="none" xmlns="http://www.w3.org/2000/svg">
<path d="M38.7725 0.205078H3.24207C1.51349 0.205078 0.112305 1.60627 0.112305 3.33484V24.4551C0.112305 26.1836 1.51349 27.5849 3.24207 27.5849H38.7725C40.501 27.5849 41.9023 26.1837 41.9023 24.4551V3.33484C41.9023 1.60627 40.5011 0.205078 38.7725 0.205078Z" fill="#F5F5F5"/>
<path d="M25.0902 7.8986C21.7794 5.69148 17.3076 6.5938 15.1019 9.8988C13.9955 11.5484 14.4452 13.79 16.1005 14.8936C17.7545 15.9972 19.9889 15.549 21.0925 13.8936C22.1961 12.2382 24.432 11.7956 26.0859 12.8934C27.7427 13.997 28.1883 16.2386 27.0831 17.8882C29.2903 14.5777 28.3981 10.1058 25.0902 7.8986Z" fill="#FF4B55"/>
<path d="M15.1013 9.89868C13.995 11.5483 14.4447 13.7899 16.1 14.8935C17.754 15.9971 19.9884 15.5489 21.092 13.8935C22.1956 12.2381 24.4314 11.7955 26.0854 12.8933C27.7422 13.9969 28.1877 16.2384 27.0826 17.8881C24.8783 21.2045 20.408 22.0956 17.0972 19.8884C13.7894 17.6813 12.8942 13.2095 15.1013 9.89868Z" fill="#41479B"/>
<path d="M28.7563 5.17716L30.0651 7.14439C30.1179 7.22378 30.1371 7.32087 30.1184 7.41438C30.0998 7.50789 30.0448 7.59019 29.9656 7.64326L29.6337 7.86551C29.5944 7.89187 29.5502 7.91021 29.5037 7.91947C29.4573 7.92873 29.4094 7.92874 29.363 7.91949C29.3165 7.91024 29.2723 7.89192 29.2329 7.86557C29.1935 7.83922 29.1598 7.80536 29.1335 7.76593L27.8231 5.79919C27.7701 5.71971 27.7509 5.62246 27.7696 5.52881C27.7883 5.43517 27.8435 5.35278 27.9229 5.29975L28.2564 5.07709C28.2958 5.05079 28.3399 5.03252 28.3864 5.02331C28.4328 5.01411 28.4807 5.01416 28.5271 5.02345C28.5735 5.03275 28.6177 5.05111 28.657 5.07748C28.6963 5.10385 28.7301 5.13773 28.7563 5.17716ZM30.7756 8.21028L32.0887 10.1763C32.115 10.2158 32.1333 10.26 32.1425 10.3066C32.1517 10.3532 32.1516 10.4011 32.1422 10.4476C32.1328 10.4941 32.1143 10.5383 32.0878 10.5777C32.0613 10.617 32.0273 10.6508 31.9877 10.6769L31.6543 10.8972C31.5749 10.9498 31.4779 10.9687 31.3846 10.9499C31.2912 10.931 31.2091 10.876 31.1562 10.7969L29.8439 8.83288C29.7908 8.75345 29.7715 8.65618 29.7901 8.56247C29.8087 8.46876 29.8638 8.38629 29.9432 8.3332L30.2758 8.11086C30.3151 8.08457 30.3593 8.06628 30.4057 8.05705C30.4521 8.04781 30.4999 8.04781 30.5463 8.05704C30.5927 8.06628 30.6368 8.08456 30.6762 8.11085C30.7155 8.13714 30.7493 8.17093 30.7756 8.21028ZM30.1577 4.24194L33.4902 9.24311C33.5164 9.28247 33.5346 9.32662 33.5438 9.37303C33.553 9.41943 33.5529 9.4672 33.5436 9.51358C33.5344 9.55997 33.516 9.60407 33.4897 9.64337C33.4634 9.68267 33.4296 9.7164 33.3902 9.74263L33.0554 9.96578C33.016 9.99204 32.9719 10.0103 32.9255 10.0195C32.879 10.0287 32.8313 10.0286 32.7849 10.0193C32.7385 10.0101 32.6944 9.99173 32.6551 9.9654C32.6157 9.93907 32.582 9.90525 32.5558 9.86588L29.2221 4.86504C29.1959 4.82566 29.1776 4.78149 29.1685 4.73506C29.1593 4.68863 29.1593 4.64084 29.1686 4.59444C29.1779 4.54803 29.1963 4.50392 29.2227 4.46461C29.249 4.4253 29.2829 4.39157 29.3223 4.36535L29.6581 4.14179C29.7377 4.08888 29.835 4.06971 29.9286 4.08849C30.0223 4.10727 30.1047 4.16246 30.1577 4.24194ZM31.5552 3.3082L32.8668 5.27926C32.8931 5.31872 32.9113 5.36298 32.9205 5.4095C32.9296 5.45602 32.9294 5.50388 32.92 5.55034C32.9106 5.59681 32.8921 5.64095 32.8656 5.68025C32.8391 5.71955 32.8051 5.75323 32.7655 5.77936L32.432 5.99973C32.3525 6.05229 32.2555 6.07119 32.1621 6.05232C32.0687 6.03344 31.9866 5.97831 31.9337 5.89901L30.6211 3.93056C30.5949 3.8912 30.5766 3.84705 30.5674 3.80063C30.5582 3.75422 30.5583 3.70645 30.5676 3.66006C30.5768 3.61366 30.5952 3.56955 30.6215 3.53024C30.6478 3.49093 30.6816 3.45719 30.721 3.43095L31.0556 3.20797C31.0949 3.18171 31.1391 3.16347 31.1855 3.15429C31.232 3.14512 31.2798 3.14519 31.3262 3.15449C31.3726 3.1638 31.4167 3.18217 31.456 3.20854C31.4953 3.23492 31.529 3.26878 31.5552 3.3082ZM33.5758 6.34768L34.8854 8.31467C34.9383 8.39409 34.9575 8.49125 34.9389 8.58482C34.9202 8.6784 34.8651 8.76075 34.7858 8.81378L34.4532 9.03612C34.4138 9.06245 34.3697 9.08076 34.3232 9.09C34.2767 9.09923 34.2289 9.09922 34.1825 9.08994C34.136 9.08067 34.0918 9.06233 34.0525 9.03596C34.0131 9.0096 33.9794 8.97573 33.9531 8.9363L32.6435 6.96931C32.5906 6.88989 32.5714 6.79273 32.5901 6.69916C32.6088 6.60559 32.6638 6.52325 32.7431 6.4702L33.0757 6.24786C33.1151 6.22153 33.1593 6.20322 33.2057 6.19398C33.2522 6.18475 33.3 6.18476 33.3465 6.19404C33.3929 6.20331 33.4371 6.22165 33.4764 6.24802C33.5158 6.27438 33.5495 6.30825 33.5758 6.34768ZM11.0283 16.9952L14.3604 21.991C14.4134 22.0705 14.4327 22.1678 14.414 22.2614C14.3953 22.3551 14.3401 22.4375 14.2606 22.4905L13.927 22.7134C13.8876 22.7396 13.8435 22.7579 13.797 22.7671C13.7506 22.7763 13.7028 22.7763 13.6564 22.767C13.61 22.7578 13.5659 22.7395 13.5266 22.7131C13.4872 22.6868 13.4535 22.653 13.4272 22.6136L10.0951 17.6178C10.0421 17.5384 10.0228 17.4411 10.0415 17.3474C10.0602 17.2537 10.1154 17.1713 10.1949 17.1183L10.5285 16.8955C10.608 16.8424 10.7053 16.8232 10.7991 16.8419C10.8928 16.8606 10.9752 16.9157 11.0283 16.9952ZM9.62938 17.9297L10.9376 19.892C10.9906 19.9714 11.0098 20.0685 10.9912 20.1621C10.9726 20.2557 10.9176 20.3381 10.8383 20.3912L10.5064 20.6133C10.4671 20.6397 10.4229 20.658 10.3765 20.6673C10.33 20.6765 10.2822 20.6765 10.2358 20.6673C10.1894 20.6581 10.1452 20.6398 10.1058 20.6135C10.0665 20.5872 10.0327 20.5534 10.0064 20.514L8.69662 18.5522C8.67034 18.5129 8.65206 18.4688 8.64284 18.4224C8.63362 18.3759 8.63364 18.3282 8.64288 18.2818C8.65213 18.2354 8.67043 18.1912 8.69674 18.1519C8.72304 18.1126 8.75684 18.0788 8.7962 18.0526L9.1297 17.8299C9.16906 17.8036 9.21321 17.7854 9.25963 17.7762C9.30605 17.767 9.35382 17.767 9.40022 17.7763C9.44662 17.7856 9.49074 17.8039 9.53006 17.8302C9.56938 17.8565 9.60313 17.8904 9.62938 17.9297ZM11.6511 20.9639L12.9607 22.9311C13.0137 23.0106 13.0329 23.1077 13.0142 23.2013C12.9955 23.2949 12.9404 23.3772 12.861 23.4302L12.5282 23.6527C12.4888 23.6791 12.4446 23.6974 12.3982 23.7066C12.3517 23.7158 12.3039 23.7158 12.2575 23.7066C12.2111 23.6973 12.1669 23.679 12.1275 23.6527C12.0882 23.6263 12.0544 23.5925 12.0281 23.5531L10.7176 21.5863C10.6647 21.5068 10.6455 21.4095 10.6642 21.3159C10.6829 21.2223 10.738 21.1399 10.8174 21.0868L11.151 20.864C11.1904 20.8377 11.2346 20.8194 11.2811 20.8102C11.3275 20.801 11.3753 20.801 11.4218 20.8103C11.4682 20.8196 11.5124 20.8379 11.5517 20.8643C11.591 20.8906 11.6248 20.9245 11.6511 20.9639ZM8.2304 18.8639L11.5604 23.8599C11.6133 23.9393 11.6325 24.0365 11.6139 24.1301C11.5952 24.2238 11.5402 24.3062 11.4609 24.3593L11.1281 24.5818C11.0888 24.6081 11.0446 24.6264 10.9982 24.6356C10.9517 24.6449 10.9039 24.6449 10.8575 24.6356C10.8111 24.6264 10.7669 24.608 10.7276 24.5817C10.6882 24.5554 10.6544 24.5216 10.6282 24.4822L7.29625 19.4868C7.24324 19.4073 7.22399 19.31 7.24272 19.2163C7.26146 19.1226 7.31665 19.0401 7.39615 18.9871L7.73096 18.764C7.77031 18.7377 7.81445 18.7195 7.86084 18.7103C7.90724 18.7011 7.95499 18.7012 8.00137 18.7105C8.04775 18.7197 8.09185 18.7381 8.13115 18.7644C8.17044 18.7907 8.20417 18.8245 8.2304 18.8639ZM10.0956 10.1766L13.4272 5.17675C13.4535 5.13735 13.4872 5.10351 13.5265 5.07717C13.5659 5.05082 13.61 5.03249 13.6564 5.02321C13.7029 5.01393 13.7506 5.01389 13.7971 5.02309C13.8435 5.0323 13.8877 5.05056 13.9271 5.07684L14.2606 5.29959C14.3401 5.35263 14.3952 5.43504 14.4139 5.5287C14.4326 5.62237 14.4134 5.71963 14.3604 5.79911L11.0275 10.7962C10.9746 10.8755 10.8924 10.9306 10.799 10.9494C10.7055 10.9682 10.6084 10.9493 10.5289 10.8967L10.1967 10.6767C10.1571 10.6506 10.1231 10.6169 10.0967 10.5775C10.0702 10.5382 10.0517 10.4941 10.0423 10.4476C10.0329 10.4012 10.0328 10.3533 10.042 10.3068C10.0511 10.2603 10.0693 10.2161 10.0956 10.1766ZM8.69605 9.24344L12.0282 4.24259C12.0545 4.20319 12.0883 4.16934 12.1276 4.143C12.167 4.11666 12.2111 4.09833 12.2576 4.08907C12.304 4.0798 12.3518 4.07978 12.3983 4.08901C12.4447 4.09824 12.4889 4.11654 12.5282 4.14285L12.861 4.36535C12.9404 4.41839 12.9954 4.50075 13.0141 4.59435C13.0328 4.68794 13.0135 4.78512 12.9606 4.86455L9.6293 9.86563C9.60306 9.90504 9.56931 9.93889 9.52998 9.96524C9.49065 9.99159 9.44651 10.0099 9.40009 10.0192C9.35367 10.0285 9.30587 10.0285 9.25943 10.0193C9.21299 10.0101 9.16883 9.99183 9.12945 9.96554L8.79579 9.74279C8.71637 9.68978 8.66125 9.6074 8.64255 9.51376C8.62384 9.42012 8.64309 9.32289 8.69605 9.24344ZM7.29567 8.31426L10.6282 3.30844C10.6544 3.26902 10.6882 3.23516 10.7276 3.2088C10.7669 3.18244 10.8111 3.16409 10.8575 3.15481C10.904 3.14554 10.9518 3.1455 10.9982 3.15472C11.0447 3.16394 11.0889 3.18223 11.1283 3.20854L11.461 3.43104C11.5404 3.48404 11.5954 3.56636 11.6141 3.65992C11.6328 3.75348 11.6136 3.85064 11.5608 3.93007L8.23032 8.93662C8.2041 8.97604 8.17037 9.00989 8.13105 9.03626C8.09174 9.06263 8.04762 9.081 8.0012 9.0903C7.95479 9.09961 7.907 9.09968 7.86056 9.09051C7.81412 9.08134 7.76994 9.06311 7.73055 9.03685L7.39574 8.8137C7.3163 8.76069 7.26114 8.67833 7.24238 8.58468C7.22361 8.49104 7.24278 8.39378 7.29567 8.31426ZM27.8236 21.991L29.1334 20.0293C29.1597 19.9899 29.1935 19.9561 29.2328 19.9298C29.2722 19.9035 29.3164 19.8852 29.3628 19.876C29.4093 19.8667 29.4571 19.8667 29.5035 19.876C29.5499 19.8853 29.5941 19.9036 29.6334 19.9299L29.9653 20.1522C30.0446 20.2053 30.0996 20.2876 30.1182 20.3812C30.1368 20.4748 30.1175 20.572 30.0646 20.6514L28.7564 22.6135C28.7301 22.6529 28.6964 22.6867 28.6571 22.7131C28.6177 22.7394 28.5736 22.7577 28.5272 22.767C28.4808 22.7763 28.433 22.7763 28.3866 22.7671C28.3401 22.7579 28.296 22.7396 28.2566 22.7134L27.9231 22.4907C27.8437 22.4376 27.7885 22.3552 27.7699 22.2615C27.7512 22.1678 27.7706 22.0705 27.8236 21.991ZM29.8437 18.9671L31.1556 16.9956C31.1819 16.9562 31.2156 16.9224 31.2549 16.8961C31.2942 16.8697 31.3384 16.8513 31.3848 16.842C31.4312 16.8327 31.479 16.8327 31.5254 16.8418C31.5718 16.851 31.616 16.8692 31.6554 16.8955L31.9897 17.1183C32.0291 17.1446 32.0629 17.1783 32.0893 17.2177C32.1156 17.257 32.1339 17.3012 32.1432 17.3476C32.1525 17.394 32.1525 17.4418 32.1433 17.4882C32.1341 17.5346 32.1158 17.5788 32.0896 17.6182L30.7749 19.5865C30.722 19.6658 30.6397 19.7209 30.5463 19.7397C30.4528 19.7585 30.3557 19.7394 30.2763 19.6867L29.9447 19.467C29.9052 19.4408 29.8713 19.4071 29.8448 19.3678C29.8184 19.3285 29.8 19.2844 29.7906 19.238C29.7812 19.1916 29.7811 19.1437 29.7902 19.0973C29.7993 19.0508 29.8175 19.0066 29.8437 18.9671ZM29.222 22.9304L30.5326 20.9635C30.5589 20.9241 30.5926 20.8903 30.6319 20.8639C30.6712 20.8376 30.7154 20.8193 30.7618 20.81C30.8082 20.8007 30.8559 20.8006 30.9024 20.8098C30.9488 20.819 30.9929 20.8373 31.0323 20.8635L31.3673 21.0869C31.4467 21.1399 31.5019 21.2223 31.5206 21.3159C31.5394 21.4096 31.5202 21.5068 31.4673 21.5863L30.1575 23.5534C30.1045 23.6329 30.0222 23.6882 29.9285 23.707C29.8348 23.7258 29.7375 23.7066 29.658 23.6536L29.3221 23.4301C29.2426 23.3771 29.1874 23.2947 29.1686 23.201C29.1499 23.1073 29.1691 23.0099 29.222 22.9304ZM31.2444 19.8912L32.5557 17.9289C32.6088 17.8495 32.6912 17.7944 32.7848 17.7758C32.8784 17.7571 32.9757 17.7764 33.0551 17.8293L33.3899 18.0525C33.4293 18.0787 33.4631 18.1125 33.4895 18.1518C33.5158 18.1912 33.5341 18.2353 33.5434 18.2817C33.5526 18.3282 33.5526 18.376 33.5434 18.4224C33.5342 18.4688 33.5159 18.513 33.4896 18.5523L32.1784 20.5147C32.1253 20.594 32.0429 20.6491 31.9493 20.6678C31.8557 20.6864 31.7584 20.6672 31.679 20.6142L31.3441 20.3911C31.3047 20.3649 31.2708 20.3311 31.2445 20.2918C31.2181 20.2524 31.1998 20.2083 31.1905 20.1619C31.1813 20.1154 31.1812 20.0676 31.1905 20.0212C31.1997 19.9747 31.218 19.9306 31.2444 19.8912ZM30.6214 23.8595L31.9335 21.896C31.9864 21.8168 32.0685 21.7618 32.1618 21.743C32.2552 21.7242 32.3522 21.7431 32.4316 21.7956L32.7651 22.016C32.8047 22.0422 32.8387 22.0759 32.8652 22.1152C32.8917 22.1545 32.9102 22.1987 32.9196 22.2452C32.929 22.2917 32.9291 22.3396 32.92 22.3861C32.9108 22.4327 32.8926 22.4769 32.8663 22.5164L31.5552 24.4825C31.5022 24.562 31.4197 24.6172 31.3261 24.6359C31.2324 24.6546 31.1351 24.6354 31.0556 24.5824L30.721 24.3594C30.6816 24.3331 30.6478 24.2994 30.6215 24.26C30.5952 24.2207 30.5769 24.1765 30.5676 24.1301C30.5584 24.0837 30.5584 24.0359 30.5676 23.9894C30.5768 23.943 30.5951 23.8988 30.6214 23.8595ZM32.6442 20.8304L33.953 18.8645C33.9793 18.8251 34.0131 18.7912 34.0524 18.7649C34.0918 18.7385 34.1359 18.7202 34.1824 18.7109C34.2288 18.7016 34.2767 18.7016 34.3231 18.7108C34.3696 18.7201 34.4138 18.7384 34.4531 18.7647L34.7855 18.9869C34.8649 19.04 34.9199 19.1224 34.9386 19.216C34.9572 19.3097 34.9379 19.4069 34.8849 19.4863L33.575 21.4495C33.5221 21.5289 33.4398 21.584 33.3464 21.6028C33.2529 21.6216 33.1557 21.6026 33.0763 21.5499L32.7449 21.3303C32.7054 21.3041 32.6715 21.2704 32.6451 21.2311C32.6187 21.1918 32.6002 21.1476 32.5909 21.1012C32.5816 21.0548 32.5815 21.0069 32.5906 20.9605C32.5998 20.914 32.618 20.8698 32.6442 20.8304Z" fill="#464655"/>
</svg>
