<svg width="64" height="64" viewBox="0 0 64 64" fill="none" xmlns="http://www.w3.org/2000/svg">
<rect width="64" height="64" rx="32" fill="#5969FF"/>
<path d="M20.4706 25.1331L26.2881 30.9505C27.6085 29.8941 29.2123 29.2076 30.9787 29.0089V20.7755C26.956 21.0112 23.3035 22.6131 20.4706 25.1331ZM19.0244 26.5793C16.2912 29.6517 14.5469 33.684 14.5469 38.1101C14.5469 38.6754 15.0043 39.1328 15.5696 39.1328H21.7741C22.3394 39.1328 22.7969 38.6754 22.7969 38.1101C22.7969 35.941 23.5821 33.9715 24.8419 32.3967L19.0244 26.5793ZM39.9036 30.1131C39.559 29.8125 39.0596 29.7735 38.6791 30.0202L29.8032 35.6821C28.6176 36.4391 27.9105 37.7285 27.9105 39.1328C27.9105 41.389 29.7452 43.2237 32.0014 43.2237C33.5875 43.2237 35.0436 42.2949 35.7108 40.8576L40.1562 31.3136C40.2496 31.113 40.2754 30.8877 40.2299 30.6712C40.1843 30.4548 40.0698 30.2589 39.9036 30.1131ZM44.9784 26.5793L41.9724 29.5853C42.3509 30.3933 42.4007 31.3392 42.01 32.1774L40.6652 35.0646C41.0114 36.0156 41.206 37.0379 41.206 38.1101C41.206 38.6754 41.6634 39.1328 42.2287 39.1328H48.4332C48.9985 39.1328 49.456 38.6754 49.456 38.1101C49.456 33.684 47.7116 29.6517 44.9784 26.5793ZM33.0242 20.7755V29.0089C33.8852 29.1058 34.7057 29.3225 35.4755 29.6374L37.5795 28.2952C38.4224 27.7489 39.4525 27.6317 40.5253 28.14L43.5322 25.1331C40.6994 22.6131 37.0469 21.0112 33.0242 20.7755Z" fill="white"/>
</svg>
