<svg width="12" height="10" viewBox="0 0 12 10" fill="none" xmlns="http://www.w3.org/2000/svg">
<path d="M11.8259 5.28178V6.4089C11.8248 6.77178 11.6913 7.12177 11.4506 7.39334V8.66316C11.4506 8.86255 11.3714 9.05378 11.2304 9.19477C11.0894 9.33576 10.8982 9.41497 10.6988 9.41497H9.947C9.74761 9.41497 9.55638 9.33576 9.41539 9.19477C9.2744 9.05378 9.19519 8.86255 9.19519 8.66316V7.91254H3.18425V8.66435C3.18425 8.86375 3.10504 9.05498 2.96405 9.19597C2.82305 9.33696 2.63183 9.41617 2.43243 9.41617H1.68181C1.48242 9.41617 1.29119 9.33696 1.1502 9.19597C1.00921 9.05498 0.929996 8.86375 0.929996 8.66435V7.39454C0.689043 7.12266 0.555591 6.77219 0.554688 6.4089V5.28178C0.555251 4.9775 0.648338 4.68058 0.821593 4.43044C0.994849 4.1803 1.24008 3.98877 1.52474 3.88126L1.78853 3.22177L2.25617 2.05148C2.44995 1.56231 2.78665 1.1429 3.22235 0.847938C3.65805 0.552979 4.17253 0.39617 4.69867 0.397964H7.68196C8.20791 0.396411 8.72212 0.553333 9.15759 0.848276C9.59305 1.14322 9.92956 1.5625 10.1233 2.05148L10.5909 3.22177L10.8547 3.88126C11.1397 3.98843 11.3853 4.17985 11.5588 4.43004C11.7323 4.68022 11.8255 4.97732 11.8259 5.28178ZM3.56076 6.03C3.56076 5.58035 2.88448 4.90647 2.43363 4.90647C2.33347 4.90018 2.23312 4.91523 2.13921 4.95064C2.04531 4.98604 1.95999 5.04098 1.88892 5.11183C1.81784 5.18268 1.76262 5.26782 1.72692 5.36161C1.69122 5.4554 1.67584 5.55571 1.68181 5.65589C1.67584 5.75607 1.69122 5.85637 1.72692 5.95016C1.76262 6.04395 1.81784 6.12909 1.88892 6.19994C1.95999 6.27079 2.04531 6.32574 2.13921 6.36114C2.23312 6.39654 2.33347 6.4116 2.43363 6.40531C2.88448 6.40411 3.56076 6.47965 3.56076 6.03ZM3.18425 3.77934H9.19639L8.72875 2.60905C8.64495 2.39992 8.50047 2.22067 8.31391 2.09437C8.12735 1.96807 7.90725 1.90052 7.68196 1.9004H4.69867C4.47335 1.90035 4.25318 1.96785 4.06658 2.09416C3.87999 2.22048 3.73554 2.39983 3.65189 2.60905L3.18425 3.77934ZM10.6988 5.65589C10.7048 5.55571 10.6894 5.4554 10.6537 5.36161C10.618 5.26782 10.5628 5.18268 10.4917 5.11183C10.4206 5.04098 10.3353 4.98604 10.2414 4.95064C10.1475 4.91523 10.0472 4.90018 9.947 4.90647C9.49615 4.90647 8.81988 5.58035 8.81988 6.03C8.81988 6.47965 9.49615 6.40411 9.947 6.40411C10.0471 6.41038 10.1473 6.39536 10.2411 6.36002C10.3349 6.32469 10.4202 6.26985 10.4912 6.19914C10.5623 6.12842 10.6175 6.04343 10.6533 5.94979C10.6891 5.85614 10.7046 5.75597 10.6988 5.65589Z" fill="#5969FF"/>
</svg>
