<svg width="171" height="82" viewBox="0 0 171 82" fill="none" xmlns="http://www.w3.org/2000/svg">
<path fill-rule="evenodd" clip-rule="evenodd" d="M36.4812 70.6276C36.2246 68.2346 29.7923 65.3218 29.7923 65.3218C28.1197 64.2878 28.8267 62.9956 28.8267 62.9956C29.8566 60.7279 35.259 62.8655 35.259 62.8655L36.2862 60.4078C33.4235 58.2371 29.769 58.6908 29.769 58.6908C25.2769 59.2071 24.6062 62.2603 24.6062 62.2603C23.5817 66.9376 27.1692 68.0474 27.1692 68.0474C30.4397 69.5936 31.4252 70.229 31.4252 70.229C34.1058 71.9721 31.74 73.1232 31.74 73.1232C28.8246 74.5083 25.1585 72.6062 25.1585 72.6062L24.0156 75.3021C27.0514 77.3626 31.74 76.4924 31.74 76.4924C37.6919 75.6188 36.4812 70.6276 36.4812 70.6276Z" fill="#4A4A4A"/>
<path fill-rule="evenodd" clip-rule="evenodd" d="M46.0718 71.5831C45.8652 69.6452 40.6579 67.29 40.6579 67.29C39.3028 66.4508 39.877 65.4037 39.877 65.4037C40.7106 63.5711 45.0843 65.2984 45.0843 65.2984L45.9158 63.3088C43.5986 61.5532 40.6408 61.9188 40.6408 61.9188C37.0054 62.3367 36.4627 64.8096 36.4627 64.8096C35.6326 68.5953 38.535 69.4951 38.535 69.4951C41.1828 70.746 41.9807 71.2595 41.9807 71.2595C44.1488 72.6715 42.2353 73.6002 42.2353 73.6002C39.8763 74.7251 36.9076 73.1844 36.9076 73.1844L35.9844 75.3674C38.4412 77.0362 42.2353 76.3299 42.2353 76.3299C47.0525 75.6229 46.0718 71.5831 46.0718 71.5831Z" fill="#4A4A4A"/>
<path fill-rule="evenodd" clip-rule="evenodd" d="M50.4267 62.2533L45.2871 76.1316L48.2477 76.1853L49.5869 73.1527H55.7879L57.1286 75.9064H59.9755L54.6149 62.2533H50.4267ZM50.5923 70.6805L52.5475 65.8477L54.6697 70.6805H50.5923ZM69.5265 71.4116L63.7751 62.3662H59.9755V75.9064L62.7691 75.9615V67.0855L68.9119 76.356H72.4309V62.4199H69.5265V71.4116ZM84.9396 68.4892H80.2483V70.6247H83.4334V73.8824C81.2543 74.7251 78.9658 73.8274 78.9658 73.8274C74.4409 70.7955 76.8984 67.029 76.8984 67.029C79.692 62.6457 86.3378 65.3444 86.3378 65.3444V62.8158C78.2377 60.1743 74.7748 64.6126 74.7748 64.6126C70.1971 70.9614 75.8917 75.1209 75.8917 75.1209C81.4781 78.6037 86.8408 75.5684 86.8408 75.5684V70.5676C86.7285 68.2668 84.9396 68.4892 84.9396 68.4892ZM138.064 68.4892H133.374V70.6247H136.555V73.8824C134.376 74.7251 132.087 73.8274 132.087 73.8274C127.562 70.7955 130.02 67.029 130.02 67.029C132.813 62.6457 139.459 65.3444 139.459 65.3444V62.8158C131.36 60.1743 127.898 64.6126 127.898 64.6126C123.318 70.9614 129.013 75.1209 129.013 75.1209C134.6 78.6037 139.962 75.5684 139.962 75.5684V70.5676C139.852 68.2668 138.064 68.4892 138.064 68.4892Z" fill="#4A4A4A"/>
<path fill-rule="evenodd" clip-rule="evenodd" d="M97.5058 59.2744L93.2046 66.4665L88.9055 59.4458H85.1648L91.5854 69.9513L88.0117 76.6925H91.4171L101.305 59.2744H97.5058ZM104.766 62.0612C100.713 62.0612 97.4278 65.3684 97.4278 69.446C97.4278 73.5237 100.713 76.8295 104.766 76.8295C108.82 76.8295 112.109 73.5237 112.109 69.446C112.109 65.3684 108.82 62.0612 104.766 62.0612ZM104.766 73.9395C102.299 73.9395 100.301 71.9272 100.301 69.4454C100.301 68.2536 100.771 67.1107 101.609 66.268C102.447 65.4253 103.583 64.9519 104.768 64.9519C105.952 64.9519 107.088 65.4253 107.926 66.268C108.764 67.1107 109.234 68.2536 109.234 69.4454C109.234 70.6373 108.763 71.7804 107.925 72.6232C107.088 73.466 105.951 73.9395 104.766 73.9395ZM122.751 71.2429L116.998 62.3097H113.088V76.1852L116.05 76.1315V67.1418L122.136 76.2974H125.709V62.2532H122.751V71.2429ZM119.366 16.3702C117.228 8.42633 107.009 4.42238 107.009 4.42238C104.282 3.41864 105.371 4.99516 105.371 4.99516C105.371 4.99516 117.13 10.44 117.13 18.019C117.13 27.4059 104.317 30.2133 104.317 30.2133C115.971 26.4834 116.004 18.5237 116.004 18.5237C115.799 10.5653 105.371 4.99516 105.371 4.99516C101.351 2.70059 99.1695 2.12644 99.1695 2.12644C93.9218 0.357839 95.6245 2.41351 95.6245 2.41351C95.6245 2.41351 111.456 7.43154 111.456 18.5016C111.456 29.8085 89.3893 33.4407 89.3893 33.4407C110.139 29.5676 110.143 18.5953 110.143 18.5953C110.143 8.71204 95.6245 2.41351 95.6245 2.41351C93.4442 1.21907 89.7459 0.256639 89.7459 0.256639C86.32 -0.477925 88.2635 1.02769 88.2635 1.02769C102.168 9.2022 102.168 18.2373 102.168 18.2373C102.168 28.2774 93.0178 30.7861 93.0178 30.7861C90.3591 31.8263 85.2147 32.6587 85.2147 32.6587C84.3819 32.9065 83.7995 33.4827 83.7995 34.1581C83.7995 34.4307 83.8652 34.7006 84.0629 34.9147C84.5653 35.4544 86.2563 36.7198 86.2563 36.7198C86.862 37.2932 87.2158 38.003 87.2158 38.7713C87.2158 40.6562 85.0614 42.186 82.3849 42.2211H82.1878C79.5119 42.186 77.3555 40.6569 77.3555 38.7713C77.3555 38.003 77.7114 37.2932 78.3157 36.7198C78.3157 36.7198 80.0061 35.4544 80.5084 34.9147C80.7062 34.7006 80.7739 34.4314 80.7739 34.1581C80.7739 33.4827 80.1901 32.9065 79.358 32.6587C79.358 32.6587 74.2129 31.827 71.5542 30.7861C71.5542 30.7861 62.4036 28.2781 62.4036 18.2373C62.4036 18.2373 62.4036 9.20152 76.3085 1.02769C76.3085 1.02769 78.2514 -0.477925 74.8261 0.256639C74.8261 0.256639 71.1278 1.21907 68.9475 2.41351C68.9475 2.41351 54.4295 8.71135 54.4295 18.5953C54.4295 18.5953 54.4322 29.5676 75.1841 33.4407C75.1841 33.4407 53.1169 29.8092 53.1169 18.5016C53.1169 7.43154 68.9475 2.41351 68.9475 2.41351C68.9475 2.41351 70.6502 0.357839 65.4025 2.12644C65.4025 2.12644 63.2214 2.6999 59.2001 4.99516C59.2001 4.99516 48.7712 10.5653 48.5672 18.5237C48.5672 18.5237 48.6008 26.4834 60.2561 30.2133C60.2561 30.2133 47.4421 27.4052 47.4421 18.019C47.4421 10.44 59.2001 4.99516 59.2001 4.99516C59.2001 4.99516 60.2903 3.41795 57.5645 4.42238C57.5645 4.42238 47.3436 8.42702 45.2063 16.3702C45.2063 16.3702 44.5582 19.3629 45.5068 21.5486C46.6565 24.2253 49.6547 28.6588 57.2908 31.1434C57.2908 31.1434 60.7673 32.5795 74.6728 35.3759L75.492 35.5639C75.492 35.5639 76.0901 35.8275 75.6617 36.3026L73.7462 37.959C73.7462 37.959 70.9369 40.133 74.9466 41.9629C74.9466 41.9629 77.3932 42.8014 79.1178 44.6588C79.1178 44.6588 80.2271 45.7204 82.1057 45.7734V45.781H82.2309C82.2364 45.781 82.2412 45.783 82.2453 45.783V45.781H82.326V45.783L82.3404 45.781H82.4266V45.7782C84.3298 45.7369 85.4529 44.6588 85.4529 44.6588C87.1782 42.8014 89.6234 41.9629 89.6234 41.9629C93.6344 40.133 90.8237 37.959 90.8237 37.959L88.9096 36.3026C88.4819 35.8275 89.0793 35.5639 89.0793 35.5639L89.8971 35.3759C103.802 32.5795 107.28 31.1434 107.28 31.1434C114.916 28.6588 117.914 24.226 119.065 21.5486C120.014 19.3629 119.366 16.3702 119.366 16.3702Z" fill="#4A4A4A"/>
</svg>
