<svg width="36" height="40" viewBox="0 0 36 40" fill="none" xmlns="http://www.w3.org/2000/svg">
<path fill-rule="evenodd" clip-rule="evenodd" d="M22.5063 0C23.7316 0 24.7249 0.993268 24.7249 2.21854C24.7249 3.44382 23.7316 4.43708 22.5063 4.43708H20.7964V5.99004C29.1685 7.08068 35.6544 14.2582 35.6544 22.9229C35.6544 32.3393 27.9944 39.9992 18.5781 39.9992C9.16173 39.9992 1.50179 32.3393 1.50179 22.9229C1.50179 14.2583 7.98742 7.08092 16.3593 5.99009V4.43708H14.6494C13.4241 4.43708 12.4309 3.44382 12.4309 2.21854C12.4309 0.993268 13.4241 0 14.6494 0H22.5063ZM23.457 29.0216C23.7741 29.0216 24.0791 28.9118 24.323 28.6679C24.7988 28.1922 24.7988 27.4237 24.323 26.9481L19.7978 22.4228V14.3848C19.7978 13.7139 19.249 13.1651 18.5781 13.1651C17.9072 13.1651 17.3583 13.7139 17.3583 14.3848V22.9229C17.3583 23.2522 17.4803 23.5572 17.7121 23.7889L22.591 28.6679C22.835 28.8996 23.1399 29.0216 23.457 29.0216Z" fill="#5969FF"/>
<path d="M7.19844 5.03583C6.36161 4.14082 4.9578 4.09361 4.06271 4.93038L1.04966 7.74744C0.154571 8.58424 0.107357 9.98813 0.944182 10.8832C1.78101 11.7782 3.18492 11.8254 4.07991 10.9886L7.09296 8.17156C7.98805 7.33479 8.03526 5.93087 7.19844 5.03583Z" fill="#5969FF"/>
</svg>
