<svg width="46" height="52" viewBox="0 0 46 52" fill="none" xmlns="http://www.w3.org/2000/svg">
<path d="M26.2486 3.40227V5.13221C37.5704 6.64287 44.9775 15.9017 45.6841 27.4184C45.6985 27.6536 45.6646 27.8893 45.5847 28.111C45.5047 28.3327 45.3803 28.5357 45.2191 28.7076C45.0578 28.8794 44.8632 29.0166 44.6471 29.1105C44.4309 29.2045 44.1979 29.2533 43.9622 29.2539H26.2486V41.9646C26.2786 44.4243 25.3948 46.8076 23.7684 48.6531C22.142 50.4986 19.8886 51.675 17.4446 51.9544C16.0912 52.0858 14.7253 51.9326 13.4347 51.5046C12.144 51.0766 10.9572 50.3832 9.95058 49.4691C8.94393 48.555 8.13969 47.4404 7.58957 46.1969C7.03944 44.9534 6.75561 43.6086 6.75631 42.2488C6.74834 41.6644 6.89821 41.0886 7.19011 40.5822C7.482 40.0758 7.90512 39.6575 8.41486 39.3714C8.92459 39.0854 9.50206 38.9422 10.0864 38.9568C10.6707 38.9715 11.2403 39.1436 11.735 39.4549C12.2203 39.7362 12.6188 40.1457 12.8867 40.6386C13.1546 41.1314 13.2816 41.6885 13.2537 42.2488C13.251 42.7072 13.3452 43.1611 13.5304 43.5805C13.7155 43.9999 13.9873 44.3754 14.3279 44.6822C14.6685 44.9891 15.0702 45.2204 15.5066 45.3609C15.943 45.5014 16.4042 45.548 16.8598 45.4975C17.6734 45.3861 18.4175 44.9794 18.9507 44.3549C19.4838 43.7304 19.7687 42.9317 19.7512 42.1107V29.2539H2.03755C1.80189 29.2533 1.56885 29.2045 1.35273 29.1105C1.13661 29.0166 0.941963 28.8794 0.780734 28.7076C0.619506 28.5357 0.495093 28.3327 0.41513 28.111C0.335168 27.8893 0.301342 27.6536 0.315726 27.4184C1.02232 15.9017 8.43752 6.64287 19.7512 5.13221V3.2642C19.749 2.80956 19.8423 2.35953 20.025 1.9432C20.2077 1.52688 20.4758 1.15355 20.8118 0.847339C21.1479 0.54113 21.5445 0.308868 21.9759 0.165576C22.4074 0.0222827 22.8642 -0.0288508 23.3166 0.0154823C24.1376 0.117724 24.8915 0.520431 25.433 1.14588C25.9744 1.77133 26.265 2.57517 26.2486 3.40227Z" fill="#5969FF"/>
</svg>
