<svg width="12" height="10" viewBox="0 0 12 10" fill="none" xmlns="http://www.w3.org/2000/svg">
<path d="M6.3079 5.64793V4.23902C6.3079 3.86536 6.45634 3.50699 6.72056 3.24277C6.98478 2.97855 7.34314 2.83011 7.71681 2.83011H11.0043C11.1647 2.82909 11.3239 2.85775 11.4739 2.91465V1.89084C11.4739 1.51718 11.3255 1.15881 11.0612 0.894593C10.797 0.630372 10.4387 0.481934 10.065 0.481934H1.61154C1.23788 0.481934 0.879518 0.630372 0.615296 0.894593C0.351075 1.15881 0.202637 1.51718 0.202637 1.89084V7.99611C0.202637 8.36977 0.351075 8.72813 0.615296 8.99236C0.879518 9.25658 1.23788 9.40502 1.61154 9.40502H10.065C10.4387 9.40502 10.797 9.25658 11.0612 8.99236C11.3255 8.72813 11.4739 8.36977 11.4739 7.99611V6.9723C11.3239 7.0292 11.1647 7.05786 11.0043 7.05684H7.71681C7.34314 7.05684 6.98478 6.9084 6.72056 6.64418C6.45634 6.37996 6.3079 6.02159 6.3079 5.64793Z" fill="#5969FF"/>
<path fill-rule="evenodd" clip-rule="evenodd" d="M7.71681 3.76938H11.0043C11.1288 3.76938 11.2483 3.81886 11.3363 3.90694C11.4244 3.99501 11.4739 4.11447 11.4739 4.23902V5.64793C11.4739 5.77248 11.4244 5.89194 11.3363 5.98001C11.2483 6.06809 11.1288 6.11756 11.0043 6.11756H7.71681C7.59225 6.11756 7.4728 6.06809 7.38473 5.98001C7.29665 5.89194 7.24717 5.77248 7.24717 5.64793V4.23902C7.24717 4.11447 7.29665 3.99501 7.38473 3.90694C7.4728 3.81886 7.59225 3.76938 7.71681 3.76938ZM8.49953 5.52921C8.61537 5.60661 8.75157 5.64793 8.8909 5.64793C9.07773 5.64793 9.25691 5.57371 9.38902 5.4416C9.52113 5.30949 9.59535 5.13031 9.59535 4.94347C9.59535 4.80415 9.55404 4.66795 9.47663 4.5521C9.39923 4.43625 9.2892 4.34596 9.16048 4.29264C9.03176 4.23933 8.89012 4.22537 8.75347 4.25256C8.61682 4.27974 8.4913 4.34683 8.39278 4.44535C8.29426 4.54387 8.22716 4.66939 8.19998 4.80604C8.1728 4.94269 8.18675 5.08433 8.24007 5.21306C8.29339 5.34178 8.38368 5.4518 8.49953 5.52921Z" fill="#5969FF"/>
</svg>
